%TF.GenerationSoftware,KiCad,Pcbnew,8.0.6*%
%TF.CreationDate,2024-11-18T08:59:04+03:30*%
%TF.ProjectId,DotMatrix,446f744d-6174-4726-9978-2e6b69636164,rev?*%
%TF.SameCoordinates,Original*%
%TF.FileFunction,Copper,L1,Top*%
%TF.FilePolarity,Positive*%
%FSLAX46Y46*%
G04 Gerber Fmt 4.6, Leading zero omitted, Abs format (unit mm)*
G04 Created by KiCad (PCBNEW 8.0.6) date 2024-11-18 08:59:04*
%MOMM*%
%LPD*%
G01*
G04 APERTURE LIST*
%TA.AperFunction,ComponentPad*%
%ADD10R,1.700000X1.700000*%
%TD*%
%TA.AperFunction,ComponentPad*%
%ADD11O,1.700000X1.700000*%
%TD*%
%TA.AperFunction,ComponentPad*%
%ADD12R,1.800000X1.800000*%
%TD*%
%TA.AperFunction,ComponentPad*%
%ADD13C,1.800000*%
%TD*%
%TA.AperFunction,ViaPad*%
%ADD14C,0.700000*%
%TD*%
%TA.AperFunction,Conductor*%
%ADD15C,0.700000*%
%TD*%
G04 APERTURE END LIST*
D10*
%TO.P,J1,1,Pin_1*%
%TO.N,Net-(J1-Pin_1)*%
X105250000Y-127740000D03*
D11*
%TO.P,J1,2,Pin_2*%
%TO.N,Net-(J1-Pin_2)*%
X105250000Y-125200000D03*
%TO.P,J1,3,Pin_3*%
%TO.N,Net-(J1-Pin_3)*%
X105250000Y-122660000D03*
%TO.P,J1,4,Pin_4*%
%TO.N,Net-(J1-Pin_4)*%
X105250000Y-120120000D03*
%TO.P,J1,5,Pin_5*%
%TO.N,Net-(J1-Pin_5)*%
X105250000Y-117580000D03*
%TO.P,J1,6,Pin_6*%
%TO.N,Net-(J1-Pin_6)*%
X105250000Y-115040000D03*
%TO.P,J1,7,Pin_7*%
%TO.N,Net-(J1-Pin_7)*%
X105250000Y-112500000D03*
%TO.P,J1,8,Pin_8*%
%TO.N,Net-(J1-Pin_8)*%
X105250000Y-109960000D03*
%TD*%
D10*
%TO.P,J3,1,Pin_1*%
%TO.N,Net-(J3-Pin_1)*%
X98500000Y-91040000D03*
D11*
%TO.P,J3,2,Pin_2*%
%TO.N,Net-(J3-Pin_2)*%
X98500000Y-88500000D03*
%TO.P,J3,3,Pin_3*%
%TO.N,Net-(J3-Pin_3)*%
X98500000Y-85960000D03*
%TO.P,J3,4,Pin_4*%
%TO.N,Net-(J3-Pin_4)*%
X98500000Y-83420000D03*
%TO.P,J3,5,Pin_5*%
%TO.N,Net-(J3-Pin_5)*%
X98500000Y-80880000D03*
%TO.P,J3,6,Pin_6*%
%TO.N,Net-(J3-Pin_6)*%
X98500000Y-78340000D03*
%TO.P,J3,7,Pin_7*%
%TO.N,Net-(J3-Pin_7)*%
X98500000Y-75800000D03*
%TO.P,J3,8,Pin_8*%
%TO.N,Net-(J3-Pin_8)*%
X98500000Y-73260000D03*
%TD*%
D10*
%TO.P,J2,1,Pin_1*%
%TO.N,Net-(J2-Pin_1)*%
X105000000Y-91200000D03*
D11*
%TO.P,J2,2,Pin_2*%
%TO.N,Net-(J2-Pin_2)*%
X105000000Y-88660000D03*
%TO.P,J2,3,Pin_3*%
%TO.N,Net-(J2-Pin_3)*%
X105000000Y-86120000D03*
%TO.P,J2,4,Pin_4*%
%TO.N,Net-(J2-Pin_4)*%
X105000000Y-83580000D03*
%TO.P,J2,5,Pin_5*%
%TO.N,Net-(J2-Pin_5)*%
X105000000Y-81040000D03*
%TO.P,J2,6,Pin_6*%
%TO.N,Net-(J2-Pin_6)*%
X105000000Y-78500000D03*
%TO.P,J2,7,Pin_7*%
%TO.N,Net-(J2-Pin_7)*%
X105000000Y-75960000D03*
%TO.P,J2,8,Pin_8*%
%TO.N,Net-(J2-Pin_8)*%
X105000000Y-73420000D03*
%TD*%
D12*
%TO.P,U1,1*%
%TO.N,Net-(R13-Pad1)*%
X155000000Y-75700000D03*
D13*
%TO.P,U1,2*%
%TO.N,Net-(R5-Pad1)*%
X152460000Y-75700000D03*
%TO.P,U1,3*%
%TO.N,Net-(J1-Pin_5)*%
X149920000Y-75700000D03*
%TO.P,U1,4*%
%TO.N,Net-(R14-Pad1)*%
X147380000Y-75700000D03*
%TO.P,U1,5*%
%TO.N,Net-(R6-Pad1)*%
X144840000Y-75700000D03*
%TO.P,U1,6*%
%TO.N,Net-(J1-Pin_6)*%
X142300000Y-75700000D03*
%TO.P,U1,7*%
%TO.N,Net-(R15-Pad1)*%
X139760000Y-75700000D03*
%TO.P,U1,8*%
%TO.N,Net-(R7-Pad1)*%
X137220000Y-75700000D03*
%TO.P,U1,9*%
%TO.N,Net-(J1-Pin_7)*%
X134680000Y-75700000D03*
%TO.P,U1,10*%
%TO.N,Net-(R16-Pad1)*%
X132140000Y-75700000D03*
%TO.P,U1,11*%
%TO.N,Net-(R8-Pad1)*%
X129600000Y-75700000D03*
%TO.P,U1,12*%
%TO.N,Net-(J1-Pin_8)*%
X127060000Y-75700000D03*
%TO.P,U1,13*%
%TO.N,Net-(J1-Pin_4)*%
X155000000Y-122500000D03*
%TO.P,U1,14*%
%TO.N,Net-(R4-Pad1)*%
X152460000Y-122500000D03*
%TO.P,U1,15*%
%TO.N,Net-(R12-Pad1)*%
X149920000Y-122500000D03*
%TO.P,U1,16*%
%TO.N,Net-(J1-Pin_3)*%
X147380000Y-122500000D03*
%TO.P,U1,17*%
%TO.N,Net-(R3-Pad1)*%
X144840000Y-122500000D03*
%TO.P,U1,18*%
%TO.N,Net-(R11-Pad1)*%
X142300000Y-122500000D03*
%TO.P,U1,19*%
%TO.N,Net-(J1-Pin_2)*%
X139760000Y-122500000D03*
%TO.P,U1,20*%
%TO.N,Net-(R2-Pad1)*%
X137220000Y-122500000D03*
%TO.P,U1,21*%
%TO.N,Net-(R10-Pad1)*%
X134680000Y-122500000D03*
%TO.P,U1,22*%
%TO.N,Net-(J1-Pin_1)*%
X132140000Y-122500000D03*
%TO.P,U1,23*%
%TO.N,Net-(R1-Pad1)*%
X129600000Y-122500000D03*
%TO.P,U1,24*%
%TO.N,Net-(R9-Pad1)*%
X127060000Y-122500000D03*
%TD*%
D14*
%TO.N,Net-(J2-Pin_2)*%
X125375000Y-106375000D03*
X111750000Y-92750000D03*
%TO.N,Net-(J2-Pin_5)*%
X115000000Y-72750000D03*
X117500000Y-63500000D03*
%TO.N,Net-(J2-Pin_1)*%
X125250000Y-109000000D03*
X111625000Y-95375000D03*
%TO.N,Net-(J2-Pin_3)*%
X131000000Y-110000000D03*
X111750000Y-90750000D03*
%TO.N,Net-(J2-Pin_4)*%
X131000000Y-108250000D03*
X111750000Y-88750000D03*
%TO.N,Net-(J2-Pin_6)*%
X110250000Y-72750000D03*
X112000000Y-65700000D03*
%TO.N,Net-(J3-Pin_2)*%
X111625000Y-100125000D03*
X130972182Y-113527818D03*
%TO.N,Net-(J3-Pin_3)*%
X137750000Y-114750000D03*
X111702182Y-101952182D03*
%TO.N,Net-(J3-Pin_1)*%
X125250000Y-111500000D03*
X111750000Y-98000000D03*
%TO.N,Net-(J3-Pin_4)*%
X144625000Y-115875000D03*
X111750000Y-104000000D03*
%TO.N,Net-(J3-Pin_8)*%
X134000000Y-70750000D03*
X133000000Y-67900000D03*
%TD*%
D15*
%TO.N,Net-(J2-Pin_2)*%
X125375000Y-106375000D02*
X111750000Y-92750000D01*
%TO.N,Net-(J2-Pin_5)*%
X115000000Y-66000000D02*
X115000000Y-72750000D01*
X117500000Y-63500000D02*
X115000000Y-66000000D01*
%TO.N,Net-(J2-Pin_1)*%
X125250000Y-109000000D02*
X111625000Y-95375000D01*
%TO.N,Net-(J2-Pin_3)*%
X131000000Y-110000000D02*
X111750000Y-90750000D01*
%TO.N,Net-(J2-Pin_4)*%
X131000000Y-108250000D02*
X111750000Y-89000000D01*
X111750000Y-89000000D02*
X111750000Y-88750000D01*
%TO.N,Net-(J2-Pin_6)*%
X112000000Y-65700000D02*
X110250000Y-67450000D01*
X110250000Y-67450000D02*
X110250000Y-72750000D01*
%TO.N,Net-(J3-Pin_2)*%
X125000000Y-113500000D02*
X111625000Y-100125000D01*
X130972182Y-113527818D02*
X130944364Y-113500000D01*
X130944364Y-113500000D02*
X125000000Y-113500000D01*
%TO.N,Net-(J3-Pin_3)*%
X137750000Y-114750000D02*
X124500000Y-114750000D01*
X124500000Y-114750000D02*
X111702182Y-101952182D01*
%TO.N,Net-(J3-Pin_1)*%
X125250000Y-111500000D02*
X111750000Y-98000000D01*
%TO.N,Net-(J3-Pin_4)*%
X123600000Y-115850000D02*
X111750000Y-104000000D01*
X144625000Y-115875000D02*
X144600000Y-115850000D01*
X144600000Y-115850000D02*
X123600000Y-115850000D01*
%TO.N,Net-(J3-Pin_8)*%
X134000000Y-68900000D02*
X133000000Y-67900000D01*
X134000000Y-70750000D02*
X134000000Y-68900000D01*
%TD*%
M02*
