%TF.GenerationSoftware,KiCad,Pcbnew,8.0.6*%
%TF.CreationDate,2024-11-18T08:59:04+03:30*%
%TF.ProjectId,DotMatrix,446f744d-6174-4726-9978-2e6b69636164,rev?*%
%TF.SameCoordinates,Original*%
%TF.FileFunction,Legend,Top*%
%TF.FilePolarity,Positive*%
%FSLAX46Y46*%
G04 Gerber Fmt 4.6, Leading zero omitted, Abs format (unit mm)*
G04 Created by KiCad (PCBNEW 8.0.6) date 2024-11-18 08:59:04*
%MOMM*%
%LPD*%
G01*
G04 APERTURE LIST*
%ADD10C,0.100000*%
%ADD11C,0.150000*%
%ADD12C,0.120000*%
G04 APERTURE END LIST*
D10*
X95625312Y-73777180D02*
X95577693Y-73824800D01*
X95577693Y-73824800D02*
X95434836Y-73872419D01*
X95434836Y-73872419D02*
X95339598Y-73872419D01*
X95339598Y-73872419D02*
X95196741Y-73824800D01*
X95196741Y-73824800D02*
X95101503Y-73729561D01*
X95101503Y-73729561D02*
X95053884Y-73634323D01*
X95053884Y-73634323D02*
X95006265Y-73443847D01*
X95006265Y-73443847D02*
X95006265Y-73300990D01*
X95006265Y-73300990D02*
X95053884Y-73110514D01*
X95053884Y-73110514D02*
X95101503Y-73015276D01*
X95101503Y-73015276D02*
X95196741Y-72920038D01*
X95196741Y-72920038D02*
X95339598Y-72872419D01*
X95339598Y-72872419D02*
X95434836Y-72872419D01*
X95434836Y-72872419D02*
X95577693Y-72920038D01*
X95577693Y-72920038D02*
X95625312Y-72967657D01*
X96577693Y-73872419D02*
X96006265Y-73872419D01*
X96291979Y-73872419D02*
X96291979Y-72872419D01*
X96291979Y-72872419D02*
X96196741Y-73015276D01*
X96196741Y-73015276D02*
X96101503Y-73110514D01*
X96101503Y-73110514D02*
X96006265Y-73158133D01*
X101125312Y-91527180D02*
X101077693Y-91574800D01*
X101077693Y-91574800D02*
X100934836Y-91622419D01*
X100934836Y-91622419D02*
X100839598Y-91622419D01*
X100839598Y-91622419D02*
X100696741Y-91574800D01*
X100696741Y-91574800D02*
X100601503Y-91479561D01*
X100601503Y-91479561D02*
X100553884Y-91384323D01*
X100553884Y-91384323D02*
X100506265Y-91193847D01*
X100506265Y-91193847D02*
X100506265Y-91050990D01*
X100506265Y-91050990D02*
X100553884Y-90860514D01*
X100553884Y-90860514D02*
X100601503Y-90765276D01*
X100601503Y-90765276D02*
X100696741Y-90670038D01*
X100696741Y-90670038D02*
X100839598Y-90622419D01*
X100839598Y-90622419D02*
X100934836Y-90622419D01*
X100934836Y-90622419D02*
X101077693Y-90670038D01*
X101077693Y-90670038D02*
X101125312Y-90717657D01*
X102077693Y-91622419D02*
X101506265Y-91622419D01*
X101791979Y-91622419D02*
X101791979Y-90622419D01*
X101791979Y-90622419D02*
X101696741Y-90765276D01*
X101696741Y-90765276D02*
X101601503Y-90860514D01*
X101601503Y-90860514D02*
X101506265Y-90908133D01*
X102458646Y-90717657D02*
X102506265Y-90670038D01*
X102506265Y-90670038D02*
X102601503Y-90622419D01*
X102601503Y-90622419D02*
X102839598Y-90622419D01*
X102839598Y-90622419D02*
X102934836Y-90670038D01*
X102934836Y-90670038D02*
X102982455Y-90717657D01*
X102982455Y-90717657D02*
X103030074Y-90812895D01*
X103030074Y-90812895D02*
X103030074Y-90908133D01*
X103030074Y-90908133D02*
X102982455Y-91050990D01*
X102982455Y-91050990D02*
X102411027Y-91622419D01*
X102411027Y-91622419D02*
X103030074Y-91622419D01*
X112875312Y-67277180D02*
X112827693Y-67324800D01*
X112827693Y-67324800D02*
X112684836Y-67372419D01*
X112684836Y-67372419D02*
X112589598Y-67372419D01*
X112589598Y-67372419D02*
X112446741Y-67324800D01*
X112446741Y-67324800D02*
X112351503Y-67229561D01*
X112351503Y-67229561D02*
X112303884Y-67134323D01*
X112303884Y-67134323D02*
X112256265Y-66943847D01*
X112256265Y-66943847D02*
X112256265Y-66800990D01*
X112256265Y-66800990D02*
X112303884Y-66610514D01*
X112303884Y-66610514D02*
X112351503Y-66515276D01*
X112351503Y-66515276D02*
X112446741Y-66420038D01*
X112446741Y-66420038D02*
X112589598Y-66372419D01*
X112589598Y-66372419D02*
X112684836Y-66372419D01*
X112684836Y-66372419D02*
X112827693Y-66420038D01*
X112827693Y-66420038D02*
X112875312Y-66467657D01*
X113827693Y-67372419D02*
X113256265Y-67372419D01*
X113541979Y-67372419D02*
X113541979Y-66372419D01*
X113541979Y-66372419D02*
X113446741Y-66515276D01*
X113446741Y-66515276D02*
X113351503Y-66610514D01*
X113351503Y-66610514D02*
X113256265Y-66658133D01*
X114208646Y-66467657D02*
X114256265Y-66420038D01*
X114256265Y-66420038D02*
X114351503Y-66372419D01*
X114351503Y-66372419D02*
X114589598Y-66372419D01*
X114589598Y-66372419D02*
X114684836Y-66420038D01*
X114684836Y-66420038D02*
X114732455Y-66467657D01*
X114732455Y-66467657D02*
X114780074Y-66562895D01*
X114780074Y-66562895D02*
X114780074Y-66658133D01*
X114780074Y-66658133D02*
X114732455Y-66800990D01*
X114732455Y-66800990D02*
X114161027Y-67372419D01*
X114161027Y-67372419D02*
X114780074Y-67372419D01*
X109125312Y-71372419D02*
X108791979Y-70896228D01*
X108553884Y-71372419D02*
X108553884Y-70372419D01*
X108553884Y-70372419D02*
X108934836Y-70372419D01*
X108934836Y-70372419D02*
X109030074Y-70420038D01*
X109030074Y-70420038D02*
X109077693Y-70467657D01*
X109077693Y-70467657D02*
X109125312Y-70562895D01*
X109125312Y-70562895D02*
X109125312Y-70705752D01*
X109125312Y-70705752D02*
X109077693Y-70800990D01*
X109077693Y-70800990D02*
X109030074Y-70848609D01*
X109030074Y-70848609D02*
X108934836Y-70896228D01*
X108934836Y-70896228D02*
X108553884Y-70896228D01*
X110077693Y-71372419D02*
X109506265Y-71372419D01*
X109791979Y-71372419D02*
X109791979Y-70372419D01*
X109791979Y-70372419D02*
X109696741Y-70515276D01*
X109696741Y-70515276D02*
X109601503Y-70610514D01*
X109601503Y-70610514D02*
X109506265Y-70658133D01*
G36*
X130021087Y-63129731D02*
G01*
X130128889Y-63136171D01*
X130228093Y-63148765D01*
X130269574Y-63157208D01*
X130372690Y-63188635D01*
X130465884Y-63232847D01*
X130549156Y-63289843D01*
X130564619Y-63302777D01*
X130639419Y-63375409D01*
X130704082Y-63457505D01*
X130758609Y-63549065D01*
X130803000Y-63650090D01*
X130833835Y-63745312D01*
X130857096Y-63846332D01*
X130872784Y-63953148D01*
X130880898Y-64065761D01*
X130882135Y-64132714D01*
X130879564Y-64231489D01*
X130870328Y-64338193D01*
X130854376Y-64438302D01*
X130828401Y-64543042D01*
X130796017Y-64638740D01*
X130754324Y-64733652D01*
X130701519Y-64824169D01*
X130691137Y-64839064D01*
X130625924Y-64919985D01*
X130550316Y-64991835D01*
X130507466Y-65023712D01*
X130419963Y-65072766D01*
X130326884Y-65108601D01*
X130267131Y-65125317D01*
X130165447Y-65145063D01*
X130064392Y-65155901D01*
X129966426Y-65159864D01*
X129943754Y-65160000D01*
X129216887Y-65160000D01*
X129216887Y-64909895D01*
X129483600Y-64909895D01*
X129913468Y-64909895D01*
X130018775Y-64906997D01*
X130119830Y-64896979D01*
X130218932Y-64875512D01*
X130226099Y-64873258D01*
X130316472Y-64835071D01*
X130398233Y-64777460D01*
X130406838Y-64769211D01*
X130472005Y-64689069D01*
X130521362Y-64599674D01*
X130554361Y-64515198D01*
X130580100Y-64420251D01*
X130597415Y-64314562D01*
X130605734Y-64211599D01*
X130607606Y-64128806D01*
X130603948Y-64015972D01*
X130592974Y-63913407D01*
X130570925Y-63806728D01*
X130538918Y-63714027D01*
X130503558Y-63645694D01*
X130441752Y-63559432D01*
X130364739Y-63484251D01*
X130278949Y-63430823D01*
X130251500Y-63419036D01*
X130152856Y-63394032D01*
X130054711Y-63382852D01*
X129950083Y-63378364D01*
X129906629Y-63378004D01*
X129483600Y-63378004D01*
X129483600Y-64909895D01*
X129216887Y-64909895D01*
X129216887Y-63127899D01*
X129910537Y-63127899D01*
X130021087Y-63129731D01*
G37*
G36*
X131910832Y-63666533D02*
G01*
X132009224Y-63688017D01*
X132114464Y-63731183D01*
X132209419Y-63793844D01*
X132282623Y-63863070D01*
X132345707Y-63945279D01*
X132395738Y-64039131D01*
X132432718Y-64144627D01*
X132453565Y-64241434D01*
X132465348Y-64346327D01*
X132468248Y-64436064D01*
X132467271Y-64503475D01*
X131378925Y-64503475D01*
X131392541Y-64603278D01*
X131424063Y-64700741D01*
X131479208Y-64790634D01*
X131514724Y-64828318D01*
X131597223Y-64887823D01*
X131691456Y-64925290D01*
X131797425Y-64940717D01*
X131820027Y-64941158D01*
X131923834Y-64932532D01*
X132021020Y-64903948D01*
X132052058Y-64888890D01*
X132133474Y-64826257D01*
X132193581Y-64743203D01*
X132204466Y-64722316D01*
X132460432Y-64753579D01*
X132423704Y-64851796D01*
X132374092Y-64938349D01*
X132302879Y-65021781D01*
X132236217Y-65076468D01*
X132148931Y-65126691D01*
X132050226Y-65162564D01*
X131954493Y-65182182D01*
X131850018Y-65190814D01*
X131818562Y-65191263D01*
X131703232Y-65184307D01*
X131597209Y-65163442D01*
X131500495Y-65128666D01*
X131413088Y-65079979D01*
X131334990Y-65017383D01*
X131311025Y-64993426D01*
X131247278Y-64913455D01*
X131196720Y-64822288D01*
X131159351Y-64719924D01*
X131135170Y-64606362D01*
X131125095Y-64503174D01*
X131123447Y-64437529D01*
X131128074Y-64326015D01*
X131137824Y-64253370D01*
X131392602Y-64253370D01*
X132207397Y-64253370D01*
X132186491Y-64150742D01*
X132140743Y-64057751D01*
X132114096Y-64026713D01*
X132033343Y-63964889D01*
X131938852Y-63925963D01*
X131842063Y-63910507D01*
X131807327Y-63909476D01*
X131706329Y-63918635D01*
X131607352Y-63949868D01*
X131521074Y-64003265D01*
X131453440Y-64074913D01*
X131407702Y-64170191D01*
X131392602Y-64253370D01*
X131137824Y-64253370D01*
X131141956Y-64222586D01*
X131165092Y-64127243D01*
X131205072Y-64023505D01*
X131258378Y-63931410D01*
X131312979Y-63863558D01*
X131388021Y-63794167D01*
X131470997Y-63739132D01*
X131561907Y-63698454D01*
X131660751Y-63672133D01*
X131767529Y-63660169D01*
X131804884Y-63659371D01*
X131910832Y-63666533D01*
G37*
G36*
X132664131Y-64722316D02*
G01*
X132908862Y-64691053D01*
X132940932Y-64786209D01*
X133006627Y-64864090D01*
X133023656Y-64876678D01*
X133112592Y-64918426D01*
X133216582Y-64938072D01*
X133286950Y-64941158D01*
X133384657Y-64935386D01*
X133486144Y-64910623D01*
X133539497Y-64882051D01*
X133606250Y-64809065D01*
X133622051Y-64743321D01*
X133580835Y-64653379D01*
X133548778Y-64630969D01*
X133452201Y-64596974D01*
X133355591Y-64572855D01*
X133296231Y-64559651D01*
X133200072Y-64533776D01*
X133102733Y-64505326D01*
X133001075Y-64471494D01*
X132919120Y-64437529D01*
X132836948Y-64384649D01*
X132770487Y-64311183D01*
X132759874Y-64294403D01*
X132720955Y-64204579D01*
X132705864Y-64106384D01*
X132705652Y-64092658D01*
X132718198Y-63990015D01*
X132750104Y-63906545D01*
X132806815Y-63823470D01*
X132871737Y-63763907D01*
X132960199Y-63714715D01*
X133029030Y-63690146D01*
X133125565Y-63668057D01*
X133228326Y-63659492D01*
X133242498Y-63659371D01*
X133345814Y-63664190D01*
X133449876Y-63680619D01*
X133543893Y-63708709D01*
X133638181Y-63754203D01*
X133714476Y-63816179D01*
X133735380Y-63841577D01*
X133785061Y-63932445D01*
X133814400Y-64031514D01*
X133820865Y-64065792D01*
X133579064Y-64097055D01*
X133537299Y-64005838D01*
X133483321Y-63959302D01*
X133388311Y-63921933D01*
X133287016Y-63909914D01*
X133260572Y-63909476D01*
X133154910Y-63915075D01*
X133053824Y-63938396D01*
X133017306Y-63956859D01*
X132951629Y-64029399D01*
X132944521Y-64067257D01*
X132974808Y-64140041D01*
X133061647Y-64192506D01*
X133069574Y-64195240D01*
X133164462Y-64219667D01*
X133265836Y-64243411D01*
X133287927Y-64248485D01*
X133395094Y-64278662D01*
X133498966Y-64310116D01*
X133592101Y-64341633D01*
X133653803Y-64366210D01*
X133741473Y-64418381D01*
X133809393Y-64488799D01*
X133816957Y-64499567D01*
X133859382Y-64590879D01*
X133875544Y-64692953D01*
X133876064Y-64716943D01*
X133864132Y-64817717D01*
X133828337Y-64913654D01*
X133803768Y-64956301D01*
X133740845Y-65033421D01*
X133659787Y-65096252D01*
X133595673Y-65130202D01*
X133498040Y-65164966D01*
X133401869Y-65184047D01*
X133298638Y-65191203D01*
X133287927Y-65191263D01*
X133186055Y-65187107D01*
X133079185Y-65171753D01*
X132972848Y-65140352D01*
X132883363Y-65094175D01*
X132854152Y-65073049D01*
X132778885Y-64997512D01*
X132720698Y-64903892D01*
X132683313Y-64805492D01*
X132664131Y-64722316D01*
G37*
G36*
X134163782Y-63378004D02*
G01*
X134163782Y-63127899D01*
X134410956Y-63127899D01*
X134410956Y-63378004D01*
X134163782Y-63378004D01*
G37*
G36*
X134163782Y-65160000D02*
G01*
X134163782Y-63690635D01*
X134410956Y-63690635D01*
X134410956Y-65160000D01*
X134163782Y-65160000D01*
G37*
G36*
X135429222Y-63669843D02*
G01*
X135529233Y-63701259D01*
X135620548Y-63753619D01*
X135703168Y-63826922D01*
X135746475Y-63878213D01*
X135746475Y-63690635D01*
X135974598Y-63690635D01*
X135974598Y-64959232D01*
X135972905Y-65061504D01*
X135966402Y-65171321D01*
X135952651Y-65281644D01*
X135928807Y-65384256D01*
X135905233Y-65444787D01*
X135853961Y-65528373D01*
X135786852Y-65600224D01*
X135703905Y-65660341D01*
X135685415Y-65670956D01*
X135595298Y-65711098D01*
X135494207Y-65738103D01*
X135395136Y-65751079D01*
X135315143Y-65753998D01*
X135205812Y-65748388D01*
X135106065Y-65731558D01*
X135003804Y-65698586D01*
X134914060Y-65650958D01*
X134893579Y-65636762D01*
X134816317Y-65561740D01*
X134765329Y-65468016D01*
X134742065Y-65369007D01*
X134738241Y-65285052D01*
X134978576Y-65316315D01*
X135018494Y-65410196D01*
X135062595Y-65448206D01*
X135155854Y-65486274D01*
X135256330Y-65501936D01*
X135313677Y-65503893D01*
X135413464Y-65497740D01*
X135512932Y-65474109D01*
X135578925Y-65440879D01*
X135653085Y-65370640D01*
X135700626Y-65278076D01*
X135704954Y-65264047D01*
X135718657Y-65165422D01*
X135722664Y-65062344D01*
X135723028Y-64972421D01*
X135648265Y-65045511D01*
X135565883Y-65100648D01*
X135462400Y-65141681D01*
X135363688Y-65158351D01*
X135319050Y-65160000D01*
X135211150Y-65152323D01*
X135112764Y-65129294D01*
X135010005Y-65083022D01*
X134920196Y-65015852D01*
X134853524Y-64941646D01*
X134797579Y-64856707D01*
X134753208Y-64765654D01*
X134720413Y-64668487D01*
X134699193Y-64565207D01*
X134689547Y-64455813D01*
X134688904Y-64417990D01*
X134689685Y-64400893D01*
X134942916Y-64400893D01*
X134948363Y-64510090D01*
X134967925Y-64618114D01*
X135006939Y-64718256D01*
X135056734Y-64788262D01*
X135133804Y-64852404D01*
X135231584Y-64895522D01*
X135332296Y-64909776D01*
X135342986Y-64909895D01*
X135443889Y-64898064D01*
X135542540Y-64857722D01*
X135621003Y-64796204D01*
X135628262Y-64788750D01*
X135689313Y-64699535D01*
X135724926Y-64596156D01*
X135741207Y-64485903D01*
X135744033Y-64408220D01*
X135738330Y-64305902D01*
X135717844Y-64203221D01*
X135676988Y-64105878D01*
X135624842Y-64035505D01*
X135545883Y-63969045D01*
X135457383Y-63927199D01*
X135359343Y-63909968D01*
X135338590Y-63909476D01*
X135240473Y-63921593D01*
X135143564Y-63962911D01*
X135065482Y-64025918D01*
X135058199Y-64033551D01*
X134997406Y-64122528D01*
X134961943Y-64222675D01*
X134945731Y-64327653D01*
X134942916Y-64400893D01*
X134689685Y-64400893D01*
X134693606Y-64315011D01*
X134707711Y-64216123D01*
X134734819Y-64109764D01*
X134764131Y-64030621D01*
X134812091Y-63937017D01*
X134870794Y-63856243D01*
X134948618Y-63781539D01*
X134983461Y-63756092D01*
X135078086Y-63705087D01*
X135171569Y-63675334D01*
X135272934Y-63660883D01*
X135320516Y-63659371D01*
X135429222Y-63669843D01*
G37*
G36*
X136340963Y-65160000D02*
G01*
X136340963Y-63690635D01*
X136563224Y-63690635D01*
X136563224Y-63898241D01*
X136628522Y-63817063D01*
X136703884Y-63752680D01*
X136789310Y-63705093D01*
X136884800Y-63674301D01*
X136990353Y-63660305D01*
X137027773Y-63659371D01*
X137131388Y-63667272D01*
X137227908Y-63690974D01*
X137270062Y-63707243D01*
X137356335Y-63754500D01*
X137428601Y-63822705D01*
X137435659Y-63832295D01*
X137484933Y-63922572D01*
X137512840Y-64015966D01*
X137523512Y-64118512D01*
X137526397Y-64226258D01*
X137526517Y-64257766D01*
X137526517Y-65160000D01*
X137279344Y-65160000D01*
X137279344Y-64291472D01*
X137275291Y-64190974D01*
X137257278Y-64089674D01*
X137250523Y-64070188D01*
X137193341Y-63986850D01*
X137147941Y-63953440D01*
X137051802Y-63916732D01*
X136975505Y-63909476D01*
X136872111Y-63921078D01*
X136778875Y-63955884D01*
X136702930Y-64007662D01*
X136642394Y-64086249D01*
X136607082Y-64186425D01*
X136592172Y-64283628D01*
X136588136Y-64380376D01*
X136588136Y-65160000D01*
X136340963Y-65160000D01*
G37*
G36*
X138603086Y-63666533D02*
G01*
X138701478Y-63688017D01*
X138806718Y-63731183D01*
X138901673Y-63793844D01*
X138974877Y-63863070D01*
X139037961Y-63945279D01*
X139087992Y-64039131D01*
X139124972Y-64144627D01*
X139145819Y-64241434D01*
X139157602Y-64346327D01*
X139160502Y-64436064D01*
X139159525Y-64503475D01*
X138071179Y-64503475D01*
X138084795Y-64603278D01*
X138116317Y-64700741D01*
X138171462Y-64790634D01*
X138206978Y-64828318D01*
X138289477Y-64887823D01*
X138383710Y-64925290D01*
X138489679Y-64940717D01*
X138512281Y-64941158D01*
X138616088Y-64932532D01*
X138713274Y-64903948D01*
X138744312Y-64888890D01*
X138825728Y-64826257D01*
X138885835Y-64743203D01*
X138896720Y-64722316D01*
X139152686Y-64753579D01*
X139115958Y-64851796D01*
X139066346Y-64938349D01*
X138995133Y-65021781D01*
X138928471Y-65076468D01*
X138841185Y-65126691D01*
X138742480Y-65162564D01*
X138646747Y-65182182D01*
X138542272Y-65190814D01*
X138510816Y-65191263D01*
X138395486Y-65184307D01*
X138289463Y-65163442D01*
X138192749Y-65128666D01*
X138105342Y-65079979D01*
X138027244Y-65017383D01*
X138003279Y-64993426D01*
X137939532Y-64913455D01*
X137888974Y-64822288D01*
X137851605Y-64719924D01*
X137827424Y-64606362D01*
X137817349Y-64503174D01*
X137815701Y-64437529D01*
X137820328Y-64326015D01*
X137830078Y-64253370D01*
X138084856Y-64253370D01*
X138899651Y-64253370D01*
X138878745Y-64150742D01*
X138832997Y-64057751D01*
X138806350Y-64026713D01*
X138725597Y-63964889D01*
X138631106Y-63925963D01*
X138534317Y-63910507D01*
X138499581Y-63909476D01*
X138398583Y-63918635D01*
X138299606Y-63949868D01*
X138213328Y-64003265D01*
X138145694Y-64074913D01*
X138099956Y-64170191D01*
X138084856Y-64253370D01*
X137830078Y-64253370D01*
X137834210Y-64222586D01*
X137857346Y-64127243D01*
X137897326Y-64023505D01*
X137950632Y-63931410D01*
X138005233Y-63863558D01*
X138080275Y-63794167D01*
X138163251Y-63739132D01*
X138254161Y-63698454D01*
X138353005Y-63672133D01*
X138459783Y-63660169D01*
X138497138Y-63659371D01*
X138603086Y-63666533D01*
G37*
G36*
X140631332Y-65160000D02*
G01*
X140402233Y-65160000D01*
X140402233Y-64924061D01*
X140345624Y-65014868D01*
X140267989Y-65097064D01*
X140177873Y-65153687D01*
X140075274Y-65184739D01*
X139994347Y-65191263D01*
X139887815Y-65181817D01*
X139786817Y-65153481D01*
X139691352Y-65106255D01*
X139672923Y-65094542D01*
X139595944Y-65034109D01*
X139529320Y-64961621D01*
X139473052Y-64877077D01*
X139446266Y-64824898D01*
X139407540Y-64723297D01*
X139383757Y-64626172D01*
X139369988Y-64522636D01*
X139366154Y-64426782D01*
X139366195Y-64425806D01*
X139620167Y-64425806D01*
X139625824Y-64532832D01*
X139646142Y-64639864D01*
X139686662Y-64740787D01*
X139738381Y-64813175D01*
X139816414Y-64880666D01*
X139911838Y-64926035D01*
X140017306Y-64941158D01*
X140123031Y-64926728D01*
X140217211Y-64883436D01*
X140292812Y-64819036D01*
X140352575Y-64729812D01*
X140387437Y-64627974D01*
X140403374Y-64520324D01*
X140406140Y-64444856D01*
X140402070Y-64346345D01*
X140387034Y-64244480D01*
X140356282Y-64145295D01*
X140304389Y-64055680D01*
X140290369Y-64038925D01*
X140213070Y-63970661D01*
X140125276Y-63927680D01*
X140026988Y-63909982D01*
X140006071Y-63909476D01*
X139908431Y-63921641D01*
X139813148Y-63963121D01*
X139737548Y-64026376D01*
X139730565Y-64034040D01*
X139672347Y-64125612D01*
X139641298Y-64219065D01*
X139625450Y-64315563D01*
X139620167Y-64425806D01*
X139366195Y-64425806D01*
X139370703Y-64319651D01*
X139384351Y-64217588D01*
X139407096Y-64120594D01*
X139438939Y-64028667D01*
X139485637Y-63934707D01*
X139543851Y-63853962D01*
X139622037Y-63779745D01*
X139657292Y-63754626D01*
X139751659Y-63704394D01*
X139852801Y-63672767D01*
X139960716Y-63659744D01*
X139983112Y-63659371D01*
X140085517Y-63670658D01*
X140178409Y-63704518D01*
X140218073Y-63727759D01*
X140295449Y-63789700D01*
X140360087Y-63865184D01*
X140385624Y-63904591D01*
X140385624Y-63127899D01*
X140631332Y-63127899D01*
X140631332Y-65160000D01*
G37*
G36*
X142676500Y-63131715D02*
G01*
X142774808Y-63143164D01*
X142871682Y-63165168D01*
X142936985Y-63188960D01*
X143025818Y-63238396D01*
X143100221Y-63303416D01*
X143155338Y-63376050D01*
X143200392Y-63464416D01*
X143228213Y-63563976D01*
X143234473Y-63640809D01*
X143222863Y-63742693D01*
X143188036Y-63839579D01*
X143164131Y-63882609D01*
X143101643Y-63961492D01*
X143018959Y-64028148D01*
X142952616Y-64065792D01*
X143048697Y-64102671D01*
X143139773Y-64157969D01*
X143214343Y-64228342D01*
X143233496Y-64252393D01*
X143285273Y-64339452D01*
X143317874Y-64435766D01*
X143331298Y-64541334D01*
X143331681Y-64563558D01*
X143323232Y-64669186D01*
X143297884Y-64769180D01*
X143271598Y-64832714D01*
X143222917Y-64917802D01*
X143156052Y-64996929D01*
X143124075Y-65024200D01*
X143038630Y-65076587D01*
X142944051Y-65114180D01*
X142903768Y-65125806D01*
X142805657Y-65145273D01*
X142704144Y-65155959D01*
X142602748Y-65159866D01*
X142578925Y-65160000D01*
X141811025Y-65160000D01*
X141811025Y-64909895D01*
X142077739Y-64909895D01*
X142578925Y-64909895D01*
X142677326Y-64908025D01*
X142760153Y-64900125D01*
X142858938Y-64873233D01*
X142914026Y-64845903D01*
X142988707Y-64776679D01*
X143015631Y-64734528D01*
X143049076Y-64640003D01*
X143055687Y-64566001D01*
X143043022Y-64467569D01*
X143001592Y-64376772D01*
X142998046Y-64371584D01*
X142929169Y-64301364D01*
X142837822Y-64255812D01*
X142739957Y-64233989D01*
X142633849Y-64224214D01*
X142543265Y-64222107D01*
X142077739Y-64222107D01*
X142077739Y-64909895D01*
X141811025Y-64909895D01*
X141811025Y-63972002D01*
X142077739Y-63972002D01*
X142513468Y-63972002D01*
X142614256Y-63969760D01*
X142716184Y-63960142D01*
X142767480Y-63949043D01*
X142861236Y-63906873D01*
X142920376Y-63851346D01*
X142963202Y-63757909D01*
X142971667Y-63679888D01*
X142958019Y-63582321D01*
X142923307Y-63507452D01*
X142851822Y-63435813D01*
X142786043Y-63405847D01*
X142683755Y-63386814D01*
X142580696Y-63379744D01*
X142480251Y-63378004D01*
X142077739Y-63378004D01*
X142077739Y-63972002D01*
X141811025Y-63972002D01*
X141811025Y-63127899D01*
X142566713Y-63127899D01*
X142676500Y-63131715D01*
G37*
G36*
X143645289Y-65722735D02*
G01*
X143617934Y-65481912D01*
X143715527Y-65501296D01*
X143759595Y-65503893D01*
X143856966Y-65490733D01*
X143890997Y-65476050D01*
X143966061Y-65408415D01*
X143972086Y-65399357D01*
X144012653Y-65310018D01*
X144047801Y-65215198D01*
X144069783Y-65154626D01*
X143516329Y-63690635D01*
X143782554Y-63690635D01*
X144086392Y-64519106D01*
X144122141Y-64619294D01*
X144155505Y-64722629D01*
X144183493Y-64818323D01*
X144192393Y-64850788D01*
X144223573Y-64753197D01*
X144255325Y-64659469D01*
X144290320Y-64560970D01*
X144293998Y-64550858D01*
X144605652Y-63690635D01*
X144852826Y-63690635D01*
X144297906Y-65188332D01*
X144260713Y-65286112D01*
X144222901Y-65380344D01*
X144182678Y-65471858D01*
X144159176Y-65518548D01*
X144102371Y-65606652D01*
X144033983Y-65677552D01*
X144007745Y-65696845D01*
X143914445Y-65739710D01*
X143811891Y-65753942D01*
X143804535Y-65753998D01*
X143703777Y-65740534D01*
X143645289Y-65722735D01*
G37*
G36*
X145833217Y-65160000D02*
G01*
X145833217Y-63690635D01*
X146054501Y-63690635D01*
X146054501Y-63932435D01*
X146112478Y-63846912D01*
X146183094Y-63774990D01*
X146237194Y-63734598D01*
X146327022Y-63688757D01*
X146425780Y-63664073D01*
X146496580Y-63659371D01*
X146601150Y-63668434D01*
X146699428Y-63698991D01*
X146762316Y-63736064D01*
X146836697Y-63808137D01*
X146887324Y-63892699D01*
X146908862Y-63950020D01*
X146965465Y-63866289D01*
X147040157Y-63784544D01*
X147122234Y-63723235D01*
X147211696Y-63682362D01*
X147308542Y-63661926D01*
X147359734Y-63659371D01*
X147461919Y-63666943D01*
X147561915Y-63693562D01*
X147654441Y-63745616D01*
X147693370Y-63780516D01*
X147754936Y-63868710D01*
X147790850Y-63969947D01*
X147807268Y-64077322D01*
X147810118Y-64152742D01*
X147810118Y-65160000D01*
X147563921Y-65160000D01*
X147563921Y-64260209D01*
X147559971Y-64155795D01*
X147541458Y-64055674D01*
X147539986Y-64051625D01*
X147481825Y-63969651D01*
X147452547Y-63948555D01*
X147360373Y-63914094D01*
X147304535Y-63909476D01*
X147204924Y-63921309D01*
X147110345Y-63961208D01*
X147049057Y-64009616D01*
X146991210Y-64092719D01*
X146959458Y-64193011D01*
X146948345Y-64290212D01*
X146947452Y-64330551D01*
X146947452Y-65160000D01*
X146699790Y-65160000D01*
X146699790Y-64232365D01*
X146692633Y-64130786D01*
X146665718Y-64035444D01*
X146639218Y-63990076D01*
X146559717Y-63929626D01*
X146458297Y-63909791D01*
X146441381Y-63909476D01*
X146341120Y-63922909D01*
X146248429Y-63963210D01*
X146172103Y-64029399D01*
X146122508Y-64114078D01*
X146119958Y-64120502D01*
X146094339Y-64219719D01*
X146082863Y-64327223D01*
X146080390Y-64418967D01*
X146080390Y-65160000D01*
X145833217Y-65160000D01*
G37*
G36*
X148203838Y-65160000D02*
G01*
X148203838Y-63127899D01*
X148470551Y-63127899D01*
X148470551Y-63940739D01*
X149517376Y-63940739D01*
X149517376Y-63127899D01*
X149784089Y-63127899D01*
X149784089Y-65160000D01*
X149517376Y-65160000D01*
X149517376Y-64190844D01*
X148470551Y-64190844D01*
X148470551Y-65160000D01*
X148203838Y-65160000D01*
G37*
G36*
X151070638Y-63131715D02*
G01*
X151168946Y-63143164D01*
X151265820Y-63165168D01*
X151331123Y-63188960D01*
X151419956Y-63238396D01*
X151494359Y-63303416D01*
X151549476Y-63376050D01*
X151594530Y-63464416D01*
X151622351Y-63563976D01*
X151628611Y-63640809D01*
X151617002Y-63742693D01*
X151582174Y-63839579D01*
X151558269Y-63882609D01*
X151495781Y-63961492D01*
X151413097Y-64028148D01*
X151346755Y-64065792D01*
X151442835Y-64102671D01*
X151533911Y-64157969D01*
X151608481Y-64228342D01*
X151627634Y-64252393D01*
X151679411Y-64339452D01*
X151712012Y-64435766D01*
X151725436Y-64541334D01*
X151725819Y-64563558D01*
X151717370Y-64669186D01*
X151692022Y-64769180D01*
X151665736Y-64832714D01*
X151617055Y-64917802D01*
X151550190Y-64996929D01*
X151518213Y-65024200D01*
X151432768Y-65076587D01*
X151338189Y-65114180D01*
X151297906Y-65125806D01*
X151199795Y-65145273D01*
X151098282Y-65155959D01*
X150996886Y-65159866D01*
X150973063Y-65160000D01*
X150205163Y-65160000D01*
X150205163Y-64909895D01*
X150471877Y-64909895D01*
X150973063Y-64909895D01*
X151071464Y-64908025D01*
X151154291Y-64900125D01*
X151253076Y-64873233D01*
X151308164Y-64845903D01*
X151382845Y-64776679D01*
X151409769Y-64734528D01*
X151443214Y-64640003D01*
X151449825Y-64566001D01*
X151437160Y-64467569D01*
X151395730Y-64376772D01*
X151392184Y-64371584D01*
X151323307Y-64301364D01*
X151231960Y-64255812D01*
X151134095Y-64233989D01*
X151027987Y-64224214D01*
X150937404Y-64222107D01*
X150471877Y-64222107D01*
X150471877Y-64909895D01*
X150205163Y-64909895D01*
X150205163Y-63972002D01*
X150471877Y-63972002D01*
X150907606Y-63972002D01*
X151008394Y-63969760D01*
X151110322Y-63960142D01*
X151161618Y-63949043D01*
X151255374Y-63906873D01*
X151314515Y-63851346D01*
X151357340Y-63757909D01*
X151365806Y-63679888D01*
X151352157Y-63582321D01*
X151317445Y-63507452D01*
X151245960Y-63435813D01*
X151180181Y-63405847D01*
X151077893Y-63386814D01*
X150974834Y-63379744D01*
X150874389Y-63378004D01*
X150471877Y-63378004D01*
X150471877Y-63972002D01*
X150205163Y-63972002D01*
X150205163Y-63127899D01*
X150960851Y-63127899D01*
X151070638Y-63131715D01*
G37*
G36*
X152047732Y-65160000D02*
G01*
X152047732Y-63690635D01*
X152270481Y-63690635D01*
X152270481Y-63908011D01*
X152322364Y-63823174D01*
X152386102Y-63743126D01*
X152427773Y-63707732D01*
X152518619Y-63667353D01*
X152586531Y-63659371D01*
X152688781Y-63672109D01*
X152784311Y-63706479D01*
X152840544Y-63736552D01*
X152755547Y-63965163D01*
X152664811Y-63923398D01*
X152574319Y-63909476D01*
X152474833Y-63930724D01*
X152428262Y-63958813D01*
X152362164Y-64035368D01*
X152336427Y-64095589D01*
X152311125Y-64199179D01*
X152298190Y-64300412D01*
X152294905Y-64387704D01*
X152294905Y-65160000D01*
X152047732Y-65160000D01*
G37*
X102125312Y-110372419D02*
X101791979Y-109896228D01*
X101553884Y-110372419D02*
X101553884Y-109372419D01*
X101553884Y-109372419D02*
X101934836Y-109372419D01*
X101934836Y-109372419D02*
X102030074Y-109420038D01*
X102030074Y-109420038D02*
X102077693Y-109467657D01*
X102077693Y-109467657D02*
X102125312Y-109562895D01*
X102125312Y-109562895D02*
X102125312Y-109705752D01*
X102125312Y-109705752D02*
X102077693Y-109800990D01*
X102077693Y-109800990D02*
X102030074Y-109848609D01*
X102030074Y-109848609D02*
X101934836Y-109896228D01*
X101934836Y-109896228D02*
X101553884Y-109896228D01*
X103077693Y-110372419D02*
X102506265Y-110372419D01*
X102791979Y-110372419D02*
X102791979Y-109372419D01*
X102791979Y-109372419D02*
X102696741Y-109515276D01*
X102696741Y-109515276D02*
X102601503Y-109610514D01*
X102601503Y-109610514D02*
X102506265Y-109658133D01*
X94375312Y-91527180D02*
X94327693Y-91574800D01*
X94327693Y-91574800D02*
X94184836Y-91622419D01*
X94184836Y-91622419D02*
X94089598Y-91622419D01*
X94089598Y-91622419D02*
X93946741Y-91574800D01*
X93946741Y-91574800D02*
X93851503Y-91479561D01*
X93851503Y-91479561D02*
X93803884Y-91384323D01*
X93803884Y-91384323D02*
X93756265Y-91193847D01*
X93756265Y-91193847D02*
X93756265Y-91050990D01*
X93756265Y-91050990D02*
X93803884Y-90860514D01*
X93803884Y-90860514D02*
X93851503Y-90765276D01*
X93851503Y-90765276D02*
X93946741Y-90670038D01*
X93946741Y-90670038D02*
X94089598Y-90622419D01*
X94089598Y-90622419D02*
X94184836Y-90622419D01*
X94184836Y-90622419D02*
X94327693Y-90670038D01*
X94327693Y-90670038D02*
X94375312Y-90717657D01*
X95327693Y-91622419D02*
X94756265Y-91622419D01*
X95041979Y-91622419D02*
X95041979Y-90622419D01*
X95041979Y-90622419D02*
X94946741Y-90765276D01*
X94946741Y-90765276D02*
X94851503Y-90860514D01*
X94851503Y-90860514D02*
X94756265Y-90908133D01*
X95708646Y-90717657D02*
X95756265Y-90670038D01*
X95756265Y-90670038D02*
X95851503Y-90622419D01*
X95851503Y-90622419D02*
X96089598Y-90622419D01*
X96089598Y-90622419D02*
X96184836Y-90670038D01*
X96184836Y-90670038D02*
X96232455Y-90717657D01*
X96232455Y-90717657D02*
X96280074Y-90812895D01*
X96280074Y-90812895D02*
X96280074Y-90908133D01*
X96280074Y-90908133D02*
X96232455Y-91050990D01*
X96232455Y-91050990D02*
X95661027Y-91622419D01*
X95661027Y-91622419D02*
X96280074Y-91622419D01*
X102125312Y-73777180D02*
X102077693Y-73824800D01*
X102077693Y-73824800D02*
X101934836Y-73872419D01*
X101934836Y-73872419D02*
X101839598Y-73872419D01*
X101839598Y-73872419D02*
X101696741Y-73824800D01*
X101696741Y-73824800D02*
X101601503Y-73729561D01*
X101601503Y-73729561D02*
X101553884Y-73634323D01*
X101553884Y-73634323D02*
X101506265Y-73443847D01*
X101506265Y-73443847D02*
X101506265Y-73300990D01*
X101506265Y-73300990D02*
X101553884Y-73110514D01*
X101553884Y-73110514D02*
X101601503Y-73015276D01*
X101601503Y-73015276D02*
X101696741Y-72920038D01*
X101696741Y-72920038D02*
X101839598Y-72872419D01*
X101839598Y-72872419D02*
X101934836Y-72872419D01*
X101934836Y-72872419D02*
X102077693Y-72920038D01*
X102077693Y-72920038D02*
X102125312Y-72967657D01*
X103077693Y-73872419D02*
X102506265Y-73872419D01*
X102791979Y-73872419D02*
X102791979Y-72872419D01*
X102791979Y-72872419D02*
X102696741Y-73015276D01*
X102696741Y-73015276D02*
X102601503Y-73110514D01*
X102601503Y-73110514D02*
X102506265Y-73158133D01*
X101125312Y-128122419D02*
X100791979Y-127646228D01*
X100553884Y-128122419D02*
X100553884Y-127122419D01*
X100553884Y-127122419D02*
X100934836Y-127122419D01*
X100934836Y-127122419D02*
X101030074Y-127170038D01*
X101030074Y-127170038D02*
X101077693Y-127217657D01*
X101077693Y-127217657D02*
X101125312Y-127312895D01*
X101125312Y-127312895D02*
X101125312Y-127455752D01*
X101125312Y-127455752D02*
X101077693Y-127550990D01*
X101077693Y-127550990D02*
X101030074Y-127598609D01*
X101030074Y-127598609D02*
X100934836Y-127646228D01*
X100934836Y-127646228D02*
X100553884Y-127646228D01*
X102077693Y-128122419D02*
X101506265Y-128122419D01*
X101791979Y-128122419D02*
X101791979Y-127122419D01*
X101791979Y-127122419D02*
X101696741Y-127265276D01*
X101696741Y-127265276D02*
X101601503Y-127360514D01*
X101601503Y-127360514D02*
X101506265Y-127408133D01*
X102458646Y-127217657D02*
X102506265Y-127170038D01*
X102506265Y-127170038D02*
X102601503Y-127122419D01*
X102601503Y-127122419D02*
X102839598Y-127122419D01*
X102839598Y-127122419D02*
X102934836Y-127170038D01*
X102934836Y-127170038D02*
X102982455Y-127217657D01*
X102982455Y-127217657D02*
X103030074Y-127312895D01*
X103030074Y-127312895D02*
X103030074Y-127408133D01*
X103030074Y-127408133D02*
X102982455Y-127550990D01*
X102982455Y-127550990D02*
X102411027Y-128122419D01*
X102411027Y-128122419D02*
X103030074Y-128122419D01*
X108375312Y-127872419D02*
X108041979Y-127396228D01*
X107803884Y-127872419D02*
X107803884Y-126872419D01*
X107803884Y-126872419D02*
X108184836Y-126872419D01*
X108184836Y-126872419D02*
X108280074Y-126920038D01*
X108280074Y-126920038D02*
X108327693Y-126967657D01*
X108327693Y-126967657D02*
X108375312Y-127062895D01*
X108375312Y-127062895D02*
X108375312Y-127205752D01*
X108375312Y-127205752D02*
X108327693Y-127300990D01*
X108327693Y-127300990D02*
X108280074Y-127348609D01*
X108280074Y-127348609D02*
X108184836Y-127396228D01*
X108184836Y-127396228D02*
X107803884Y-127396228D01*
X109327693Y-127872419D02*
X108756265Y-127872419D01*
X109041979Y-127872419D02*
X109041979Y-126872419D01*
X109041979Y-126872419D02*
X108946741Y-127015276D01*
X108946741Y-127015276D02*
X108851503Y-127110514D01*
X108851503Y-127110514D02*
X108756265Y-127158133D01*
X109708646Y-126967657D02*
X109756265Y-126920038D01*
X109756265Y-126920038D02*
X109851503Y-126872419D01*
X109851503Y-126872419D02*
X110089598Y-126872419D01*
X110089598Y-126872419D02*
X110184836Y-126920038D01*
X110184836Y-126920038D02*
X110232455Y-126967657D01*
X110232455Y-126967657D02*
X110280074Y-127062895D01*
X110280074Y-127062895D02*
X110280074Y-127158133D01*
X110280074Y-127158133D02*
X110232455Y-127300990D01*
X110232455Y-127300990D02*
X109661027Y-127872419D01*
X109661027Y-127872419D02*
X110280074Y-127872419D01*
X169125312Y-67027180D02*
X169077693Y-67074800D01*
X169077693Y-67074800D02*
X168934836Y-67122419D01*
X168934836Y-67122419D02*
X168839598Y-67122419D01*
X168839598Y-67122419D02*
X168696741Y-67074800D01*
X168696741Y-67074800D02*
X168601503Y-66979561D01*
X168601503Y-66979561D02*
X168553884Y-66884323D01*
X168553884Y-66884323D02*
X168506265Y-66693847D01*
X168506265Y-66693847D02*
X168506265Y-66550990D01*
X168506265Y-66550990D02*
X168553884Y-66360514D01*
X168553884Y-66360514D02*
X168601503Y-66265276D01*
X168601503Y-66265276D02*
X168696741Y-66170038D01*
X168696741Y-66170038D02*
X168839598Y-66122419D01*
X168839598Y-66122419D02*
X168934836Y-66122419D01*
X168934836Y-66122419D02*
X169077693Y-66170038D01*
X169077693Y-66170038D02*
X169125312Y-66217657D01*
X170077693Y-67122419D02*
X169506265Y-67122419D01*
X169791979Y-67122419D02*
X169791979Y-66122419D01*
X169791979Y-66122419D02*
X169696741Y-66265276D01*
X169696741Y-66265276D02*
X169601503Y-66360514D01*
X169601503Y-66360514D02*
X169506265Y-66408133D01*
D11*
X104916666Y-129524819D02*
X104916666Y-130239104D01*
X104916666Y-130239104D02*
X104869047Y-130381961D01*
X104869047Y-130381961D02*
X104773809Y-130477200D01*
X104773809Y-130477200D02*
X104630952Y-130524819D01*
X104630952Y-130524819D02*
X104535714Y-130524819D01*
X105916666Y-130524819D02*
X105345238Y-130524819D01*
X105630952Y-130524819D02*
X105630952Y-129524819D01*
X105630952Y-129524819D02*
X105535714Y-129667676D01*
X105535714Y-129667676D02*
X105440476Y-129762914D01*
X105440476Y-129762914D02*
X105345238Y-129810533D01*
X104607142Y-107132438D02*
X104511904Y-107084819D01*
X104511904Y-107084819D02*
X104369047Y-107084819D01*
X104369047Y-107084819D02*
X104226190Y-107132438D01*
X104226190Y-107132438D02*
X104130952Y-107227676D01*
X104130952Y-107227676D02*
X104083333Y-107322914D01*
X104083333Y-107322914D02*
X104035714Y-107513390D01*
X104035714Y-107513390D02*
X104035714Y-107656247D01*
X104035714Y-107656247D02*
X104083333Y-107846723D01*
X104083333Y-107846723D02*
X104130952Y-107941961D01*
X104130952Y-107941961D02*
X104226190Y-108037200D01*
X104226190Y-108037200D02*
X104369047Y-108084819D01*
X104369047Y-108084819D02*
X104464285Y-108084819D01*
X104464285Y-108084819D02*
X104607142Y-108037200D01*
X104607142Y-108037200D02*
X104654761Y-107989580D01*
X104654761Y-107989580D02*
X104654761Y-107656247D01*
X104654761Y-107656247D02*
X104464285Y-107656247D01*
X105083333Y-107418152D02*
X105083333Y-108084819D01*
X105083333Y-107513390D02*
X105130952Y-107465771D01*
X105130952Y-107465771D02*
X105226190Y-107418152D01*
X105226190Y-107418152D02*
X105369047Y-107418152D01*
X105369047Y-107418152D02*
X105464285Y-107465771D01*
X105464285Y-107465771D02*
X105511904Y-107561009D01*
X105511904Y-107561009D02*
X105511904Y-108084819D01*
X106416666Y-108084819D02*
X106416666Y-107084819D01*
X106416666Y-108037200D02*
X106321428Y-108084819D01*
X106321428Y-108084819D02*
X106130952Y-108084819D01*
X106130952Y-108084819D02*
X106035714Y-108037200D01*
X106035714Y-108037200D02*
X105988095Y-107989580D01*
X105988095Y-107989580D02*
X105940476Y-107894342D01*
X105940476Y-107894342D02*
X105940476Y-107608628D01*
X105940476Y-107608628D02*
X105988095Y-107513390D01*
X105988095Y-107513390D02*
X106035714Y-107465771D01*
X106035714Y-107465771D02*
X106130952Y-107418152D01*
X106130952Y-107418152D02*
X106321428Y-107418152D01*
X106321428Y-107418152D02*
X106416666Y-107465771D01*
X98166666Y-92824819D02*
X98166666Y-93539104D01*
X98166666Y-93539104D02*
X98119047Y-93681961D01*
X98119047Y-93681961D02*
X98023809Y-93777200D01*
X98023809Y-93777200D02*
X97880952Y-93824819D01*
X97880952Y-93824819D02*
X97785714Y-93824819D01*
X98547619Y-92824819D02*
X99166666Y-92824819D01*
X99166666Y-92824819D02*
X98833333Y-93205771D01*
X98833333Y-93205771D02*
X98976190Y-93205771D01*
X98976190Y-93205771D02*
X99071428Y-93253390D01*
X99071428Y-93253390D02*
X99119047Y-93301009D01*
X99119047Y-93301009D02*
X99166666Y-93396247D01*
X99166666Y-93396247D02*
X99166666Y-93634342D01*
X99166666Y-93634342D02*
X99119047Y-93729580D01*
X99119047Y-93729580D02*
X99071428Y-93777200D01*
X99071428Y-93777200D02*
X98976190Y-93824819D01*
X98976190Y-93824819D02*
X98690476Y-93824819D01*
X98690476Y-93824819D02*
X98595238Y-93777200D01*
X98595238Y-93777200D02*
X98547619Y-93729580D01*
X97142856Y-70432438D02*
X97047618Y-70384819D01*
X97047618Y-70384819D02*
X96904761Y-70384819D01*
X96904761Y-70384819D02*
X96761904Y-70432438D01*
X96761904Y-70432438D02*
X96666666Y-70527676D01*
X96666666Y-70527676D02*
X96619047Y-70622914D01*
X96619047Y-70622914D02*
X96571428Y-70813390D01*
X96571428Y-70813390D02*
X96571428Y-70956247D01*
X96571428Y-70956247D02*
X96619047Y-71146723D01*
X96619047Y-71146723D02*
X96666666Y-71241961D01*
X96666666Y-71241961D02*
X96761904Y-71337200D01*
X96761904Y-71337200D02*
X96904761Y-71384819D01*
X96904761Y-71384819D02*
X96999999Y-71384819D01*
X96999999Y-71384819D02*
X97142856Y-71337200D01*
X97142856Y-71337200D02*
X97190475Y-71289580D01*
X97190475Y-71289580D02*
X97190475Y-70956247D01*
X97190475Y-70956247D02*
X96999999Y-70956247D01*
X97619047Y-71384819D02*
X97619047Y-70718152D01*
X97619047Y-70908628D02*
X97666666Y-70813390D01*
X97666666Y-70813390D02*
X97714285Y-70765771D01*
X97714285Y-70765771D02*
X97809523Y-70718152D01*
X97809523Y-70718152D02*
X97904761Y-70718152D01*
X98619047Y-71337200D02*
X98523809Y-71384819D01*
X98523809Y-71384819D02*
X98333333Y-71384819D01*
X98333333Y-71384819D02*
X98238095Y-71337200D01*
X98238095Y-71337200D02*
X98190476Y-71241961D01*
X98190476Y-71241961D02*
X98190476Y-70861009D01*
X98190476Y-70861009D02*
X98238095Y-70765771D01*
X98238095Y-70765771D02*
X98333333Y-70718152D01*
X98333333Y-70718152D02*
X98523809Y-70718152D01*
X98523809Y-70718152D02*
X98619047Y-70765771D01*
X98619047Y-70765771D02*
X98666666Y-70861009D01*
X98666666Y-70861009D02*
X98666666Y-70956247D01*
X98666666Y-70956247D02*
X98190476Y-71051485D01*
X99476190Y-71337200D02*
X99380952Y-71384819D01*
X99380952Y-71384819D02*
X99190476Y-71384819D01*
X99190476Y-71384819D02*
X99095238Y-71337200D01*
X99095238Y-71337200D02*
X99047619Y-71241961D01*
X99047619Y-71241961D02*
X99047619Y-70861009D01*
X99047619Y-70861009D02*
X99095238Y-70765771D01*
X99095238Y-70765771D02*
X99190476Y-70718152D01*
X99190476Y-70718152D02*
X99380952Y-70718152D01*
X99380952Y-70718152D02*
X99476190Y-70765771D01*
X99476190Y-70765771D02*
X99523809Y-70861009D01*
X99523809Y-70861009D02*
X99523809Y-70956247D01*
X99523809Y-70956247D02*
X99047619Y-71051485D01*
X99952381Y-70718152D02*
X99952381Y-71384819D01*
X99952381Y-70813390D02*
X100000000Y-70765771D01*
X100000000Y-70765771D02*
X100095238Y-70718152D01*
X100095238Y-70718152D02*
X100238095Y-70718152D01*
X100238095Y-70718152D02*
X100333333Y-70765771D01*
X100333333Y-70765771D02*
X100380952Y-70861009D01*
X100380952Y-70861009D02*
X100380952Y-71384819D01*
X104666666Y-92984819D02*
X104666666Y-93699104D01*
X104666666Y-93699104D02*
X104619047Y-93841961D01*
X104619047Y-93841961D02*
X104523809Y-93937200D01*
X104523809Y-93937200D02*
X104380952Y-93984819D01*
X104380952Y-93984819D02*
X104285714Y-93984819D01*
X105095238Y-93080057D02*
X105142857Y-93032438D01*
X105142857Y-93032438D02*
X105238095Y-92984819D01*
X105238095Y-92984819D02*
X105476190Y-92984819D01*
X105476190Y-92984819D02*
X105571428Y-93032438D01*
X105571428Y-93032438D02*
X105619047Y-93080057D01*
X105619047Y-93080057D02*
X105666666Y-93175295D01*
X105666666Y-93175295D02*
X105666666Y-93270533D01*
X105666666Y-93270533D02*
X105619047Y-93413390D01*
X105619047Y-93413390D02*
X105047619Y-93984819D01*
X105047619Y-93984819D02*
X105666666Y-93984819D01*
X104428571Y-71544819D02*
X104095238Y-71068628D01*
X103857143Y-71544819D02*
X103857143Y-70544819D01*
X103857143Y-70544819D02*
X104238095Y-70544819D01*
X104238095Y-70544819D02*
X104333333Y-70592438D01*
X104333333Y-70592438D02*
X104380952Y-70640057D01*
X104380952Y-70640057D02*
X104428571Y-70735295D01*
X104428571Y-70735295D02*
X104428571Y-70878152D01*
X104428571Y-70878152D02*
X104380952Y-70973390D01*
X104380952Y-70973390D02*
X104333333Y-71021009D01*
X104333333Y-71021009D02*
X104238095Y-71068628D01*
X104238095Y-71068628D02*
X103857143Y-71068628D01*
X105238095Y-71497200D02*
X105142857Y-71544819D01*
X105142857Y-71544819D02*
X104952381Y-71544819D01*
X104952381Y-71544819D02*
X104857143Y-71497200D01*
X104857143Y-71497200D02*
X104809524Y-71401961D01*
X104809524Y-71401961D02*
X104809524Y-71021009D01*
X104809524Y-71021009D02*
X104857143Y-70925771D01*
X104857143Y-70925771D02*
X104952381Y-70878152D01*
X104952381Y-70878152D02*
X105142857Y-70878152D01*
X105142857Y-70878152D02*
X105238095Y-70925771D01*
X105238095Y-70925771D02*
X105285714Y-71021009D01*
X105285714Y-71021009D02*
X105285714Y-71116247D01*
X105285714Y-71116247D02*
X104809524Y-71211485D01*
X106142857Y-71544819D02*
X106142857Y-70544819D01*
X106142857Y-71497200D02*
X106047619Y-71544819D01*
X106047619Y-71544819D02*
X105857143Y-71544819D01*
X105857143Y-71544819D02*
X105761905Y-71497200D01*
X105761905Y-71497200D02*
X105714286Y-71449580D01*
X105714286Y-71449580D02*
X105666667Y-71354342D01*
X105666667Y-71354342D02*
X105666667Y-71068628D01*
X105666667Y-71068628D02*
X105714286Y-70973390D01*
X105714286Y-70973390D02*
X105761905Y-70925771D01*
X105761905Y-70925771D02*
X105857143Y-70878152D01*
X105857143Y-70878152D02*
X106047619Y-70878152D01*
X106047619Y-70878152D02*
X106142857Y-70925771D01*
D10*
X112488095Y-72207419D02*
X112488095Y-73016942D01*
X112488095Y-73016942D02*
X112535714Y-73112180D01*
X112535714Y-73112180D02*
X112583333Y-73159800D01*
X112583333Y-73159800D02*
X112678571Y-73207419D01*
X112678571Y-73207419D02*
X112869047Y-73207419D01*
X112869047Y-73207419D02*
X112964285Y-73159800D01*
X112964285Y-73159800D02*
X113011904Y-73112180D01*
X113011904Y-73112180D02*
X113059523Y-73016942D01*
X113059523Y-73016942D02*
X113059523Y-72207419D01*
X114059523Y-73207419D02*
X113488095Y-73207419D01*
X113773809Y-73207419D02*
X113773809Y-72207419D01*
X113773809Y-72207419D02*
X113678571Y-72350276D01*
X113678571Y-72350276D02*
X113583333Y-72445514D01*
X113583333Y-72445514D02*
X113488095Y-72493133D01*
X155577693Y-78622419D02*
X155006265Y-78622419D01*
X155291979Y-78622419D02*
X155291979Y-77622419D01*
X155291979Y-77622419D02*
X155196741Y-77765276D01*
X155196741Y-77765276D02*
X155101503Y-77860514D01*
X155101503Y-77860514D02*
X155006265Y-77908133D01*
X126256265Y-119467657D02*
X126303884Y-119420038D01*
X126303884Y-119420038D02*
X126399122Y-119372419D01*
X126399122Y-119372419D02*
X126637217Y-119372419D01*
X126637217Y-119372419D02*
X126732455Y-119420038D01*
X126732455Y-119420038D02*
X126780074Y-119467657D01*
X126780074Y-119467657D02*
X126827693Y-119562895D01*
X126827693Y-119562895D02*
X126827693Y-119658133D01*
X126827693Y-119658133D02*
X126780074Y-119800990D01*
X126780074Y-119800990D02*
X126208646Y-120372419D01*
X126208646Y-120372419D02*
X126827693Y-120372419D01*
X127684836Y-119705752D02*
X127684836Y-120372419D01*
X127446741Y-119324800D02*
X127208646Y-120039085D01*
X127208646Y-120039085D02*
X127827693Y-120039085D01*
X126827693Y-78872419D02*
X126256265Y-78872419D01*
X126541979Y-78872419D02*
X126541979Y-77872419D01*
X126541979Y-77872419D02*
X126446741Y-78015276D01*
X126446741Y-78015276D02*
X126351503Y-78110514D01*
X126351503Y-78110514D02*
X126256265Y-78158133D01*
X127208646Y-77967657D02*
X127256265Y-77920038D01*
X127256265Y-77920038D02*
X127351503Y-77872419D01*
X127351503Y-77872419D02*
X127589598Y-77872419D01*
X127589598Y-77872419D02*
X127684836Y-77920038D01*
X127684836Y-77920038D02*
X127732455Y-77967657D01*
X127732455Y-77967657D02*
X127780074Y-78062895D01*
X127780074Y-78062895D02*
X127780074Y-78158133D01*
X127780074Y-78158133D02*
X127732455Y-78300990D01*
X127732455Y-78300990D02*
X127161027Y-78872419D01*
X127161027Y-78872419D02*
X127780074Y-78872419D01*
X154827693Y-120372419D02*
X154256265Y-120372419D01*
X154541979Y-120372419D02*
X154541979Y-119372419D01*
X154541979Y-119372419D02*
X154446741Y-119515276D01*
X154446741Y-119515276D02*
X154351503Y-119610514D01*
X154351503Y-119610514D02*
X154256265Y-119658133D01*
X155161027Y-119372419D02*
X155780074Y-119372419D01*
X155780074Y-119372419D02*
X155446741Y-119753371D01*
X155446741Y-119753371D02*
X155589598Y-119753371D01*
X155589598Y-119753371D02*
X155684836Y-119800990D01*
X155684836Y-119800990D02*
X155732455Y-119848609D01*
X155732455Y-119848609D02*
X155780074Y-119943847D01*
X155780074Y-119943847D02*
X155780074Y-120181942D01*
X155780074Y-120181942D02*
X155732455Y-120277180D01*
X155732455Y-120277180D02*
X155684836Y-120324800D01*
X155684836Y-120324800D02*
X155589598Y-120372419D01*
X155589598Y-120372419D02*
X155303884Y-120372419D01*
X155303884Y-120372419D02*
X155208646Y-120324800D01*
X155208646Y-120324800D02*
X155161027Y-120277180D01*
D12*
%TO.C,J1*%
X103920000Y-126470000D02*
X103920000Y-108630000D01*
X106580000Y-108630000D02*
X103920000Y-108630000D01*
X106580000Y-126470000D02*
X103920000Y-126470000D01*
X106580000Y-126470000D02*
X106580000Y-108630000D01*
X106580000Y-127740000D02*
X106580000Y-129070000D01*
X106580000Y-129070000D02*
X105250000Y-129070000D01*
%TO.C,J3*%
X97170000Y-89770000D02*
X97170000Y-71930000D01*
X99830000Y-71930000D02*
X97170000Y-71930000D01*
X99830000Y-89770000D02*
X97170000Y-89770000D01*
X99830000Y-89770000D02*
X99830000Y-71930000D01*
X99830000Y-91040000D02*
X99830000Y-92370000D01*
X99830000Y-92370000D02*
X98500000Y-92370000D01*
%TO.C,J2*%
X103670000Y-89930000D02*
X103670000Y-72090000D01*
X106330000Y-72090000D02*
X103670000Y-72090000D01*
X106330000Y-89930000D02*
X103670000Y-89930000D01*
X106330000Y-89930000D02*
X106330000Y-72090000D01*
X106330000Y-91200000D02*
X106330000Y-92530000D01*
X106330000Y-92530000D02*
X105000000Y-92530000D01*
%TO.C,U1*%
G36*
X110600000Y-78700000D02*
G01*
X111300000Y-78700000D01*
X111300000Y-88700000D01*
X110600000Y-88700000D01*
X110600000Y-78700000D01*
G37*
G36*
X110600000Y-108800000D02*
G01*
X111300000Y-108800000D01*
X111300000Y-118800000D01*
X110600000Y-118800000D01*
X110600000Y-108800000D01*
G37*
G36*
X111300000Y-68700000D02*
G01*
X121300000Y-68700000D01*
X121300000Y-69400000D01*
X111300000Y-69400000D01*
X111300000Y-68700000D01*
G37*
G36*
X111300000Y-69400000D02*
G01*
X112000000Y-69400000D01*
X112000000Y-128800000D01*
X111300000Y-128800000D01*
X111300000Y-69400000D01*
G37*
G36*
X112000000Y-69400000D02*
G01*
X170000000Y-69400000D01*
X170000000Y-70100000D01*
X112000000Y-70100000D01*
X112000000Y-69400000D01*
G37*
D10*
X112000000Y-128100000D02*
X170000000Y-128100000D01*
X170000000Y-70100000D01*
X112000000Y-70100000D01*
X112000000Y-128100000D01*
G36*
X112000000Y-128100000D02*
G01*
X170000000Y-128100000D01*
X170000000Y-128800000D01*
X112000000Y-128800000D01*
X112000000Y-128100000D01*
G37*
G36*
X122000000Y-128800000D02*
G01*
X132000000Y-128800000D01*
X132000000Y-129500000D01*
X122000000Y-129500000D01*
X122000000Y-128800000D01*
G37*
G36*
X131300000Y-68700000D02*
G01*
X150700000Y-68700000D01*
X150700000Y-69400000D01*
X131300000Y-69400000D01*
X131300000Y-68700000D01*
G37*
G36*
X151000000Y-128800000D02*
G01*
X161000000Y-128800000D01*
X161000000Y-129500000D01*
X151000000Y-129500000D01*
X151000000Y-128800000D01*
G37*
G36*
X160700000Y-68700000D02*
G01*
X170700000Y-68700000D01*
X170700000Y-69400000D01*
X160700000Y-69400000D01*
X160700000Y-68700000D01*
G37*
G36*
X170000000Y-69400000D02*
G01*
X170700000Y-69400000D01*
X170700000Y-128800000D01*
X170000000Y-128800000D01*
X170000000Y-69400000D01*
G37*
G36*
X170700000Y-68700000D02*
G01*
X171400000Y-68700000D01*
X171400000Y-79400000D01*
X170700000Y-79400000D01*
X170700000Y-68700000D01*
G37*
G36*
X170700000Y-89400000D02*
G01*
X171400000Y-89400000D01*
X171400000Y-108800000D01*
X170700000Y-108800000D01*
X170700000Y-89400000D01*
G37*
G36*
X170700000Y-118100000D02*
G01*
X171400000Y-118100000D01*
X171400000Y-128800000D01*
X170700000Y-128800000D01*
X170700000Y-118100000D01*
G37*
%TD*%
M02*
