%TF.GenerationSoftware,KiCad,Pcbnew,8.0.6*%
%TF.CreationDate,2024-11-25T15:37:34+03:30*%
%TF.ProjectId,AlarmClock,416c6172-6d43-46c6-9f63-6b2e6b696361,rev?*%
%TF.SameCoordinates,Original*%
%TF.FileFunction,Copper,L1,Top*%
%TF.FilePolarity,Positive*%
%FSLAX46Y46*%
G04 Gerber Fmt 4.6, Leading zero omitted, Abs format (unit mm)*
G04 Created by KiCad (PCBNEW 8.0.6) date 2024-11-25 15:37:34*
%MOMM*%
%LPD*%
G01*
G04 APERTURE LIST*
G04 Aperture macros list*
%AMRoundRect*
0 Rectangle with rounded corners*
0 $1 Rounding radius*
0 $2 $3 $4 $5 $6 $7 $8 $9 X,Y pos of 4 corners*
0 Add a 4 corners polygon primitive as box body*
4,1,4,$2,$3,$4,$5,$6,$7,$8,$9,$2,$3,0*
0 Add four circle primitives for the rounded corners*
1,1,$1+$1,$2,$3*
1,1,$1+$1,$4,$5*
1,1,$1+$1,$6,$7*
1,1,$1+$1,$8,$9*
0 Add four rect primitives between the rounded corners*
20,1,$1+$1,$2,$3,$4,$5,0*
20,1,$1+$1,$4,$5,$6,$7,0*
20,1,$1+$1,$6,$7,$8,$9,0*
20,1,$1+$1,$8,$9,$2,$3,0*%
G04 Aperture macros list end*
%TA.AperFunction,ComponentPad*%
%ADD10R,1.700000X1.700000*%
%TD*%
%TA.AperFunction,ComponentPad*%
%ADD11O,1.700000X1.700000*%
%TD*%
%TA.AperFunction,ComponentPad*%
%ADD12R,4.600000X2.000000*%
%TD*%
%TA.AperFunction,ComponentPad*%
%ADD13O,4.200000X2.000000*%
%TD*%
%TA.AperFunction,ComponentPad*%
%ADD14O,2.000000X4.200000*%
%TD*%
%TA.AperFunction,SMDPad,CuDef*%
%ADD15RoundRect,0.225000X-0.250000X0.225000X-0.250000X-0.225000X0.250000X-0.225000X0.250000X0.225000X0*%
%TD*%
%TA.AperFunction,SMDPad,CuDef*%
%ADD16RoundRect,0.200000X-0.275000X0.200000X-0.275000X-0.200000X0.275000X-0.200000X0.275000X0.200000X0*%
%TD*%
%TA.AperFunction,ComponentPad*%
%ADD17R,1.600000X1.600000*%
%TD*%
%TA.AperFunction,ComponentPad*%
%ADD18O,1.600000X1.600000*%
%TD*%
%TA.AperFunction,ComponentPad*%
%ADD19RoundRect,0.250000X-0.620000X-0.845000X0.620000X-0.845000X0.620000X0.845000X-0.620000X0.845000X0*%
%TD*%
%TA.AperFunction,ComponentPad*%
%ADD20O,1.740000X2.190000*%
%TD*%
%TA.AperFunction,SMDPad,CuDef*%
%ADD21RoundRect,0.200000X0.200000X0.275000X-0.200000X0.275000X-0.200000X-0.275000X0.200000X-0.275000X0*%
%TD*%
%TA.AperFunction,ComponentPad*%
%ADD22R,1.500000X1.500000*%
%TD*%
%TA.AperFunction,ComponentPad*%
%ADD23C,1.500000*%
%TD*%
%TA.AperFunction,ComponentPad*%
%ADD24RoundRect,0.250000X0.650000X1.550000X-0.650000X1.550000X-0.650000X-1.550000X0.650000X-1.550000X0*%
%TD*%
%TA.AperFunction,ComponentPad*%
%ADD25O,1.800000X3.600000*%
%TD*%
%TA.AperFunction,SMDPad,CuDef*%
%ADD26RoundRect,0.225000X0.250000X-0.225000X0.250000X0.225000X-0.250000X0.225000X-0.250000X-0.225000X0*%
%TD*%
%TA.AperFunction,SMDPad,CuDef*%
%ADD27RoundRect,0.218750X-0.256250X0.218750X-0.256250X-0.218750X0.256250X-0.218750X0.256250X0.218750X0*%
%TD*%
%TA.AperFunction,ComponentPad*%
%ADD28C,1.000000*%
%TD*%
%TA.AperFunction,SMDPad,CuDef*%
%ADD29RoundRect,0.243750X0.243750X0.456250X-0.243750X0.456250X-0.243750X-0.456250X0.243750X-0.456250X0*%
%TD*%
%TA.AperFunction,SMDPad,CuDef*%
%ADD30R,1.600000X0.550000*%
%TD*%
%TA.AperFunction,SMDPad,CuDef*%
%ADD31R,0.550000X1.600000*%
%TD*%
%TA.AperFunction,ComponentPad*%
%ADD32R,2.000000X1.905000*%
%TD*%
%TA.AperFunction,ComponentPad*%
%ADD33O,2.000000X1.905000*%
%TD*%
%TA.AperFunction,ViaPad*%
%ADD34C,0.600000*%
%TD*%
%TA.AperFunction,ViaPad*%
%ADD35C,1.000000*%
%TD*%
%TA.AperFunction,Conductor*%
%ADD36C,0.500000*%
%TD*%
%TA.AperFunction,Conductor*%
%ADD37C,0.400000*%
%TD*%
G04 APERTURE END LIST*
D10*
%TO.P,J3,1,Pin_1*%
%TO.N,/MISO*%
X135000000Y-104475000D03*
D11*
%TO.P,J3,2,Pin_2*%
%TO.N,+5C*%
X137540000Y-104475000D03*
%TO.P,J3,3,Pin_3*%
%TO.N,/SCK*%
X135000000Y-107015000D03*
%TO.P,J3,4,Pin_4*%
%TO.N,/MOSI*%
X137540000Y-107015000D03*
%TO.P,J3,5,Pin_5*%
%TO.N,Net-(J3-Pin_5)*%
X135000000Y-109555000D03*
%TO.P,J3,6,Pin_6*%
%TO.N,GND*%
X137540000Y-109555000D03*
%TD*%
D12*
%TO.P,J1,1*%
%TO.N,Net-(D2-A)*%
X93750000Y-109200000D03*
D13*
%TO.P,J1,2*%
%TO.N,GND*%
X93750000Y-115500000D03*
D14*
%TO.P,J1,3*%
X98550000Y-112100000D03*
%TD*%
D15*
%TO.P,C5,1*%
%TO.N,/MOSI*%
X133000000Y-113725000D03*
%TO.P,C5,2*%
%TO.N,GND*%
X133000000Y-115275000D03*
%TD*%
D16*
%TO.P,R7,1*%
%TO.N,Net-(D3-A)*%
X109250000Y-109100000D03*
%TO.P,R7,2*%
%TO.N,+12C*%
X109250000Y-110750000D03*
%TD*%
D17*
%TO.P,D2,1,K*%
%TO.N,+12C*%
X97560000Y-106000000D03*
D18*
%TO.P,D2,2,A*%
%TO.N,Net-(D2-A)*%
X89940000Y-106000000D03*
%TD*%
D19*
%TO.P,SW1,1,1*%
%TO.N,+5C*%
X117960000Y-120000000D03*
D20*
%TO.P,SW1,2,2*%
%TO.N,Net-(R1-Pad1)*%
X120500000Y-120000000D03*
%TD*%
D21*
%TO.P,R2,2*%
%TO.N,GND*%
X119060000Y-115350000D03*
%TO.P,R2,1*%
%TO.N,Net-(R1-Pad1)*%
X120710000Y-115350000D03*
%TD*%
%TO.P,R4,2*%
%TO.N,Net-(U1-PB2)*%
X126800000Y-113725000D03*
%TO.P,R4,1*%
%TO.N,Net-(R3-Pad1)*%
X128450000Y-113725000D03*
%TD*%
D22*
%TO.P,U5,1,e*%
%TO.N,Net-(U5-e)*%
X108050000Y-98250000D03*
D23*
%TO.P,U5,2,d*%
%TO.N,Net-(U5-d)*%
X110590000Y-98250000D03*
%TO.P,U5,3,DPX*%
%TO.N,Net-(U5-DPX)*%
X113130000Y-98250000D03*
%TO.P,U5,4,c*%
%TO.N,Net-(U5-c)*%
X115670000Y-98250000D03*
%TO.P,U5,5,g*%
%TO.N,Net-(U5-g)*%
X118210000Y-98250000D03*
%TO.P,U5,6,CC4*%
%TO.N,Net-(U1-PC3)*%
X120750000Y-98250000D03*
%TO.P,U5,7,b*%
%TO.N,Net-(U5-b)*%
X120750000Y-83010000D03*
%TO.P,U5,8,CC3*%
%TO.N,Net-(U1-PC2)*%
X118210000Y-83010000D03*
%TO.P,U5,9,CC2*%
%TO.N,Net-(U1-PC1)*%
X115670000Y-83010000D03*
%TO.P,U5,10,f*%
%TO.N,Net-(U5-f)*%
X113130000Y-83010000D03*
%TO.P,U5,11,a*%
%TO.N,Net-(U5-a)*%
X110590000Y-83010000D03*
%TO.P,U5,12,CC1*%
%TO.N,Net-(U1-PC0)*%
X108050000Y-83010000D03*
%TD*%
D24*
%TO.P,J2,1,Pin_1*%
%TO.N,Net-(J2-Pin_1)*%
X110500000Y-118500000D03*
D25*
%TO.P,J2,2,Pin_2*%
%TO.N,GND*%
X105420000Y-118500000D03*
%TD*%
D21*
%TO.P,R1,2*%
%TO.N,Net-(U1-PB1)*%
X119060000Y-113725000D03*
%TO.P,R1,1*%
%TO.N,Net-(R1-Pad1)*%
X120710000Y-113725000D03*
%TD*%
D15*
%TO.P,C3,2*%
%TO.N,GND*%
X117460000Y-115275000D03*
%TO.P,C3,1*%
%TO.N,Net-(U1-PB1)*%
X117460000Y-113725000D03*
%TD*%
D26*
%TO.P,C1,1*%
%TO.N,+12C*%
X107250000Y-110730000D03*
%TO.P,C1,2*%
%TO.N,GND*%
X107250000Y-109180000D03*
%TD*%
D21*
%TO.P,R5,1*%
%TO.N,Net-(R5-Pad1)*%
X136150000Y-115300000D03*
%TO.P,R5,2*%
%TO.N,GND*%
X134500000Y-115300000D03*
%TD*%
%TO.P,R9,1*%
%TO.N,Net-(J2-Pin_1)*%
X114325000Y-113750000D03*
%TO.P,R9,2*%
%TO.N,Net-(D1-A)*%
X112675000Y-113750000D03*
%TD*%
%TO.P,R3,2*%
%TO.N,GND*%
X126800000Y-115305000D03*
%TO.P,R3,1*%
%TO.N,Net-(R3-Pad1)*%
X128450000Y-115305000D03*
%TD*%
D15*
%TO.P,C2,1*%
%TO.N,+5C*%
X107250000Y-105760000D03*
%TO.P,C2,2*%
%TO.N,GND*%
X107250000Y-107310000D03*
%TD*%
D27*
%TO.P,D3,1,K*%
%TO.N,GND*%
X109250000Y-105712500D03*
%TO.P,D3,2,A*%
%TO.N,Net-(D3-A)*%
X109250000Y-107287500D03*
%TD*%
D15*
%TO.P,C4,2*%
%TO.N,GND*%
X125300000Y-115275000D03*
%TO.P,C4,1*%
%TO.N,Net-(U1-PB2)*%
X125300000Y-113725000D03*
%TD*%
D19*
%TO.P,SW2,1,1*%
%TO.N,+5C*%
X125730000Y-120020000D03*
D20*
%TO.P,SW2,2,2*%
%TO.N,Net-(R3-Pad1)*%
X128270000Y-120020000D03*
%TD*%
D28*
%TO.P,Y1,1,1*%
%TO.N,Net-(U1-PB7{slash}XTAL2)*%
X115600000Y-109750000D03*
%TO.P,Y1,2,2*%
%TO.N,Net-(U1-PB6{slash}XTAL1)*%
X115600000Y-108250000D03*
%TD*%
D29*
%TO.P,D1,1,K*%
%TO.N,GND*%
X114250000Y-111750000D03*
%TO.P,D1,2,A*%
%TO.N,Net-(D1-A)*%
X112375000Y-111750000D03*
%TD*%
D19*
%TO.P,SW3,1,1*%
%TO.N,+5C*%
X133500000Y-120020000D03*
D20*
%TO.P,SW3,2,2*%
%TO.N,Net-(R5-Pad1)*%
X136040000Y-120020000D03*
%TD*%
D21*
%TO.P,R6,1*%
%TO.N,Net-(R5-Pad1)*%
X136150000Y-113750000D03*
%TO.P,R6,2*%
%TO.N,/MOSI*%
X134500000Y-113750000D03*
%TD*%
D30*
%TO.P,U1,1,PD3*%
%TO.N,Net-(U1-PD3)*%
X120100000Y-103700000D03*
%TO.P,U1,2,PD4*%
%TO.N,Net-(U1-PD4)*%
X120100000Y-104500000D03*
%TO.P,U1,3,GND*%
%TO.N,GND*%
X120100000Y-105300000D03*
%TO.P,U1,4,VCC*%
%TO.N,+5C*%
X120100000Y-106100000D03*
%TO.P,U1,5,GND*%
%TO.N,GND*%
X120100000Y-106900000D03*
%TO.P,U1,6,VCC*%
%TO.N,+5C*%
X120100000Y-107700000D03*
%TO.P,U1,7,PB6/XTAL1*%
%TO.N,Net-(U1-PB6{slash}XTAL1)*%
X120100000Y-108500000D03*
%TO.P,U1,8,PB7/XTAL2*%
%TO.N,Net-(U1-PB7{slash}XTAL2)*%
X120100000Y-109300000D03*
D31*
%TO.P,U1,9,PD5*%
%TO.N,Net-(U1-PD5)*%
X121550000Y-110750000D03*
%TO.P,U1,10,PD6*%
%TO.N,Net-(U1-PD6)*%
X122350000Y-110750000D03*
%TO.P,U1,11,PD7*%
%TO.N,Net-(U1-PD7)*%
X123150000Y-110750000D03*
%TO.P,U1,12,PB0*%
%TO.N,Net-(J2-Pin_1)*%
X123950000Y-110750000D03*
%TO.P,U1,13,PB1*%
%TO.N,Net-(U1-PB1)*%
X124750000Y-110750000D03*
%TO.P,U1,14,PB2*%
%TO.N,Net-(U1-PB2)*%
X125550000Y-110750000D03*
%TO.P,U1,15,PB3*%
%TO.N,/MOSI*%
X126350000Y-110750000D03*
%TO.P,U1,16,PB4*%
%TO.N,/MISO*%
X127150000Y-110750000D03*
D30*
%TO.P,U1,17,PB5*%
%TO.N,/SCK*%
X128600000Y-109300000D03*
%TO.P,U1,18,AVCC*%
%TO.N,+5C*%
X128600000Y-108500000D03*
%TO.P,U1,19,ADC6*%
%TO.N,unconnected-(U1-ADC6-Pad19)*%
X128600000Y-107700000D03*
%TO.P,U1,20,AREF*%
%TO.N,unconnected-(U1-AREF-Pad20)*%
X128600000Y-106900000D03*
%TO.P,U1,21,AGND*%
%TO.N,GND*%
X128600000Y-106100000D03*
%TO.P,U1,22,ADC7*%
%TO.N,unconnected-(U1-ADC7-Pad22)*%
X128600000Y-105300000D03*
%TO.P,U1,23,PC0*%
%TO.N,Net-(U1-PC0)*%
X128600000Y-104500000D03*
%TO.P,U1,24,PC1*%
%TO.N,Net-(U1-PC1)*%
X128600000Y-103700000D03*
D31*
%TO.P,U1,25,PC2*%
%TO.N,Net-(U1-PC2)*%
X127150000Y-102250000D03*
%TO.P,U1,26,PC3*%
%TO.N,Net-(U1-PC3)*%
X126350000Y-102250000D03*
%TO.P,U1,27,PC4*%
%TO.N,unconnected-(U1-PC4-Pad27)*%
X125550000Y-102250000D03*
%TO.P,U1,28,PC5*%
%TO.N,unconnected-(U1-PC5-Pad28)*%
X124750000Y-102250000D03*
%TO.P,U1,29,PC6/~{RESET}*%
%TO.N,Net-(J3-Pin_5)*%
X123950000Y-102250000D03*
%TO.P,U1,30,PD0*%
%TO.N,Net-(U1-PD0)*%
X123150000Y-102250000D03*
%TO.P,U1,31,PD1*%
%TO.N,Net-(U1-PD1)*%
X122350000Y-102250000D03*
%TO.P,U1,32,PD2*%
%TO.N,Net-(U1-PD2)*%
X121550000Y-102250000D03*
%TD*%
D32*
%TO.P,U2,1,VI*%
%TO.N,+12C*%
X104445000Y-111040000D03*
D33*
%TO.P,U2,2,GND*%
%TO.N,GND*%
X104445000Y-108500000D03*
%TO.P,U2,3,VO*%
%TO.N,+5C*%
X104445000Y-105960000D03*
%TD*%
D34*
%TO.N,+12C*%
X106250000Y-111750000D03*
%TO.N,GND*%
X124250000Y-107000000D03*
D35*
X102500000Y-108250000D03*
D34*
X125750000Y-105500000D03*
D35*
X101500000Y-113750000D03*
D34*
X138750000Y-111500000D03*
X106000000Y-109250000D03*
X115750000Y-117000000D03*
%TO.N,+5C*%
X118500000Y-106100000D03*
X118550000Y-107700000D03*
%TO.N,/MOSI*%
X135250000Y-112500000D03*
%TO.N,Net-(J2-Pin_1)*%
X114325000Y-115000000D03*
%TO.N,/SCK*%
X131362500Y-107612500D03*
%TO.N,Net-(J3-Pin_5)*%
X125575000Y-104000000D03*
%TO.N,/MISO*%
X132250000Y-105250000D03*
%TO.N,Net-(R1-Pad1)*%
X120710000Y-116875000D03*
%TO.N,Net-(R3-Pad1)*%
X128270000Y-117250000D03*
%TO.N,Net-(R5-Pad1)*%
X136000000Y-117000000D03*
%TO.N,Net-(U1-PD0)*%
X110500000Y-88500000D03*
%TO.N,Net-(U1-PD1)*%
X122400000Y-100250000D03*
%TO.N,Net-(U1-PD2)*%
X117000000Y-102000000D03*
%TO.N,Net-(U1-PD3)*%
X111700000Y-102550000D03*
%TO.N,Net-(U1-PD4)*%
X117250000Y-104250000D03*
%TO.N,Net-(U1-PD5)*%
X119000000Y-111000000D03*
%TO.N,Net-(U1-PD6)*%
X121750000Y-109000000D03*
%TO.N,Net-(U1-PD7)*%
X113250000Y-103500000D03*
X121675000Y-107750000D03*
X115000000Y-105250000D03*
%TO.N,Net-(U1-PC3)*%
X124050000Y-99125000D03*
%TO.N,Net-(U1-PC2)*%
X118210000Y-91710000D03*
%TO.N,Net-(U1-PC0)*%
X120500000Y-81000000D03*
%TO.N,Net-(U1-PB7{slash}XTAL2)*%
X117100000Y-109800000D03*
%TO.N,Net-(U1-PC1)*%
X115750000Y-86000000D03*
%TO.N,Net-(U1-PB6{slash}XTAL1)*%
X116800000Y-108530331D03*
%TD*%
D36*
%TO.N,+12C*%
X107250000Y-110750000D02*
X107250000Y-110730000D01*
X107250000Y-110730000D02*
X109230000Y-110730000D01*
X109230000Y-110730000D02*
X109250000Y-110750000D01*
X106250000Y-111750000D02*
X107250000Y-110750000D01*
%TO.N,GND*%
X101500000Y-113750000D02*
X102500000Y-113750000D01*
X114250000Y-111750000D02*
X114250000Y-108500000D01*
D37*
X134500000Y-117250000D02*
X135250000Y-118000000D01*
X126500000Y-118000000D02*
X130275000Y-118000000D01*
X117460000Y-115425000D02*
X116575000Y-115425000D01*
X130275000Y-118000000D02*
X133000000Y-115275000D01*
X108847500Y-105712500D02*
X107250000Y-107310000D01*
X125750000Y-105500000D02*
X125550000Y-105300000D01*
X109250000Y-105712500D02*
X108847500Y-105712500D01*
D36*
X102000000Y-111447500D02*
X103302500Y-112750000D01*
D37*
X118860000Y-115425000D02*
X119060000Y-115625000D01*
X117460000Y-115425000D02*
X118860000Y-115425000D01*
D36*
X102500000Y-108250000D02*
X102000000Y-108750000D01*
X110770000Y-111730000D02*
X110770000Y-109980000D01*
D37*
X138750000Y-113250000D02*
X138750000Y-111500000D01*
D36*
X114250000Y-108500000D02*
X113250000Y-107500000D01*
X109500000Y-112750000D02*
X109750000Y-112750000D01*
D37*
X125270000Y-115070000D02*
X125270000Y-116770000D01*
D36*
X113850000Y-106900000D02*
X113250000Y-107500000D01*
D37*
X138750000Y-116500000D02*
X138750000Y-113250000D01*
X134500000Y-115500000D02*
X134500000Y-117250000D01*
D36*
X106000000Y-109250000D02*
X106070000Y-109180000D01*
D37*
X119750000Y-117750000D02*
X122590000Y-117750000D01*
X125270000Y-115070000D02*
X126570000Y-115070000D01*
D36*
X106070000Y-109180000D02*
X107250000Y-109180000D01*
X107250000Y-109180000D02*
X107250000Y-107310000D01*
X103500000Y-112750000D02*
X109500000Y-112750000D01*
X102500000Y-113750000D02*
X103500000Y-112750000D01*
X109750000Y-112750000D02*
X110770000Y-111730000D01*
D37*
X124250000Y-107000000D02*
X124150000Y-106900000D01*
X125550000Y-105300000D02*
X120100000Y-105300000D01*
X125270000Y-116770000D02*
X126500000Y-118000000D01*
X134275000Y-115275000D02*
X133000000Y-115275000D01*
X134500000Y-115500000D02*
X134275000Y-115275000D01*
D36*
X102000000Y-108750000D02*
X102000000Y-111447500D01*
D37*
X126570000Y-115070000D02*
X126770000Y-115270000D01*
X122590000Y-117750000D02*
X125270000Y-115070000D01*
X124150000Y-106900000D02*
X120100000Y-106900000D01*
X138250000Y-117000000D02*
X138750000Y-116500000D01*
X135250000Y-118000000D02*
X137250000Y-118000000D01*
D36*
X110770000Y-109980000D02*
X113250000Y-107500000D01*
D37*
X119060000Y-117060000D02*
X119750000Y-117750000D01*
X125750000Y-105500000D02*
X126350000Y-106100000D01*
D36*
X103302500Y-112750000D02*
X109500000Y-112750000D01*
D37*
X137250000Y-118000000D02*
X138250000Y-117000000D01*
X126350000Y-106100000D02*
X128600000Y-106100000D01*
D36*
X120100000Y-106900000D02*
X113850000Y-106900000D01*
D37*
X116575000Y-115425000D02*
X115750000Y-116250000D01*
X115750000Y-116250000D02*
X115750000Y-117000000D01*
X119060000Y-115625000D02*
X119060000Y-117060000D01*
%TO.N,+5C*%
X125200000Y-106100000D02*
X127600000Y-108500000D01*
X120100000Y-106100000D02*
X118500000Y-106100000D01*
D36*
X107050000Y-105960000D02*
X107250000Y-105760000D01*
D37*
X118500000Y-106100000D02*
X113850000Y-106100000D01*
X112250000Y-104500000D02*
X108510000Y-104500000D01*
D36*
X104445000Y-105960000D02*
X107050000Y-105960000D01*
D37*
X120100000Y-106100000D02*
X125200000Y-106100000D01*
X108510000Y-104500000D02*
X107250000Y-105760000D01*
X127600000Y-108500000D02*
X128600000Y-108500000D01*
X120100000Y-107700000D02*
X118550000Y-107700000D01*
X113850000Y-106100000D02*
X112250000Y-104500000D01*
%TO.N,Net-(U1-PB1)*%
X119060000Y-113875000D02*
X117460000Y-113875000D01*
X120185220Y-113000000D02*
X120235220Y-112950000D01*
X120235220Y-112950000D02*
X121184780Y-112950000D01*
X119060000Y-113190000D02*
X119250000Y-113000000D01*
X119250000Y-113000000D02*
X120185220Y-113000000D01*
X121184780Y-112950000D02*
X121234780Y-113000000D01*
X121234780Y-113000000D02*
X124000000Y-113000000D01*
X119060000Y-113875000D02*
X119060000Y-113190000D01*
X124750000Y-112250000D02*
X124750000Y-110750000D01*
X124000000Y-113000000D02*
X124750000Y-112250000D01*
%TO.N,Net-(U1-PB2)*%
X125550000Y-112990000D02*
X125550000Y-110750000D01*
X125270000Y-113520000D02*
X125270000Y-113270000D01*
X125270000Y-113270000D02*
X125550000Y-112990000D01*
X125270000Y-113520000D02*
X126770000Y-113520000D01*
%TO.N,/MOSI*%
X131525000Y-112250000D02*
X133000000Y-113725000D01*
X133025000Y-113750000D02*
X133000000Y-113725000D01*
X126350000Y-110750000D02*
X126350000Y-111770930D01*
X135250000Y-112500000D02*
X135000000Y-112500000D01*
X126350000Y-111770930D02*
X126829070Y-112250000D01*
X134500000Y-113000000D02*
X134500000Y-113750000D01*
X126829070Y-112250000D02*
X131525000Y-112250000D01*
X134500000Y-113750000D02*
X133025000Y-113750000D01*
X135000000Y-112500000D02*
X134500000Y-113000000D01*
%TO.N,Net-(D1-A)*%
X112675000Y-113750000D02*
X112675000Y-112050000D01*
X112675000Y-112050000D02*
X112375000Y-111750000D01*
D36*
%TO.N,Net-(D3-A)*%
X109250000Y-109100000D02*
X109250000Y-107287500D01*
D37*
%TO.N,Net-(J2-Pin_1)*%
X123550000Y-112250000D02*
X115825000Y-112250000D01*
X115825000Y-112250000D02*
X114325000Y-113750000D01*
X123950000Y-111850000D02*
X123550000Y-112250000D01*
X123950000Y-110750000D02*
X123950000Y-111850000D01*
X114325000Y-115000000D02*
X114325000Y-113750000D01*
%TO.N,/SCK*%
X131362500Y-107612500D02*
X129675000Y-109300000D01*
X129675000Y-109300000D02*
X128600000Y-109300000D01*
%TO.N,Net-(J3-Pin_5)*%
X124625000Y-104000000D02*
X123950000Y-103325000D01*
X123950000Y-103325000D02*
X123950000Y-102250000D01*
X125575000Y-104000000D02*
X124625000Y-104000000D01*
%TO.N,/MISO*%
X132162500Y-105337500D02*
X132162500Y-107943871D01*
X132162500Y-107943871D02*
X129356371Y-110750000D01*
X132250000Y-105250000D02*
X132162500Y-105337500D01*
X129356371Y-110750000D02*
X127150000Y-110750000D01*
%TO.N,Net-(R1-Pad1)*%
X120710000Y-116875000D02*
X120710000Y-116500000D01*
X120710000Y-113875000D02*
X120710000Y-115625000D01*
X120710000Y-116875000D02*
X120710000Y-115625000D01*
%TO.N,Net-(R3-Pad1)*%
X128420000Y-117100000D02*
X128420000Y-115270000D01*
X128420000Y-113520000D02*
X128420000Y-115270000D01*
X128270000Y-117250000D02*
X128420000Y-117100000D01*
%TO.N,Net-(R5-Pad1)*%
X136150000Y-115500000D02*
X136150000Y-113750000D01*
X136150000Y-115500000D02*
X136150000Y-116850000D01*
X136150000Y-116850000D02*
X136000000Y-117000000D01*
%TO.N,Net-(U1-PD0)*%
X119250000Y-95000000D02*
X112750000Y-95000000D01*
X110500000Y-92750000D02*
X110500000Y-88500000D01*
X112750000Y-95000000D02*
X110500000Y-92750000D01*
X123150000Y-102250000D02*
X123150000Y-98900000D01*
X123150000Y-98900000D02*
X119250000Y-95000000D01*
%TO.N,Net-(U1-PD1)*%
X122400000Y-101325000D02*
X122350000Y-101375000D01*
X122350000Y-101375000D02*
X122350000Y-102250000D01*
X122400000Y-100250000D02*
X122400000Y-101325000D01*
%TO.N,Net-(U1-PD2)*%
X117250000Y-102250000D02*
X121550000Y-102250000D01*
X117000000Y-102000000D02*
X117250000Y-102250000D01*
%TO.N,Net-(U1-PD3)*%
X114500000Y-103250000D02*
X119650000Y-103250000D01*
X119650000Y-103250000D02*
X120100000Y-103700000D01*
X111700000Y-102550000D02*
X111750000Y-102500000D01*
X111750000Y-102500000D02*
X113750000Y-102500000D01*
X113750000Y-102500000D02*
X114500000Y-103250000D01*
%TO.N,Net-(U1-PD4)*%
X117250000Y-104250000D02*
X117500000Y-104500000D01*
X117500000Y-104500000D02*
X120100000Y-104500000D01*
%TO.N,Net-(U1-PD5)*%
X119000000Y-111000000D02*
X119750000Y-111000000D01*
X119750000Y-111000000D02*
X120000000Y-110750000D01*
X120000000Y-110750000D02*
X121550000Y-110750000D01*
%TO.N,Net-(U1-PD6)*%
X122350000Y-109600000D02*
X122350000Y-110750000D01*
X121750000Y-109000000D02*
X122350000Y-109600000D01*
%TO.N,Net-(U1-PD7)*%
X121675000Y-107750000D02*
X122250000Y-107750000D01*
X123150000Y-108650000D02*
X123150000Y-110750000D01*
X122250000Y-107750000D02*
X123150000Y-108650000D01*
X113250000Y-103500000D02*
X115000000Y-105250000D01*
%TO.N,Net-(U1-PC3)*%
X126350000Y-100850000D02*
X126350000Y-102250000D01*
X124050000Y-99125000D02*
X124625000Y-99125000D01*
X124625000Y-99125000D02*
X126350000Y-100850000D01*
%TO.N,Net-(U1-PC2)*%
X127150000Y-100650000D02*
X127150000Y-102250000D01*
X118210000Y-91710000D02*
X127150000Y-100650000D01*
%TO.N,Net-(U1-PC0)*%
X130250000Y-99250000D02*
X123250000Y-92250000D01*
X123250000Y-82250000D02*
X122000000Y-81000000D01*
X128600000Y-104500000D02*
X129600000Y-104500000D01*
X130250000Y-103850000D02*
X130250000Y-99250000D01*
X123250000Y-92250000D02*
X123250000Y-82250000D01*
X122000000Y-81000000D02*
X120500000Y-81000000D01*
X129600000Y-104500000D02*
X130250000Y-103850000D01*
%TO.N,Net-(U1-PB7{slash}XTAL2)*%
X117600000Y-109300000D02*
X117100000Y-109800000D01*
X120100000Y-109300000D02*
X117600000Y-109300000D01*
%TO.N,Net-(U1-PC1)*%
X115750000Y-87500000D02*
X128600000Y-100350000D01*
X115750000Y-86000000D02*
X115750000Y-87500000D01*
X128600000Y-100350000D02*
X128600000Y-103700000D01*
%TO.N,Net-(U1-PB6{slash}XTAL1)*%
X116800000Y-108530331D02*
X116830331Y-108500000D01*
X116830331Y-108500000D02*
X120100000Y-108500000D01*
%TD*%
M02*
