%TF.GenerationSoftware,KiCad,Pcbnew,8.0.6*%
%TF.CreationDate,2024-11-25T15:37:35+03:30*%
%TF.ProjectId,AlarmClock,416c6172-6d43-46c6-9f63-6b2e6b696361,rev?*%
%TF.SameCoordinates,Original*%
%TF.FileFunction,Legend,Bot*%
%TF.FilePolarity,Positive*%
%FSLAX46Y46*%
G04 Gerber Fmt 4.6, Leading zero omitted, Abs format (unit mm)*
G04 Created by KiCad (PCBNEW 8.0.6) date 2024-11-25 15:37:35*
%MOMM*%
%LPD*%
G01*
G04 APERTURE LIST*
%ADD10C,0.150000*%
%ADD11C,0.120000*%
G04 APERTURE END LIST*
D10*
X110954819Y-88107142D02*
X110478628Y-87773809D01*
X110954819Y-87535714D02*
X109954819Y-87535714D01*
X109954819Y-87535714D02*
X109954819Y-87916666D01*
X109954819Y-87916666D02*
X110002438Y-88011904D01*
X110002438Y-88011904D02*
X110050057Y-88059523D01*
X110050057Y-88059523D02*
X110145295Y-88107142D01*
X110145295Y-88107142D02*
X110288152Y-88107142D01*
X110288152Y-88107142D02*
X110383390Y-88059523D01*
X110383390Y-88059523D02*
X110431009Y-88011904D01*
X110431009Y-88011904D02*
X110478628Y-87916666D01*
X110478628Y-87916666D02*
X110478628Y-87535714D01*
X110954819Y-89059523D02*
X110954819Y-88488095D01*
X110954819Y-88773809D02*
X109954819Y-88773809D01*
X109954819Y-88773809D02*
X110097676Y-88678571D01*
X110097676Y-88678571D02*
X110192914Y-88583333D01*
X110192914Y-88583333D02*
X110240533Y-88488095D01*
X109954819Y-89678571D02*
X109954819Y-89773809D01*
X109954819Y-89773809D02*
X110002438Y-89869047D01*
X110002438Y-89869047D02*
X110050057Y-89916666D01*
X110050057Y-89916666D02*
X110145295Y-89964285D01*
X110145295Y-89964285D02*
X110335771Y-90011904D01*
X110335771Y-90011904D02*
X110573866Y-90011904D01*
X110573866Y-90011904D02*
X110764342Y-89964285D01*
X110764342Y-89964285D02*
X110859580Y-89916666D01*
X110859580Y-89916666D02*
X110907200Y-89869047D01*
X110907200Y-89869047D02*
X110954819Y-89773809D01*
X110954819Y-89773809D02*
X110954819Y-89678571D01*
X110954819Y-89678571D02*
X110907200Y-89583333D01*
X110907200Y-89583333D02*
X110859580Y-89535714D01*
X110859580Y-89535714D02*
X110764342Y-89488095D01*
X110764342Y-89488095D02*
X110573866Y-89440476D01*
X110573866Y-89440476D02*
X110335771Y-89440476D01*
X110335771Y-89440476D02*
X110145295Y-89488095D01*
X110145295Y-89488095D02*
X110050057Y-89535714D01*
X110050057Y-89535714D02*
X110002438Y-89583333D01*
X110002438Y-89583333D02*
X109954819Y-89678571D01*
X118954819Y-103432142D02*
X118478628Y-103098809D01*
X118954819Y-102860714D02*
X117954819Y-102860714D01*
X117954819Y-102860714D02*
X117954819Y-103241666D01*
X117954819Y-103241666D02*
X118002438Y-103336904D01*
X118002438Y-103336904D02*
X118050057Y-103384523D01*
X118050057Y-103384523D02*
X118145295Y-103432142D01*
X118145295Y-103432142D02*
X118288152Y-103432142D01*
X118288152Y-103432142D02*
X118383390Y-103384523D01*
X118383390Y-103384523D02*
X118431009Y-103336904D01*
X118431009Y-103336904D02*
X118478628Y-103241666D01*
X118478628Y-103241666D02*
X118478628Y-102860714D01*
X118954819Y-104384523D02*
X118954819Y-103813095D01*
X118954819Y-104098809D02*
X117954819Y-104098809D01*
X117954819Y-104098809D02*
X118097676Y-104003571D01*
X118097676Y-104003571D02*
X118192914Y-103908333D01*
X118192914Y-103908333D02*
X118240533Y-103813095D01*
X117954819Y-105241666D02*
X117954819Y-105051190D01*
X117954819Y-105051190D02*
X118002438Y-104955952D01*
X118002438Y-104955952D02*
X118050057Y-104908333D01*
X118050057Y-104908333D02*
X118192914Y-104813095D01*
X118192914Y-104813095D02*
X118383390Y-104765476D01*
X118383390Y-104765476D02*
X118764342Y-104765476D01*
X118764342Y-104765476D02*
X118859580Y-104813095D01*
X118859580Y-104813095D02*
X118907200Y-104860714D01*
X118907200Y-104860714D02*
X118954819Y-104955952D01*
X118954819Y-104955952D02*
X118954819Y-105146428D01*
X118954819Y-105146428D02*
X118907200Y-105241666D01*
X118907200Y-105241666D02*
X118859580Y-105289285D01*
X118859580Y-105289285D02*
X118764342Y-105336904D01*
X118764342Y-105336904D02*
X118526247Y-105336904D01*
X118526247Y-105336904D02*
X118431009Y-105289285D01*
X118431009Y-105289285D02*
X118383390Y-105241666D01*
X118383390Y-105241666D02*
X118335771Y-105146428D01*
X118335771Y-105146428D02*
X118335771Y-104955952D01*
X118335771Y-104955952D02*
X118383390Y-104860714D01*
X118383390Y-104860714D02*
X118431009Y-104813095D01*
X118431009Y-104813095D02*
X118526247Y-104765476D01*
X111014819Y-103389642D02*
X110538628Y-103056309D01*
X111014819Y-102818214D02*
X110014819Y-102818214D01*
X110014819Y-102818214D02*
X110014819Y-103199166D01*
X110014819Y-103199166D02*
X110062438Y-103294404D01*
X110062438Y-103294404D02*
X110110057Y-103342023D01*
X110110057Y-103342023D02*
X110205295Y-103389642D01*
X110205295Y-103389642D02*
X110348152Y-103389642D01*
X110348152Y-103389642D02*
X110443390Y-103342023D01*
X110443390Y-103342023D02*
X110491009Y-103294404D01*
X110491009Y-103294404D02*
X110538628Y-103199166D01*
X110538628Y-103199166D02*
X110538628Y-102818214D01*
X111014819Y-104342023D02*
X111014819Y-103770595D01*
X111014819Y-104056309D02*
X110014819Y-104056309D01*
X110014819Y-104056309D02*
X110157676Y-103961071D01*
X110157676Y-103961071D02*
X110252914Y-103865833D01*
X110252914Y-103865833D02*
X110300533Y-103770595D01*
X110014819Y-104675357D02*
X110014819Y-105294404D01*
X110014819Y-105294404D02*
X110395771Y-104961071D01*
X110395771Y-104961071D02*
X110395771Y-105103928D01*
X110395771Y-105103928D02*
X110443390Y-105199166D01*
X110443390Y-105199166D02*
X110491009Y-105246785D01*
X110491009Y-105246785D02*
X110586247Y-105294404D01*
X110586247Y-105294404D02*
X110824342Y-105294404D01*
X110824342Y-105294404D02*
X110919580Y-105246785D01*
X110919580Y-105246785D02*
X110967200Y-105199166D01*
X110967200Y-105199166D02*
X111014819Y-105103928D01*
X111014819Y-105103928D02*
X111014819Y-104818214D01*
X111014819Y-104818214D02*
X110967200Y-104722976D01*
X110967200Y-104722976D02*
X110919580Y-104675357D01*
X113454819Y-88107142D02*
X112978628Y-87773809D01*
X113454819Y-87535714D02*
X112454819Y-87535714D01*
X112454819Y-87535714D02*
X112454819Y-87916666D01*
X112454819Y-87916666D02*
X112502438Y-88011904D01*
X112502438Y-88011904D02*
X112550057Y-88059523D01*
X112550057Y-88059523D02*
X112645295Y-88107142D01*
X112645295Y-88107142D02*
X112788152Y-88107142D01*
X112788152Y-88107142D02*
X112883390Y-88059523D01*
X112883390Y-88059523D02*
X112931009Y-88011904D01*
X112931009Y-88011904D02*
X112978628Y-87916666D01*
X112978628Y-87916666D02*
X112978628Y-87535714D01*
X113454819Y-89059523D02*
X113454819Y-88488095D01*
X113454819Y-88773809D02*
X112454819Y-88773809D01*
X112454819Y-88773809D02*
X112597676Y-88678571D01*
X112597676Y-88678571D02*
X112692914Y-88583333D01*
X112692914Y-88583333D02*
X112740533Y-88488095D01*
X112454819Y-89964285D02*
X112454819Y-89488095D01*
X112454819Y-89488095D02*
X112931009Y-89440476D01*
X112931009Y-89440476D02*
X112883390Y-89488095D01*
X112883390Y-89488095D02*
X112835771Y-89583333D01*
X112835771Y-89583333D02*
X112835771Y-89821428D01*
X112835771Y-89821428D02*
X112883390Y-89916666D01*
X112883390Y-89916666D02*
X112931009Y-89964285D01*
X112931009Y-89964285D02*
X113026247Y-90011904D01*
X113026247Y-90011904D02*
X113264342Y-90011904D01*
X113264342Y-90011904D02*
X113359580Y-89964285D01*
X113359580Y-89964285D02*
X113407200Y-89916666D01*
X113407200Y-89916666D02*
X113454819Y-89821428D01*
X113454819Y-89821428D02*
X113454819Y-89583333D01*
X113454819Y-89583333D02*
X113407200Y-89488095D01*
X113407200Y-89488095D02*
X113359580Y-89440476D01*
X116014819Y-103564642D02*
X115538628Y-103231309D01*
X116014819Y-102993214D02*
X115014819Y-102993214D01*
X115014819Y-102993214D02*
X115014819Y-103374166D01*
X115014819Y-103374166D02*
X115062438Y-103469404D01*
X115062438Y-103469404D02*
X115110057Y-103517023D01*
X115110057Y-103517023D02*
X115205295Y-103564642D01*
X115205295Y-103564642D02*
X115348152Y-103564642D01*
X115348152Y-103564642D02*
X115443390Y-103517023D01*
X115443390Y-103517023D02*
X115491009Y-103469404D01*
X115491009Y-103469404D02*
X115538628Y-103374166D01*
X115538628Y-103374166D02*
X115538628Y-102993214D01*
X116014819Y-104517023D02*
X116014819Y-103945595D01*
X116014819Y-104231309D02*
X115014819Y-104231309D01*
X115014819Y-104231309D02*
X115157676Y-104136071D01*
X115157676Y-104136071D02*
X115252914Y-104040833D01*
X115252914Y-104040833D02*
X115300533Y-103945595D01*
X115110057Y-104897976D02*
X115062438Y-104945595D01*
X115062438Y-104945595D02*
X115014819Y-105040833D01*
X115014819Y-105040833D02*
X115014819Y-105278928D01*
X115014819Y-105278928D02*
X115062438Y-105374166D01*
X115062438Y-105374166D02*
X115110057Y-105421785D01*
X115110057Y-105421785D02*
X115205295Y-105469404D01*
X115205295Y-105469404D02*
X115300533Y-105469404D01*
X115300533Y-105469404D02*
X115443390Y-105421785D01*
X115443390Y-105421785D02*
X116014819Y-104850357D01*
X116014819Y-104850357D02*
X116014819Y-105469404D01*
X121204819Y-88032142D02*
X120728628Y-87698809D01*
X121204819Y-87460714D02*
X120204819Y-87460714D01*
X120204819Y-87460714D02*
X120204819Y-87841666D01*
X120204819Y-87841666D02*
X120252438Y-87936904D01*
X120252438Y-87936904D02*
X120300057Y-87984523D01*
X120300057Y-87984523D02*
X120395295Y-88032142D01*
X120395295Y-88032142D02*
X120538152Y-88032142D01*
X120538152Y-88032142D02*
X120633390Y-87984523D01*
X120633390Y-87984523D02*
X120681009Y-87936904D01*
X120681009Y-87936904D02*
X120728628Y-87841666D01*
X120728628Y-87841666D02*
X120728628Y-87460714D01*
X121204819Y-88984523D02*
X121204819Y-88413095D01*
X121204819Y-88698809D02*
X120204819Y-88698809D01*
X120204819Y-88698809D02*
X120347676Y-88603571D01*
X120347676Y-88603571D02*
X120442914Y-88508333D01*
X120442914Y-88508333D02*
X120490533Y-88413095D01*
X121204819Y-89936904D02*
X121204819Y-89365476D01*
X121204819Y-89651190D02*
X120204819Y-89651190D01*
X120204819Y-89651190D02*
X120347676Y-89555952D01*
X120347676Y-89555952D02*
X120442914Y-89460714D01*
X120442914Y-89460714D02*
X120490533Y-89365476D01*
X113484819Y-103314642D02*
X113008628Y-102981309D01*
X113484819Y-102743214D02*
X112484819Y-102743214D01*
X112484819Y-102743214D02*
X112484819Y-103124166D01*
X112484819Y-103124166D02*
X112532438Y-103219404D01*
X112532438Y-103219404D02*
X112580057Y-103267023D01*
X112580057Y-103267023D02*
X112675295Y-103314642D01*
X112675295Y-103314642D02*
X112818152Y-103314642D01*
X112818152Y-103314642D02*
X112913390Y-103267023D01*
X112913390Y-103267023D02*
X112961009Y-103219404D01*
X112961009Y-103219404D02*
X113008628Y-103124166D01*
X113008628Y-103124166D02*
X113008628Y-102743214D01*
X113484819Y-104267023D02*
X113484819Y-103695595D01*
X113484819Y-103981309D02*
X112484819Y-103981309D01*
X112484819Y-103981309D02*
X112627676Y-103886071D01*
X112627676Y-103886071D02*
X112722914Y-103790833D01*
X112722914Y-103790833D02*
X112770533Y-103695595D01*
X112484819Y-104600357D02*
X112484819Y-105267023D01*
X112484819Y-105267023D02*
X113484819Y-104838452D01*
X108454819Y-103357142D02*
X107978628Y-103023809D01*
X108454819Y-102785714D02*
X107454819Y-102785714D01*
X107454819Y-102785714D02*
X107454819Y-103166666D01*
X107454819Y-103166666D02*
X107502438Y-103261904D01*
X107502438Y-103261904D02*
X107550057Y-103309523D01*
X107550057Y-103309523D02*
X107645295Y-103357142D01*
X107645295Y-103357142D02*
X107788152Y-103357142D01*
X107788152Y-103357142D02*
X107883390Y-103309523D01*
X107883390Y-103309523D02*
X107931009Y-103261904D01*
X107931009Y-103261904D02*
X107978628Y-103166666D01*
X107978628Y-103166666D02*
X107978628Y-102785714D01*
X108454819Y-104309523D02*
X108454819Y-103738095D01*
X108454819Y-104023809D02*
X107454819Y-104023809D01*
X107454819Y-104023809D02*
X107597676Y-103928571D01*
X107597676Y-103928571D02*
X107692914Y-103833333D01*
X107692914Y-103833333D02*
X107740533Y-103738095D01*
X107788152Y-105166666D02*
X108454819Y-105166666D01*
X107407200Y-104928571D02*
X108121485Y-104690476D01*
X108121485Y-104690476D02*
X108121485Y-105309523D01*
D11*
%TO.C,R10*%
X109977500Y-85512742D02*
X109977500Y-85987258D01*
X111022500Y-85512742D02*
X111022500Y-85987258D01*
%TO.C,R16*%
X118772500Y-100837742D02*
X118772500Y-101312258D01*
X117727500Y-100837742D02*
X117727500Y-101312258D01*
%TO.C,R13*%
X109977500Y-100837742D02*
X109977500Y-101312258D01*
X111022500Y-100837742D02*
X111022500Y-101312258D01*
%TO.C,R15*%
X112477500Y-85512742D02*
X112477500Y-85987258D01*
X113522500Y-85512742D02*
X113522500Y-85987258D01*
%TO.C,R12*%
X116272500Y-100837742D02*
X116272500Y-101312258D01*
X115227500Y-100837742D02*
X115227500Y-101312258D01*
%TO.C,R11*%
X120227500Y-85512742D02*
X120227500Y-85987258D01*
X121272500Y-85512742D02*
X121272500Y-85987258D01*
%TO.C,R17*%
X112507500Y-100837742D02*
X112507500Y-101312258D01*
X113552500Y-100837742D02*
X113552500Y-101312258D01*
%TO.C,R14*%
X107477500Y-100762742D02*
X107477500Y-101237258D01*
X108522500Y-100762742D02*
X108522500Y-101237258D01*
%TD*%
M02*
