%TF.GenerationSoftware,KiCad,Pcbnew,8.0.6*%
%TF.CreationDate,2024-11-25T15:37:35+03:30*%
%TF.ProjectId,AlarmClock,416c6172-6d43-46c6-9f63-6b2e6b696361,rev?*%
%TF.SameCoordinates,Original*%
%TF.FileFunction,Copper,L2,Bot*%
%TF.FilePolarity,Positive*%
%FSLAX46Y46*%
G04 Gerber Fmt 4.6, Leading zero omitted, Abs format (unit mm)*
G04 Created by KiCad (PCBNEW 8.0.6) date 2024-11-25 15:37:35*
%MOMM*%
%LPD*%
G01*
G04 APERTURE LIST*
G04 Aperture macros list*
%AMRoundRect*
0 Rectangle with rounded corners*
0 $1 Rounding radius*
0 $2 $3 $4 $5 $6 $7 $8 $9 X,Y pos of 4 corners*
0 Add a 4 corners polygon primitive as box body*
4,1,4,$2,$3,$4,$5,$6,$7,$8,$9,$2,$3,0*
0 Add four circle primitives for the rounded corners*
1,1,$1+$1,$2,$3*
1,1,$1+$1,$4,$5*
1,1,$1+$1,$6,$7*
1,1,$1+$1,$8,$9*
0 Add four rect primitives between the rounded corners*
20,1,$1+$1,$2,$3,$4,$5,0*
20,1,$1+$1,$4,$5,$6,$7,0*
20,1,$1+$1,$6,$7,$8,$9,0*
20,1,$1+$1,$8,$9,$2,$3,0*%
G04 Aperture macros list end*
%TA.AperFunction,ComponentPad*%
%ADD10R,1.700000X1.700000*%
%TD*%
%TA.AperFunction,ComponentPad*%
%ADD11O,1.700000X1.700000*%
%TD*%
%TA.AperFunction,ComponentPad*%
%ADD12R,4.600000X2.000000*%
%TD*%
%TA.AperFunction,ComponentPad*%
%ADD13O,4.200000X2.000000*%
%TD*%
%TA.AperFunction,ComponentPad*%
%ADD14O,2.000000X4.200000*%
%TD*%
%TA.AperFunction,ComponentPad*%
%ADD15R,1.600000X1.600000*%
%TD*%
%TA.AperFunction,ComponentPad*%
%ADD16O,1.600000X1.600000*%
%TD*%
%TA.AperFunction,ComponentPad*%
%ADD17RoundRect,0.250000X-0.620000X-0.845000X0.620000X-0.845000X0.620000X0.845000X-0.620000X0.845000X0*%
%TD*%
%TA.AperFunction,ComponentPad*%
%ADD18O,1.740000X2.190000*%
%TD*%
%TA.AperFunction,ComponentPad*%
%ADD19R,1.500000X1.500000*%
%TD*%
%TA.AperFunction,ComponentPad*%
%ADD20C,1.500000*%
%TD*%
%TA.AperFunction,ComponentPad*%
%ADD21RoundRect,0.250000X0.650000X1.550000X-0.650000X1.550000X-0.650000X-1.550000X0.650000X-1.550000X0*%
%TD*%
%TA.AperFunction,ComponentPad*%
%ADD22O,1.800000X3.600000*%
%TD*%
%TA.AperFunction,ComponentPad*%
%ADD23C,1.000000*%
%TD*%
%TA.AperFunction,ComponentPad*%
%ADD24R,2.000000X1.905000*%
%TD*%
%TA.AperFunction,ComponentPad*%
%ADD25O,2.000000X1.905000*%
%TD*%
%TA.AperFunction,SMDPad,CuDef*%
%ADD26RoundRect,0.200000X0.275000X-0.200000X0.275000X0.200000X-0.275000X0.200000X-0.275000X-0.200000X0*%
%TD*%
%TA.AperFunction,ViaPad*%
%ADD27C,0.600000*%
%TD*%
%TA.AperFunction,ViaPad*%
%ADD28C,1.000000*%
%TD*%
%TA.AperFunction,Conductor*%
%ADD29C,0.400000*%
%TD*%
%TA.AperFunction,Conductor*%
%ADD30C,1.000000*%
%TD*%
%TA.AperFunction,Conductor*%
%ADD31C,0.500000*%
%TD*%
G04 APERTURE END LIST*
D10*
%TO.P,J3,1,Pin_1*%
%TO.N,/MISO*%
X135000000Y-104475000D03*
D11*
%TO.P,J3,2,Pin_2*%
%TO.N,+5C*%
X137540000Y-104475000D03*
%TO.P,J3,3,Pin_3*%
%TO.N,/SCK*%
X135000000Y-107015000D03*
%TO.P,J3,4,Pin_4*%
%TO.N,/MOSI*%
X137540000Y-107015000D03*
%TO.P,J3,5,Pin_5*%
%TO.N,Net-(J3-Pin_5)*%
X135000000Y-109555000D03*
%TO.P,J3,6,Pin_6*%
%TO.N,GND*%
X137540000Y-109555000D03*
%TD*%
D12*
%TO.P,J1,1*%
%TO.N,Net-(D2-A)*%
X93750000Y-109200000D03*
D13*
%TO.P,J1,2*%
%TO.N,GND*%
X93750000Y-115500000D03*
D14*
%TO.P,J1,3*%
X98550000Y-112100000D03*
%TD*%
D15*
%TO.P,D2,1,K*%
%TO.N,+12C*%
X97560000Y-106000000D03*
D16*
%TO.P,D2,2,A*%
%TO.N,Net-(D2-A)*%
X89940000Y-106000000D03*
%TD*%
D17*
%TO.P,SW1,1,1*%
%TO.N,+5C*%
X117960000Y-120000000D03*
D18*
%TO.P,SW1,2,2*%
%TO.N,Net-(R1-Pad1)*%
X120500000Y-120000000D03*
%TD*%
D19*
%TO.P,U5,1,e*%
%TO.N,Net-(U5-e)*%
X108050000Y-98250000D03*
D20*
%TO.P,U5,2,d*%
%TO.N,Net-(U5-d)*%
X110590000Y-98250000D03*
%TO.P,U5,3,DPX*%
%TO.N,Net-(U5-DPX)*%
X113130000Y-98250000D03*
%TO.P,U5,4,c*%
%TO.N,Net-(U5-c)*%
X115670000Y-98250000D03*
%TO.P,U5,5,g*%
%TO.N,Net-(U5-g)*%
X118210000Y-98250000D03*
%TO.P,U5,6,CC4*%
%TO.N,Net-(U1-PC3)*%
X120750000Y-98250000D03*
%TO.P,U5,7,b*%
%TO.N,Net-(U5-b)*%
X120750000Y-83010000D03*
%TO.P,U5,8,CC3*%
%TO.N,Net-(U1-PC2)*%
X118210000Y-83010000D03*
%TO.P,U5,9,CC2*%
%TO.N,Net-(U1-PC1)*%
X115670000Y-83010000D03*
%TO.P,U5,10,f*%
%TO.N,Net-(U5-f)*%
X113130000Y-83010000D03*
%TO.P,U5,11,a*%
%TO.N,Net-(U5-a)*%
X110590000Y-83010000D03*
%TO.P,U5,12,CC1*%
%TO.N,Net-(U1-PC0)*%
X108050000Y-83010000D03*
%TD*%
D21*
%TO.P,J2,1,Pin_1*%
%TO.N,Net-(J2-Pin_1)*%
X110500000Y-118500000D03*
D22*
%TO.P,J2,2,Pin_2*%
%TO.N,GND*%
X105420000Y-118500000D03*
%TD*%
D17*
%TO.P,SW2,1,1*%
%TO.N,+5C*%
X125730000Y-120020000D03*
D18*
%TO.P,SW2,2,2*%
%TO.N,Net-(R3-Pad1)*%
X128270000Y-120020000D03*
%TD*%
D23*
%TO.P,Y1,1,1*%
%TO.N,Net-(U1-PB7{slash}XTAL2)*%
X115600000Y-109750000D03*
%TO.P,Y1,2,2*%
%TO.N,Net-(U1-PB6{slash}XTAL1)*%
X115600000Y-108250000D03*
%TD*%
D17*
%TO.P,SW3,1,1*%
%TO.N,+5C*%
X133500000Y-120020000D03*
D18*
%TO.P,SW3,2,2*%
%TO.N,Net-(R5-Pad1)*%
X136040000Y-120020000D03*
%TD*%
D24*
%TO.P,U2,1,VI*%
%TO.N,+12C*%
X104445000Y-111040000D03*
D25*
%TO.P,U2,2,GND*%
%TO.N,GND*%
X104445000Y-108500000D03*
%TO.P,U2,3,VO*%
%TO.N,+5C*%
X104445000Y-105960000D03*
%TD*%
D26*
%TO.P,R10,1*%
%TO.N,Net-(U1-PD0)*%
X110500000Y-86575000D03*
%TO.P,R10,2*%
%TO.N,Net-(U5-a)*%
X110500000Y-84925000D03*
%TD*%
%TO.P,R16,2*%
%TO.N,Net-(U5-g)*%
X118250000Y-100250000D03*
%TO.P,R16,1*%
%TO.N,Net-(U1-PD6)*%
X118250000Y-101900000D03*
%TD*%
%TO.P,R13,1*%
%TO.N,Net-(U1-PD3)*%
X110500000Y-101900000D03*
%TO.P,R13,2*%
%TO.N,Net-(U5-d)*%
X110500000Y-100250000D03*
%TD*%
%TO.P,R15,1*%
%TO.N,Net-(U1-PD5)*%
X113000000Y-86575000D03*
%TO.P,R15,2*%
%TO.N,Net-(U5-f)*%
X113000000Y-84925000D03*
%TD*%
%TO.P,R12,2*%
%TO.N,Net-(U5-c)*%
X115750000Y-100250000D03*
%TO.P,R12,1*%
%TO.N,Net-(U1-PD2)*%
X115750000Y-101900000D03*
%TD*%
%TO.P,R11,1*%
%TO.N,Net-(U1-PD1)*%
X120750000Y-86575000D03*
%TO.P,R11,2*%
%TO.N,Net-(U5-b)*%
X120750000Y-84925000D03*
%TD*%
%TO.P,R17,1*%
%TO.N,Net-(U1-PD7)*%
X113030000Y-101900000D03*
%TO.P,R17,2*%
%TO.N,Net-(U5-DPX)*%
X113030000Y-100250000D03*
%TD*%
%TO.P,R14,1*%
%TO.N,Net-(U1-PD4)*%
X108000000Y-101825000D03*
%TO.P,R14,2*%
%TO.N,Net-(U5-e)*%
X108000000Y-100175000D03*
%TD*%
D27*
%TO.N,+12C*%
X106250000Y-111750000D03*
%TO.N,GND*%
X124250000Y-107000000D03*
D28*
X102500000Y-108250000D03*
D27*
X125750000Y-105500000D03*
D28*
X101500000Y-113750000D03*
D27*
X138750000Y-111500000D03*
X106000000Y-109250000D03*
X115750000Y-117000000D03*
%TO.N,+5C*%
X118500000Y-106100000D03*
X118550000Y-107700000D03*
%TO.N,/MOSI*%
X135250000Y-112500000D03*
%TO.N,Net-(J2-Pin_1)*%
X114325000Y-115000000D03*
%TO.N,/SCK*%
X131362500Y-107612500D03*
%TO.N,Net-(J3-Pin_5)*%
X125575000Y-104000000D03*
%TO.N,/MISO*%
X132250000Y-105250000D03*
%TO.N,Net-(R1-Pad1)*%
X120710000Y-116875000D03*
%TO.N,Net-(R3-Pad1)*%
X128270000Y-117250000D03*
%TO.N,Net-(R5-Pad1)*%
X136000000Y-117000000D03*
%TO.N,Net-(U1-PD0)*%
X110500000Y-88500000D03*
%TO.N,Net-(U1-PD1)*%
X122400000Y-100250000D03*
%TO.N,Net-(U1-PD2)*%
X117000000Y-102000000D03*
%TO.N,Net-(U1-PD3)*%
X111700000Y-102550000D03*
%TO.N,Net-(U1-PD4)*%
X117250000Y-104250000D03*
%TO.N,Net-(U1-PD5)*%
X119000000Y-111000000D03*
%TO.N,Net-(U1-PD6)*%
X121750000Y-109000000D03*
%TO.N,Net-(U1-PD7)*%
X113250000Y-103500000D03*
X121675000Y-107750000D03*
X115000000Y-105250000D03*
%TO.N,Net-(U1-PC3)*%
X124050000Y-99125000D03*
%TO.N,Net-(U1-PC2)*%
X118210000Y-91710000D03*
%TO.N,Net-(U1-PC0)*%
X120500000Y-81000000D03*
%TO.N,Net-(U1-PB7{slash}XTAL2)*%
X117100000Y-109800000D03*
%TO.N,Net-(U1-PC1)*%
X115750000Y-86000000D03*
%TO.N,Net-(U1-PB6{slash}XTAL1)*%
X116800000Y-108530331D03*
%TD*%
D29*
%TO.N,Net-(U1-PD7)*%
X121675000Y-107750000D02*
X120975000Y-108450000D01*
X120975000Y-108450000D02*
X118200000Y-108450000D01*
X118200000Y-108450000D02*
X115000000Y-105250000D01*
D30*
%TO.N,+12C*%
X97560000Y-106560000D02*
X97560000Y-106000000D01*
X102750000Y-111750000D02*
X97560000Y-106560000D01*
X106250000Y-111750000D02*
X102750000Y-111750000D01*
%TO.N,GND*%
X93750000Y-115500000D02*
X93750000Y-117250000D01*
D31*
X102500000Y-108250000D02*
X104195000Y-108250000D01*
X108670000Y-121750000D02*
X113250000Y-121750000D01*
D29*
X125750000Y-105500000D02*
X124250000Y-107000000D01*
D31*
X113250000Y-121750000D02*
X115750000Y-119250000D01*
D29*
X138750000Y-110765000D02*
X137540000Y-109555000D01*
D30*
X93750000Y-117250000D02*
X95000000Y-118500000D01*
D31*
X104195000Y-108250000D02*
X104445000Y-108500000D01*
X105420000Y-118500000D02*
X108670000Y-121750000D01*
D30*
X98550000Y-113950000D02*
X97000000Y-115500000D01*
X97000000Y-115500000D02*
X93750000Y-115500000D01*
X95000000Y-118500000D02*
X105420000Y-118500000D01*
D29*
X138750000Y-111500000D02*
X138750000Y-110765000D01*
D31*
X115750000Y-119250000D02*
X115750000Y-117000000D01*
X106000000Y-109250000D02*
X105195000Y-109250000D01*
D30*
X98550000Y-112100000D02*
X99850000Y-112100000D01*
X98550000Y-112100000D02*
X98550000Y-113950000D01*
X99850000Y-112100000D02*
X101500000Y-113750000D01*
D31*
X105195000Y-109250000D02*
X104445000Y-108500000D01*
D29*
%TO.N,+5C*%
X137540000Y-104475000D02*
X138475000Y-104475000D01*
D31*
X126500000Y-122250000D02*
X127000000Y-122250000D01*
X117960000Y-120000000D02*
X117960000Y-121460000D01*
X101985000Y-103500000D02*
X89000000Y-103500000D01*
D29*
X141000000Y-117750000D02*
X137000000Y-121750000D01*
D31*
X104445000Y-105960000D02*
X101985000Y-103500000D01*
D29*
X118550000Y-107700000D02*
X118500000Y-107650000D01*
D31*
X88000000Y-104500000D02*
X88000000Y-115000000D01*
X117960000Y-121460000D02*
X118750000Y-122250000D01*
D29*
X138475000Y-104475000D02*
X141000000Y-107000000D01*
X118500000Y-107650000D02*
X118500000Y-106100000D01*
D31*
X125730000Y-121480000D02*
X126500000Y-122250000D01*
X114960000Y-123000000D02*
X117960000Y-120000000D01*
X96000000Y-123000000D02*
X114960000Y-123000000D01*
D29*
X141000000Y-107000000D02*
X141000000Y-117750000D01*
D31*
X127000000Y-122250000D02*
X131270000Y-122250000D01*
X131270000Y-122250000D02*
X133500000Y-120020000D01*
D29*
X135230000Y-121750000D02*
X133500000Y-120020000D01*
D31*
X89000000Y-103500000D02*
X88000000Y-104500000D01*
D29*
X137000000Y-121750000D02*
X135230000Y-121750000D01*
D31*
X125730000Y-120020000D02*
X125730000Y-121480000D01*
X88000000Y-115000000D02*
X96000000Y-123000000D01*
X118750000Y-122250000D02*
X127000000Y-122250000D01*
D29*
%TO.N,/MOSI*%
X139265000Y-107015000D02*
X140000000Y-107750000D01*
X139500000Y-112500000D02*
X135250000Y-112500000D01*
X140000000Y-107750000D02*
X140000000Y-112000000D01*
X137540000Y-107015000D02*
X139265000Y-107015000D01*
X140000000Y-112000000D02*
X139500000Y-112500000D01*
D30*
%TO.N,Net-(D2-A)*%
X91950000Y-109200000D02*
X89940000Y-107190000D01*
X93750000Y-109200000D02*
X91950000Y-109200000D01*
X89940000Y-107190000D02*
X89940000Y-106000000D01*
D31*
%TO.N,Net-(J2-Pin_1)*%
X114325000Y-117175000D02*
X113000000Y-118500000D01*
X114325000Y-115000000D02*
X114325000Y-117175000D01*
X113000000Y-118500000D02*
X110500000Y-118500000D01*
D29*
%TO.N,/SCK*%
X131960000Y-107015000D02*
X135000000Y-107015000D01*
X131362500Y-107612500D02*
X131960000Y-107015000D01*
%TO.N,Net-(J3-Pin_5)*%
X126500000Y-104000000D02*
X132055000Y-109555000D01*
X132055000Y-109555000D02*
X135000000Y-109555000D01*
X125575000Y-104000000D02*
X126500000Y-104000000D01*
%TO.N,/MISO*%
X133025000Y-104475000D02*
X135000000Y-104475000D01*
X132250000Y-105250000D02*
X133025000Y-104475000D01*
D31*
%TO.N,Net-(R1-Pad1)*%
X120500000Y-117085000D02*
X120500000Y-120000000D01*
X120710000Y-116875000D02*
X120500000Y-117085000D01*
D29*
%TO.N,Net-(R3-Pad1)*%
X128270000Y-117250000D02*
X128270000Y-120020000D01*
%TO.N,Net-(R5-Pad1)*%
X136040000Y-117040000D02*
X136000000Y-117000000D01*
D31*
X136040000Y-120020000D02*
X136040000Y-117040000D01*
%TO.N,Net-(U5-a)*%
X110590000Y-84835000D02*
X110500000Y-84925000D01*
X110590000Y-83010000D02*
X110590000Y-84835000D01*
D29*
%TO.N,Net-(U1-PD0)*%
X110500000Y-86575000D02*
X110500000Y-88500000D01*
%TO.N,Net-(U1-PD1)*%
X124500000Y-100250000D02*
X125000000Y-99750000D01*
X122400000Y-100250000D02*
X124500000Y-100250000D01*
X125000000Y-99750000D02*
X125000000Y-90825000D01*
X125000000Y-90825000D02*
X120750000Y-86575000D01*
D31*
%TO.N,Net-(U5-b)*%
X120750000Y-83010000D02*
X120750000Y-84925000D01*
D29*
%TO.N,Net-(U1-PD2)*%
X117000000Y-102000000D02*
X116825000Y-101825000D01*
X116825000Y-101825000D02*
X115750000Y-101825000D01*
D31*
%TO.N,Net-(U5-c)*%
X115750000Y-100175000D02*
X115750000Y-98330000D01*
X115640000Y-98220000D02*
X115670000Y-98250000D01*
X115750000Y-98330000D02*
X115670000Y-98250000D01*
%TO.N,Net-(U5-d)*%
X110590000Y-100160000D02*
X110500000Y-100250000D01*
X110590000Y-98250000D02*
X110590000Y-100160000D01*
X110500000Y-98160000D02*
X110590000Y-98250000D01*
D29*
%TO.N,Net-(U1-PD3)*%
X111700000Y-102550000D02*
X111050000Y-101900000D01*
X111050000Y-101900000D02*
X110500000Y-101900000D01*
D31*
%TO.N,Net-(U5-e)*%
X107810000Y-98010000D02*
X108050000Y-98250000D01*
X108050000Y-100125000D02*
X108000000Y-100175000D01*
X108050000Y-98250000D02*
X108050000Y-100125000D01*
D29*
%TO.N,Net-(U1-PD4)*%
X117250000Y-104250000D02*
X110425000Y-104250000D01*
X110425000Y-104250000D02*
X108000000Y-101825000D01*
%TO.N,Net-(U1-PD5)*%
X113000000Y-86575000D02*
X113000000Y-92500000D01*
X107250000Y-96250000D02*
X106500000Y-97000000D01*
X106500000Y-102750000D02*
X114750000Y-111000000D01*
X114750000Y-111000000D02*
X119000000Y-111000000D01*
X109250000Y-96250000D02*
X107250000Y-96250000D01*
X106500000Y-97000000D02*
X106500000Y-102750000D01*
X113000000Y-92500000D02*
X109250000Y-96250000D01*
D31*
%TO.N,Net-(U5-f)*%
X113130000Y-84795000D02*
X113000000Y-84925000D01*
X113130000Y-83010000D02*
X113130000Y-84795000D01*
D29*
%TO.N,Net-(U1-PD6)*%
X121750000Y-109000000D02*
X122500000Y-108250000D01*
X119150000Y-101900000D02*
X118250000Y-101900000D01*
X122500000Y-105250000D02*
X119150000Y-101900000D01*
X122500000Y-108250000D02*
X122500000Y-105250000D01*
D31*
%TO.N,Net-(U5-g)*%
X118210000Y-98250000D02*
X118210000Y-100210000D01*
X118210000Y-100210000D02*
X118250000Y-100250000D01*
%TO.N,Net-(U5-DPX)*%
X113030000Y-98350000D02*
X113130000Y-98250000D01*
X113030000Y-100175000D02*
X113030000Y-98350000D01*
X113030000Y-98150000D02*
X113130000Y-98250000D01*
D29*
%TO.N,Net-(U1-PD7)*%
X113030000Y-103280000D02*
X113030000Y-101825000D01*
X113250000Y-103500000D02*
X113030000Y-103280000D01*
%TO.N,Net-(U1-PC3)*%
X124050000Y-99125000D02*
X123175000Y-98250000D01*
X123175000Y-98250000D02*
X120750000Y-98250000D01*
%TO.N,Net-(U1-PC2)*%
X118210000Y-91710000D02*
X118210000Y-83010000D01*
%TO.N,Net-(U1-PC0)*%
X110060000Y-81000000D02*
X108050000Y-83010000D01*
X120500000Y-81000000D02*
X110060000Y-81000000D01*
%TO.N,Net-(U1-PB7{slash}XTAL2)*%
X117100000Y-109800000D02*
X115350000Y-109800000D01*
X115350000Y-109800000D02*
X115300000Y-109750000D01*
%TO.N,Net-(U1-PC1)*%
X115750000Y-86000000D02*
X115750000Y-83090000D01*
X115750000Y-83090000D02*
X115670000Y-83010000D01*
%TO.N,Net-(U1-PB6{slash}XTAL1)*%
X116800000Y-108530331D02*
X115580331Y-108530331D01*
X115580331Y-108530331D02*
X115300000Y-108250000D01*
%TD*%
M02*
