%TF.GenerationSoftware,KiCad,Pcbnew,8.0.6*%
%TF.CreationDate,2024-11-25T15:37:35+03:30*%
%TF.ProjectId,AlarmClock,416c6172-6d43-46c6-9f63-6b2e6b696361,rev?*%
%TF.SameCoordinates,Original*%
%TF.FileFunction,Soldermask,Top*%
%TF.FilePolarity,Negative*%
%FSLAX46Y46*%
G04 Gerber Fmt 4.6, Leading zero omitted, Abs format (unit mm)*
G04 Created by KiCad (PCBNEW 8.0.6) date 2024-11-25 15:37:35*
%MOMM*%
%LPD*%
G01*
G04 APERTURE LIST*
G04 Aperture macros list*
%AMRoundRect*
0 Rectangle with rounded corners*
0 $1 Rounding radius*
0 $2 $3 $4 $5 $6 $7 $8 $9 X,Y pos of 4 corners*
0 Add a 4 corners polygon primitive as box body*
4,1,4,$2,$3,$4,$5,$6,$7,$8,$9,$2,$3,0*
0 Add four circle primitives for the rounded corners*
1,1,$1+$1,$2,$3*
1,1,$1+$1,$4,$5*
1,1,$1+$1,$6,$7*
1,1,$1+$1,$8,$9*
0 Add four rect primitives between the rounded corners*
20,1,$1+$1,$2,$3,$4,$5,0*
20,1,$1+$1,$4,$5,$6,$7,0*
20,1,$1+$1,$6,$7,$8,$9,0*
20,1,$1+$1,$8,$9,$2,$3,0*%
G04 Aperture macros list end*
%ADD10R,1.700000X1.700000*%
%ADD11O,1.700000X1.700000*%
%ADD12R,4.600000X2.000000*%
%ADD13O,4.200000X2.000000*%
%ADD14O,2.000000X4.200000*%
%ADD15RoundRect,0.225000X-0.250000X0.225000X-0.250000X-0.225000X0.250000X-0.225000X0.250000X0.225000X0*%
%ADD16RoundRect,0.200000X-0.275000X0.200000X-0.275000X-0.200000X0.275000X-0.200000X0.275000X0.200000X0*%
%ADD17R,1.600000X1.600000*%
%ADD18O,1.600000X1.600000*%
%ADD19RoundRect,0.250000X-0.620000X-0.845000X0.620000X-0.845000X0.620000X0.845000X-0.620000X0.845000X0*%
%ADD20O,1.740000X2.190000*%
%ADD21C,3.200000*%
%ADD22RoundRect,0.200000X0.200000X0.275000X-0.200000X0.275000X-0.200000X-0.275000X0.200000X-0.275000X0*%
%ADD23R,1.500000X1.500000*%
%ADD24C,1.500000*%
%ADD25RoundRect,0.250000X0.650000X1.550000X-0.650000X1.550000X-0.650000X-1.550000X0.650000X-1.550000X0*%
%ADD26O,1.800000X3.600000*%
%ADD27RoundRect,0.225000X0.250000X-0.225000X0.250000X0.225000X-0.250000X0.225000X-0.250000X-0.225000X0*%
%ADD28RoundRect,0.218750X-0.256250X0.218750X-0.256250X-0.218750X0.256250X-0.218750X0.256250X0.218750X0*%
%ADD29C,1.000000*%
%ADD30RoundRect,0.243750X0.243750X0.456250X-0.243750X0.456250X-0.243750X-0.456250X0.243750X-0.456250X0*%
%ADD31R,1.600000X0.550000*%
%ADD32R,0.550000X1.600000*%
%ADD33R,2.000000X1.905000*%
%ADD34O,2.000000X1.905000*%
G04 APERTURE END LIST*
D10*
%TO.C,J3*%
X135000000Y-104475000D03*
D11*
X137540000Y-104475000D03*
X135000000Y-107015000D03*
X137540000Y-107015000D03*
X135000000Y-109555000D03*
X137540000Y-109555000D03*
%TD*%
D12*
%TO.C,J1*%
X93750000Y-109200000D03*
D13*
X93750000Y-115500000D03*
D14*
X98550000Y-112100000D03*
%TD*%
D15*
%TO.C,C5*%
X133000000Y-113725000D03*
X133000000Y-115275000D03*
%TD*%
D16*
%TO.C,R7*%
X109250000Y-109100000D03*
X109250000Y-110750000D03*
%TD*%
D17*
%TO.C,D2*%
X97560000Y-106000000D03*
D18*
X89940000Y-106000000D03*
%TD*%
D19*
%TO.C,SW1*%
X117960000Y-120000000D03*
D20*
X120500000Y-120000000D03*
%TD*%
D21*
%TO.C,REF\u002A\u002A*%
X144250000Y-84500000D03*
%TD*%
D22*
%TO.C,R2*%
X119060000Y-115350000D03*
X120710000Y-115350000D03*
%TD*%
%TO.C,R4*%
X126800000Y-113725000D03*
X128450000Y-113725000D03*
%TD*%
D23*
%TO.C,U5*%
X108050000Y-98250000D03*
D24*
X110590000Y-98250000D03*
X113130000Y-98250000D03*
X115670000Y-98250000D03*
X118210000Y-98250000D03*
X120750000Y-98250000D03*
X120750000Y-83010000D03*
X118210000Y-83010000D03*
X115670000Y-83010000D03*
X113130000Y-83010000D03*
X110590000Y-83010000D03*
X108050000Y-83010000D03*
%TD*%
D21*
%TO.C,REF\u002A\u002A*%
X84500000Y-120500000D03*
%TD*%
D25*
%TO.C,J2*%
X110500000Y-118500000D03*
D26*
X105420000Y-118500000D03*
%TD*%
D22*
%TO.C,R1*%
X119060000Y-113725000D03*
X120710000Y-113725000D03*
%TD*%
D21*
%TO.C,REF\u002A\u002A*%
X144250000Y-120500000D03*
%TD*%
D15*
%TO.C,C3*%
X117460000Y-115275000D03*
X117460000Y-113725000D03*
%TD*%
D27*
%TO.C,C1*%
X107250000Y-110730000D03*
X107250000Y-109180000D03*
%TD*%
D21*
%TO.C,REF\u002A\u002A*%
X84500000Y-84500000D03*
%TD*%
D22*
%TO.C,R5*%
X136150000Y-115300000D03*
X134500000Y-115300000D03*
%TD*%
%TO.C,R9*%
X114325000Y-113750000D03*
X112675000Y-113750000D03*
%TD*%
%TO.C,R3*%
X126800000Y-115305000D03*
X128450000Y-115305000D03*
%TD*%
D15*
%TO.C,C2*%
X107250000Y-105760000D03*
X107250000Y-107310000D03*
%TD*%
D28*
%TO.C,D3*%
X109250000Y-105712500D03*
X109250000Y-107287500D03*
%TD*%
D15*
%TO.C,C4*%
X125300000Y-115275000D03*
X125300000Y-113725000D03*
%TD*%
D19*
%TO.C,SW2*%
X125730000Y-120020000D03*
D20*
X128270000Y-120020000D03*
%TD*%
D29*
%TO.C,Y1*%
X115600000Y-109750000D03*
X115600000Y-108250000D03*
%TD*%
D30*
%TO.C,D1*%
X114250000Y-111750000D03*
X112375000Y-111750000D03*
%TD*%
D19*
%TO.C,SW3*%
X133500000Y-120020000D03*
D20*
X136040000Y-120020000D03*
%TD*%
D22*
%TO.C,R6*%
X136150000Y-113750000D03*
X134500000Y-113750000D03*
%TD*%
D31*
%TO.C,U1*%
X120100000Y-103700000D03*
X120100000Y-104500000D03*
X120100000Y-105300000D03*
X120100000Y-106100000D03*
X120100000Y-106900000D03*
X120100000Y-107700000D03*
X120100000Y-108500000D03*
X120100000Y-109300000D03*
D32*
X121550000Y-110750000D03*
X122350000Y-110750000D03*
X123150000Y-110750000D03*
X123950000Y-110750000D03*
X124750000Y-110750000D03*
X125550000Y-110750000D03*
X126350000Y-110750000D03*
X127150000Y-110750000D03*
D31*
X128600000Y-109300000D03*
X128600000Y-108500000D03*
X128600000Y-107700000D03*
X128600000Y-106900000D03*
X128600000Y-106100000D03*
X128600000Y-105300000D03*
X128600000Y-104500000D03*
X128600000Y-103700000D03*
D32*
X127150000Y-102250000D03*
X126350000Y-102250000D03*
X125550000Y-102250000D03*
X124750000Y-102250000D03*
X123950000Y-102250000D03*
X123150000Y-102250000D03*
X122350000Y-102250000D03*
X121550000Y-102250000D03*
%TD*%
D33*
%TO.C,U2*%
X104445000Y-111040000D03*
D34*
X104445000Y-108500000D03*
X104445000Y-105960000D03*
%TD*%
M02*
