%TF.GenerationSoftware,KiCad,Pcbnew,8.0.6*%
%TF.CreationDate,2024-11-25T15:37:35+03:30*%
%TF.ProjectId,AlarmClock,416c6172-6d43-46c6-9f63-6b2e6b696361,rev?*%
%TF.SameCoordinates,Original*%
%TF.FileFunction,Paste,Top*%
%TF.FilePolarity,Positive*%
%FSLAX46Y46*%
G04 Gerber Fmt 4.6, Leading zero omitted, Abs format (unit mm)*
G04 Created by KiCad (PCBNEW 8.0.6) date 2024-11-25 15:37:35*
%MOMM*%
%LPD*%
G01*
G04 APERTURE LIST*
G04 Aperture macros list*
%AMRoundRect*
0 Rectangle with rounded corners*
0 $1 Rounding radius*
0 $2 $3 $4 $5 $6 $7 $8 $9 X,Y pos of 4 corners*
0 Add a 4 corners polygon primitive as box body*
4,1,4,$2,$3,$4,$5,$6,$7,$8,$9,$2,$3,0*
0 Add four circle primitives for the rounded corners*
1,1,$1+$1,$2,$3*
1,1,$1+$1,$4,$5*
1,1,$1+$1,$6,$7*
1,1,$1+$1,$8,$9*
0 Add four rect primitives between the rounded corners*
20,1,$1+$1,$2,$3,$4,$5,0*
20,1,$1+$1,$4,$5,$6,$7,0*
20,1,$1+$1,$6,$7,$8,$9,0*
20,1,$1+$1,$8,$9,$2,$3,0*%
G04 Aperture macros list end*
%ADD10RoundRect,0.225000X-0.250000X0.225000X-0.250000X-0.225000X0.250000X-0.225000X0.250000X0.225000X0*%
%ADD11RoundRect,0.200000X-0.275000X0.200000X-0.275000X-0.200000X0.275000X-0.200000X0.275000X0.200000X0*%
%ADD12RoundRect,0.200000X0.200000X0.275000X-0.200000X0.275000X-0.200000X-0.275000X0.200000X-0.275000X0*%
%ADD13RoundRect,0.225000X0.250000X-0.225000X0.250000X0.225000X-0.250000X0.225000X-0.250000X-0.225000X0*%
%ADD14RoundRect,0.218750X-0.256250X0.218750X-0.256250X-0.218750X0.256250X-0.218750X0.256250X0.218750X0*%
%ADD15RoundRect,0.243750X0.243750X0.456250X-0.243750X0.456250X-0.243750X-0.456250X0.243750X-0.456250X0*%
%ADD16R,1.600000X0.550000*%
%ADD17R,0.550000X1.600000*%
G04 APERTURE END LIST*
D10*
%TO.C,C5*%
X133000000Y-113725000D03*
X133000000Y-115275000D03*
%TD*%
D11*
%TO.C,R7*%
X109250000Y-109100000D03*
X109250000Y-110750000D03*
%TD*%
D12*
%TO.C,R2*%
X119060000Y-115350000D03*
X120710000Y-115350000D03*
%TD*%
%TO.C,R4*%
X126800000Y-113725000D03*
X128450000Y-113725000D03*
%TD*%
%TO.C,R1*%
X119060000Y-113725000D03*
X120710000Y-113725000D03*
%TD*%
D10*
%TO.C,C3*%
X117460000Y-115275000D03*
X117460000Y-113725000D03*
%TD*%
D13*
%TO.C,C1*%
X107250000Y-110730000D03*
X107250000Y-109180000D03*
%TD*%
D12*
%TO.C,R5*%
X136150000Y-115300000D03*
X134500000Y-115300000D03*
%TD*%
%TO.C,R9*%
X114325000Y-113750000D03*
X112675000Y-113750000D03*
%TD*%
%TO.C,R3*%
X126800000Y-115305000D03*
X128450000Y-115305000D03*
%TD*%
D10*
%TO.C,C2*%
X107250000Y-105760000D03*
X107250000Y-107310000D03*
%TD*%
D14*
%TO.C,D3*%
X109250000Y-105712500D03*
X109250000Y-107287500D03*
%TD*%
D10*
%TO.C,C4*%
X125300000Y-115275000D03*
X125300000Y-113725000D03*
%TD*%
D15*
%TO.C,D1*%
X114250000Y-111750000D03*
X112375000Y-111750000D03*
%TD*%
D12*
%TO.C,R6*%
X136150000Y-113750000D03*
X134500000Y-113750000D03*
%TD*%
D16*
%TO.C,U1*%
X120100000Y-103700000D03*
X120100000Y-104500000D03*
X120100000Y-105300000D03*
X120100000Y-106100000D03*
X120100000Y-106900000D03*
X120100000Y-107700000D03*
X120100000Y-108500000D03*
X120100000Y-109300000D03*
D17*
X121550000Y-110750000D03*
X122350000Y-110750000D03*
X123150000Y-110750000D03*
X123950000Y-110750000D03*
X124750000Y-110750000D03*
X125550000Y-110750000D03*
X126350000Y-110750000D03*
X127150000Y-110750000D03*
D16*
X128600000Y-109300000D03*
X128600000Y-108500000D03*
X128600000Y-107700000D03*
X128600000Y-106900000D03*
X128600000Y-106100000D03*
X128600000Y-105300000D03*
X128600000Y-104500000D03*
X128600000Y-103700000D03*
D17*
X127150000Y-102250000D03*
X126350000Y-102250000D03*
X125550000Y-102250000D03*
X124750000Y-102250000D03*
X123950000Y-102250000D03*
X123150000Y-102250000D03*
X122350000Y-102250000D03*
X121550000Y-102250000D03*
%TD*%
M02*
