%TF.GenerationSoftware,KiCad,Pcbnew,8.0.6*%
%TF.CreationDate,2024-11-25T15:37:35+03:30*%
%TF.ProjectId,AlarmClock,416c6172-6d43-46c6-9f63-6b2e6b696361,rev?*%
%TF.SameCoordinates,Original*%
%TF.FileFunction,Soldermask,Bot*%
%TF.FilePolarity,Negative*%
%FSLAX46Y46*%
G04 Gerber Fmt 4.6, Leading zero omitted, Abs format (unit mm)*
G04 Created by KiCad (PCBNEW 8.0.6) date 2024-11-25 15:37:35*
%MOMM*%
%LPD*%
G01*
G04 APERTURE LIST*
G04 Aperture macros list*
%AMRoundRect*
0 Rectangle with rounded corners*
0 $1 Rounding radius*
0 $2 $3 $4 $5 $6 $7 $8 $9 X,Y pos of 4 corners*
0 Add a 4 corners polygon primitive as box body*
4,1,4,$2,$3,$4,$5,$6,$7,$8,$9,$2,$3,0*
0 Add four circle primitives for the rounded corners*
1,1,$1+$1,$2,$3*
1,1,$1+$1,$4,$5*
1,1,$1+$1,$6,$7*
1,1,$1+$1,$8,$9*
0 Add four rect primitives between the rounded corners*
20,1,$1+$1,$2,$3,$4,$5,0*
20,1,$1+$1,$4,$5,$6,$7,0*
20,1,$1+$1,$6,$7,$8,$9,0*
20,1,$1+$1,$8,$9,$2,$3,0*%
G04 Aperture macros list end*
%ADD10R,1.700000X1.700000*%
%ADD11O,1.700000X1.700000*%
%ADD12R,4.600000X2.000000*%
%ADD13O,4.200000X2.000000*%
%ADD14O,2.000000X4.200000*%
%ADD15R,1.600000X1.600000*%
%ADD16O,1.600000X1.600000*%
%ADD17RoundRect,0.250000X-0.620000X-0.845000X0.620000X-0.845000X0.620000X0.845000X-0.620000X0.845000X0*%
%ADD18O,1.740000X2.190000*%
%ADD19C,3.200000*%
%ADD20R,1.500000X1.500000*%
%ADD21C,1.500000*%
%ADD22RoundRect,0.250000X0.650000X1.550000X-0.650000X1.550000X-0.650000X-1.550000X0.650000X-1.550000X0*%
%ADD23O,1.800000X3.600000*%
%ADD24C,1.000000*%
%ADD25R,2.000000X1.905000*%
%ADD26O,2.000000X1.905000*%
%ADD27RoundRect,0.200000X0.275000X-0.200000X0.275000X0.200000X-0.275000X0.200000X-0.275000X-0.200000X0*%
G04 APERTURE END LIST*
D10*
%TO.C,J3*%
X135000000Y-104475000D03*
D11*
X137540000Y-104475000D03*
X135000000Y-107015000D03*
X137540000Y-107015000D03*
X135000000Y-109555000D03*
X137540000Y-109555000D03*
%TD*%
D12*
%TO.C,J1*%
X93750000Y-109200000D03*
D13*
X93750000Y-115500000D03*
D14*
X98550000Y-112100000D03*
%TD*%
D15*
%TO.C,D2*%
X97560000Y-106000000D03*
D16*
X89940000Y-106000000D03*
%TD*%
D17*
%TO.C,SW1*%
X117960000Y-120000000D03*
D18*
X120500000Y-120000000D03*
%TD*%
D19*
%TO.C,REF\u002A\u002A*%
X144250000Y-84500000D03*
%TD*%
D20*
%TO.C,U5*%
X108050000Y-98250000D03*
D21*
X110590000Y-98250000D03*
X113130000Y-98250000D03*
X115670000Y-98250000D03*
X118210000Y-98250000D03*
X120750000Y-98250000D03*
X120750000Y-83010000D03*
X118210000Y-83010000D03*
X115670000Y-83010000D03*
X113130000Y-83010000D03*
X110590000Y-83010000D03*
X108050000Y-83010000D03*
%TD*%
D19*
%TO.C,REF\u002A\u002A*%
X84500000Y-120500000D03*
%TD*%
D22*
%TO.C,J2*%
X110500000Y-118500000D03*
D23*
X105420000Y-118500000D03*
%TD*%
D19*
%TO.C,REF\u002A\u002A*%
X144250000Y-120500000D03*
%TD*%
%TO.C,REF\u002A\u002A*%
X84500000Y-84500000D03*
%TD*%
D17*
%TO.C,SW2*%
X125730000Y-120020000D03*
D18*
X128270000Y-120020000D03*
%TD*%
D24*
%TO.C,Y1*%
X115600000Y-109750000D03*
X115600000Y-108250000D03*
%TD*%
D17*
%TO.C,SW3*%
X133500000Y-120020000D03*
D18*
X136040000Y-120020000D03*
%TD*%
D25*
%TO.C,U2*%
X104445000Y-111040000D03*
D26*
X104445000Y-108500000D03*
X104445000Y-105960000D03*
%TD*%
D27*
%TO.C,R10*%
X110500000Y-86575000D03*
X110500000Y-84925000D03*
%TD*%
%TO.C,R16*%
X118250000Y-100250000D03*
X118250000Y-101900000D03*
%TD*%
%TO.C,R13*%
X110500000Y-101900000D03*
X110500000Y-100250000D03*
%TD*%
%TO.C,R15*%
X113000000Y-86575000D03*
X113000000Y-84925000D03*
%TD*%
%TO.C,R12*%
X115750000Y-100250000D03*
X115750000Y-101900000D03*
%TD*%
%TO.C,R11*%
X120750000Y-86575000D03*
X120750000Y-84925000D03*
%TD*%
%TO.C,R17*%
X113030000Y-101900000D03*
X113030000Y-100250000D03*
%TD*%
%TO.C,R14*%
X108000000Y-101825000D03*
X108000000Y-100175000D03*
%TD*%
M02*
