M48
; DRILL file {KiCad 8.0.6} date 2024-11-25T15:37:44+0330
; FORMAT={-:-/ absolute / metric / decimal}
; #@! TF.CreationDate,2024-11-25T15:37:44+03:30
; #@! TF.GenerationSoftware,Kicad,Pcbnew,8.0.6
; #@! TF.FileFunction,Plated,1,2,PTH
FMAT,2
METRIC
; #@! TA.AperFunction,Plated,PTH,ViaDrill
T1C0.300
; #@! TA.AperFunction,Plated,PTH,ViaDrill
T2C0.500
; #@! TA.AperFunction,Plated,PTH,ComponentDrill
T3C0.500
; #@! TA.AperFunction,Plated,PTH,ComponentDrill
T4C0.800
; #@! TA.AperFunction,Plated,PTH,ComponentDrill
T5C1.000
; #@! TA.AperFunction,Plated,PTH,ComponentDrill
T6C1.100
; #@! TA.AperFunction,Plated,PTH,ComponentDrill
T7C1.190
; #@! TA.AperFunction,Plated,PTH,ComponentDrill
T8C1.200
%
G90
G05
T1
X106.0Y-109.25
X106.25Y-111.75
X110.5Y-88.5
X111.7Y-102.55
X113.25Y-103.5
X114.325Y-115.0
X115.0Y-105.25
X115.75Y-86.0
X115.75Y-117.0
X116.8Y-108.53
X117.0Y-102.0
X117.1Y-109.8
X117.25Y-104.25
X118.21Y-91.71
X118.5Y-106.1
X118.55Y-107.7
X119.0Y-111.0
X120.5Y-81.0
X120.71Y-116.875
X121.675Y-107.75
X121.75Y-109.0
X122.4Y-100.25
X124.05Y-99.125
X124.25Y-107.0
X125.575Y-104.0
X125.75Y-105.5
X128.27Y-117.25
X131.362Y-107.612
X132.25Y-105.25
X135.25Y-112.5
X136.0Y-117.0
X138.75Y-111.5
T2
X101.5Y-113.75
X102.5Y-108.25
T3
X115.6Y-108.25
X115.6Y-109.75
T4
X89.94Y-106.0
X97.56Y-106.0
T5
X108.05Y-83.01
X108.05Y-98.25
X110.59Y-83.01
X110.59Y-98.25
X113.13Y-83.01
X113.13Y-98.25
X115.67Y-83.01
X115.67Y-98.25
X118.21Y-83.01
X118.21Y-98.25
X120.75Y-83.01
X120.75Y-98.25
X135.0Y-104.475
X135.0Y-107.015
X135.0Y-109.555
X137.54Y-104.475
X137.54Y-107.015
X137.54Y-109.555
T6
X104.445Y-105.96
X104.445Y-108.5
X104.445Y-111.04
T7
X117.96Y-120.0
X120.5Y-120.0
X125.73Y-120.02
X128.27Y-120.02
X133.5Y-120.02
X136.04Y-120.02
T8
X105.42Y-118.5
X110.5Y-118.5
T5
G00X92.45Y-109.2
M15
G01X95.05Y-109.2
M16
G05
G00X92.65Y-115.5
M15
G01X94.85Y-115.5
M16
G05
G00X98.55Y-111.0
M15
G01X98.55Y-113.2
M16
G05
M30
