%TF.GenerationSoftware,KiCad,Pcbnew,9.0.0*%
%TF.CreationDate,2025-04-13T20:44:06+03:30*%
%TF.ProjectId,DotMatrix,446f744d-6174-4726-9978-2e6b69636164,rev?*%
%TF.SameCoordinates,Original*%
%TF.FileFunction,AssemblyDrawing,Bot*%
%FSLAX46Y46*%
G04 Gerber Fmt 4.6, Leading zero omitted, Abs format (unit mm)*
G04 Created by KiCad (PCBNEW 9.0.0) date 2025-04-13 20:44:06*
%MOMM*%
%LPD*%
G01*
G04 APERTURE LIST*
%ADD10C,0.060000*%
%ADD11C,0.100000*%
G04 APERTURE END LIST*
D10*
X129681927Y-118633333D02*
X129491451Y-118500000D01*
X129681927Y-118404762D02*
X129281927Y-118404762D01*
X129281927Y-118404762D02*
X129281927Y-118557143D01*
X129281927Y-118557143D02*
X129300975Y-118595238D01*
X129300975Y-118595238D02*
X129320022Y-118614285D01*
X129320022Y-118614285D02*
X129358118Y-118633333D01*
X129358118Y-118633333D02*
X129415260Y-118633333D01*
X129415260Y-118633333D02*
X129453356Y-118614285D01*
X129453356Y-118614285D02*
X129472403Y-118595238D01*
X129472403Y-118595238D02*
X129491451Y-118557143D01*
X129491451Y-118557143D02*
X129491451Y-118404762D01*
X129415260Y-118976190D02*
X129681927Y-118976190D01*
X129262880Y-118880952D02*
X129548594Y-118785714D01*
X129548594Y-118785714D02*
X129548594Y-119033333D01*
X148181927Y-71742857D02*
X147991451Y-71609524D01*
X148181927Y-71514286D02*
X147781927Y-71514286D01*
X147781927Y-71514286D02*
X147781927Y-71666667D01*
X147781927Y-71666667D02*
X147800975Y-71704762D01*
X147800975Y-71704762D02*
X147820022Y-71723809D01*
X147820022Y-71723809D02*
X147858118Y-71742857D01*
X147858118Y-71742857D02*
X147915260Y-71742857D01*
X147915260Y-71742857D02*
X147953356Y-71723809D01*
X147953356Y-71723809D02*
X147972403Y-71704762D01*
X147972403Y-71704762D02*
X147991451Y-71666667D01*
X147991451Y-71666667D02*
X147991451Y-71514286D01*
X148181927Y-72123809D02*
X148181927Y-71895238D01*
X148181927Y-72009524D02*
X147781927Y-72009524D01*
X147781927Y-72009524D02*
X147839070Y-71971428D01*
X147839070Y-71971428D02*
X147877165Y-71933333D01*
X147877165Y-71933333D02*
X147896213Y-71895238D01*
X147915260Y-72466666D02*
X148181927Y-72466666D01*
X147762880Y-72371428D02*
X148048594Y-72276190D01*
X148048594Y-72276190D02*
X148048594Y-72523809D01*
X129681927Y-71933333D02*
X129491451Y-71800000D01*
X129681927Y-71704762D02*
X129281927Y-71704762D01*
X129281927Y-71704762D02*
X129281927Y-71857143D01*
X129281927Y-71857143D02*
X129300975Y-71895238D01*
X129300975Y-71895238D02*
X129320022Y-71914285D01*
X129320022Y-71914285D02*
X129358118Y-71933333D01*
X129358118Y-71933333D02*
X129415260Y-71933333D01*
X129415260Y-71933333D02*
X129453356Y-71914285D01*
X129453356Y-71914285D02*
X129472403Y-71895238D01*
X129472403Y-71895238D02*
X129491451Y-71857143D01*
X129491451Y-71857143D02*
X129491451Y-71704762D01*
X129453356Y-72161904D02*
X129434308Y-72123809D01*
X129434308Y-72123809D02*
X129415260Y-72104762D01*
X129415260Y-72104762D02*
X129377165Y-72085714D01*
X129377165Y-72085714D02*
X129358118Y-72085714D01*
X129358118Y-72085714D02*
X129320022Y-72104762D01*
X129320022Y-72104762D02*
X129300975Y-72123809D01*
X129300975Y-72123809D02*
X129281927Y-72161904D01*
X129281927Y-72161904D02*
X129281927Y-72238095D01*
X129281927Y-72238095D02*
X129300975Y-72276190D01*
X129300975Y-72276190D02*
X129320022Y-72295238D01*
X129320022Y-72295238D02*
X129358118Y-72314285D01*
X129358118Y-72314285D02*
X129377165Y-72314285D01*
X129377165Y-72314285D02*
X129415260Y-72295238D01*
X129415260Y-72295238D02*
X129434308Y-72276190D01*
X129434308Y-72276190D02*
X129453356Y-72238095D01*
X129453356Y-72238095D02*
X129453356Y-72161904D01*
X129453356Y-72161904D02*
X129472403Y-72123809D01*
X129472403Y-72123809D02*
X129491451Y-72104762D01*
X129491451Y-72104762D02*
X129529546Y-72085714D01*
X129529546Y-72085714D02*
X129605737Y-72085714D01*
X129605737Y-72085714D02*
X129643832Y-72104762D01*
X129643832Y-72104762D02*
X129662880Y-72123809D01*
X129662880Y-72123809D02*
X129681927Y-72161904D01*
X129681927Y-72161904D02*
X129681927Y-72238095D01*
X129681927Y-72238095D02*
X129662880Y-72276190D01*
X129662880Y-72276190D02*
X129643832Y-72295238D01*
X129643832Y-72295238D02*
X129605737Y-72314285D01*
X129605737Y-72314285D02*
X129529546Y-72314285D01*
X129529546Y-72314285D02*
X129491451Y-72295238D01*
X129491451Y-72295238D02*
X129472403Y-72276190D01*
X129472403Y-72276190D02*
X129453356Y-72238095D01*
X144581927Y-118633333D02*
X144391451Y-118500000D01*
X144581927Y-118404762D02*
X144181927Y-118404762D01*
X144181927Y-118404762D02*
X144181927Y-118557143D01*
X144181927Y-118557143D02*
X144200975Y-118595238D01*
X144200975Y-118595238D02*
X144220022Y-118614285D01*
X144220022Y-118614285D02*
X144258118Y-118633333D01*
X144258118Y-118633333D02*
X144315260Y-118633333D01*
X144315260Y-118633333D02*
X144353356Y-118614285D01*
X144353356Y-118614285D02*
X144372403Y-118595238D01*
X144372403Y-118595238D02*
X144391451Y-118557143D01*
X144391451Y-118557143D02*
X144391451Y-118404762D01*
X144220022Y-118785714D02*
X144200975Y-118804762D01*
X144200975Y-118804762D02*
X144181927Y-118842857D01*
X144181927Y-118842857D02*
X144181927Y-118938095D01*
X144181927Y-118938095D02*
X144200975Y-118976190D01*
X144200975Y-118976190D02*
X144220022Y-118995238D01*
X144220022Y-118995238D02*
X144258118Y-119014285D01*
X144258118Y-119014285D02*
X144296213Y-119014285D01*
X144296213Y-119014285D02*
X144353356Y-118995238D01*
X144353356Y-118995238D02*
X144581927Y-118766666D01*
X144581927Y-118766666D02*
X144581927Y-119014285D01*
X152081927Y-118633333D02*
X151891451Y-118500000D01*
X152081927Y-118404762D02*
X151681927Y-118404762D01*
X151681927Y-118404762D02*
X151681927Y-118557143D01*
X151681927Y-118557143D02*
X151700975Y-118595238D01*
X151700975Y-118595238D02*
X151720022Y-118614285D01*
X151720022Y-118614285D02*
X151758118Y-118633333D01*
X151758118Y-118633333D02*
X151815260Y-118633333D01*
X151815260Y-118633333D02*
X151853356Y-118614285D01*
X151853356Y-118614285D02*
X151872403Y-118595238D01*
X151872403Y-118595238D02*
X151891451Y-118557143D01*
X151891451Y-118557143D02*
X151891451Y-118404762D01*
X152081927Y-119014285D02*
X152081927Y-118785714D01*
X152081927Y-118900000D02*
X151681927Y-118900000D01*
X151681927Y-118900000D02*
X151739070Y-118861904D01*
X151739070Y-118861904D02*
X151777165Y-118823809D01*
X151777165Y-118823809D02*
X151796213Y-118785714D01*
X136931927Y-71933333D02*
X136741451Y-71800000D01*
X136931927Y-71704762D02*
X136531927Y-71704762D01*
X136531927Y-71704762D02*
X136531927Y-71857143D01*
X136531927Y-71857143D02*
X136550975Y-71895238D01*
X136550975Y-71895238D02*
X136570022Y-71914285D01*
X136570022Y-71914285D02*
X136608118Y-71933333D01*
X136608118Y-71933333D02*
X136665260Y-71933333D01*
X136665260Y-71933333D02*
X136703356Y-71914285D01*
X136703356Y-71914285D02*
X136722403Y-71895238D01*
X136722403Y-71895238D02*
X136741451Y-71857143D01*
X136741451Y-71857143D02*
X136741451Y-71704762D01*
X136531927Y-72066666D02*
X136531927Y-72333333D01*
X136531927Y-72333333D02*
X136931927Y-72161904D01*
X137081927Y-118633333D02*
X136891451Y-118500000D01*
X137081927Y-118404762D02*
X136681927Y-118404762D01*
X136681927Y-118404762D02*
X136681927Y-118557143D01*
X136681927Y-118557143D02*
X136700975Y-118595238D01*
X136700975Y-118595238D02*
X136720022Y-118614285D01*
X136720022Y-118614285D02*
X136758118Y-118633333D01*
X136758118Y-118633333D02*
X136815260Y-118633333D01*
X136815260Y-118633333D02*
X136853356Y-118614285D01*
X136853356Y-118614285D02*
X136872403Y-118595238D01*
X136872403Y-118595238D02*
X136891451Y-118557143D01*
X136891451Y-118557143D02*
X136891451Y-118404762D01*
X136681927Y-118766666D02*
X136681927Y-119014285D01*
X136681927Y-119014285D02*
X136834308Y-118880952D01*
X136834308Y-118880952D02*
X136834308Y-118938095D01*
X136834308Y-118938095D02*
X136853356Y-118976190D01*
X136853356Y-118976190D02*
X136872403Y-118995238D01*
X136872403Y-118995238D02*
X136910499Y-119014285D01*
X136910499Y-119014285D02*
X137005737Y-119014285D01*
X137005737Y-119014285D02*
X137043832Y-118995238D01*
X137043832Y-118995238D02*
X137062880Y-118976190D01*
X137062880Y-118976190D02*
X137081927Y-118938095D01*
X137081927Y-118938095D02*
X137081927Y-118823809D01*
X137081927Y-118823809D02*
X137062880Y-118785714D01*
X137062880Y-118785714D02*
X137043832Y-118766666D01*
X145181927Y-71933333D02*
X144991451Y-71800000D01*
X145181927Y-71704762D02*
X144781927Y-71704762D01*
X144781927Y-71704762D02*
X144781927Y-71857143D01*
X144781927Y-71857143D02*
X144800975Y-71895238D01*
X144800975Y-71895238D02*
X144820022Y-71914285D01*
X144820022Y-71914285D02*
X144858118Y-71933333D01*
X144858118Y-71933333D02*
X144915260Y-71933333D01*
X144915260Y-71933333D02*
X144953356Y-71914285D01*
X144953356Y-71914285D02*
X144972403Y-71895238D01*
X144972403Y-71895238D02*
X144991451Y-71857143D01*
X144991451Y-71857143D02*
X144991451Y-71704762D01*
X144781927Y-72276190D02*
X144781927Y-72200000D01*
X144781927Y-72200000D02*
X144800975Y-72161904D01*
X144800975Y-72161904D02*
X144820022Y-72142857D01*
X144820022Y-72142857D02*
X144877165Y-72104762D01*
X144877165Y-72104762D02*
X144953356Y-72085714D01*
X144953356Y-72085714D02*
X145105737Y-72085714D01*
X145105737Y-72085714D02*
X145143832Y-72104762D01*
X145143832Y-72104762D02*
X145162880Y-72123809D01*
X145162880Y-72123809D02*
X145181927Y-72161904D01*
X145181927Y-72161904D02*
X145181927Y-72238095D01*
X145181927Y-72238095D02*
X145162880Y-72276190D01*
X145162880Y-72276190D02*
X145143832Y-72295238D01*
X145143832Y-72295238D02*
X145105737Y-72314285D01*
X145105737Y-72314285D02*
X145010499Y-72314285D01*
X145010499Y-72314285D02*
X144972403Y-72295238D01*
X144972403Y-72295238D02*
X144953356Y-72276190D01*
X144953356Y-72276190D02*
X144934308Y-72238095D01*
X144934308Y-72238095D02*
X144934308Y-72161904D01*
X144934308Y-72161904D02*
X144953356Y-72123809D01*
X144953356Y-72123809D02*
X144972403Y-72104762D01*
X144972403Y-72104762D02*
X145010499Y-72085714D01*
X132681927Y-71742857D02*
X132491451Y-71609524D01*
X132681927Y-71514286D02*
X132281927Y-71514286D01*
X132281927Y-71514286D02*
X132281927Y-71666667D01*
X132281927Y-71666667D02*
X132300975Y-71704762D01*
X132300975Y-71704762D02*
X132320022Y-71723809D01*
X132320022Y-71723809D02*
X132358118Y-71742857D01*
X132358118Y-71742857D02*
X132415260Y-71742857D01*
X132415260Y-71742857D02*
X132453356Y-71723809D01*
X132453356Y-71723809D02*
X132472403Y-71704762D01*
X132472403Y-71704762D02*
X132491451Y-71666667D01*
X132491451Y-71666667D02*
X132491451Y-71514286D01*
X132681927Y-72123809D02*
X132681927Y-71895238D01*
X132681927Y-72009524D02*
X132281927Y-72009524D01*
X132281927Y-72009524D02*
X132339070Y-71971428D01*
X132339070Y-71971428D02*
X132377165Y-71933333D01*
X132377165Y-71933333D02*
X132396213Y-71895238D01*
X132281927Y-72466666D02*
X132281927Y-72390476D01*
X132281927Y-72390476D02*
X132300975Y-72352380D01*
X132300975Y-72352380D02*
X132320022Y-72333333D01*
X132320022Y-72333333D02*
X132377165Y-72295238D01*
X132377165Y-72295238D02*
X132453356Y-72276190D01*
X132453356Y-72276190D02*
X132605737Y-72276190D01*
X132605737Y-72276190D02*
X132643832Y-72295238D01*
X132643832Y-72295238D02*
X132662880Y-72314285D01*
X132662880Y-72314285D02*
X132681927Y-72352380D01*
X132681927Y-72352380D02*
X132681927Y-72428571D01*
X132681927Y-72428571D02*
X132662880Y-72466666D01*
X132662880Y-72466666D02*
X132643832Y-72485714D01*
X132643832Y-72485714D02*
X132605737Y-72504761D01*
X132605737Y-72504761D02*
X132510499Y-72504761D01*
X132510499Y-72504761D02*
X132472403Y-72485714D01*
X132472403Y-72485714D02*
X132453356Y-72466666D01*
X132453356Y-72466666D02*
X132434308Y-72428571D01*
X132434308Y-72428571D02*
X132434308Y-72352380D01*
X132434308Y-72352380D02*
X132453356Y-72314285D01*
X132453356Y-72314285D02*
X132472403Y-72295238D01*
X132472403Y-72295238D02*
X132510499Y-72276190D01*
X152431927Y-71933333D02*
X152241451Y-71800000D01*
X152431927Y-71704762D02*
X152031927Y-71704762D01*
X152031927Y-71704762D02*
X152031927Y-71857143D01*
X152031927Y-71857143D02*
X152050975Y-71895238D01*
X152050975Y-71895238D02*
X152070022Y-71914285D01*
X152070022Y-71914285D02*
X152108118Y-71933333D01*
X152108118Y-71933333D02*
X152165260Y-71933333D01*
X152165260Y-71933333D02*
X152203356Y-71914285D01*
X152203356Y-71914285D02*
X152222403Y-71895238D01*
X152222403Y-71895238D02*
X152241451Y-71857143D01*
X152241451Y-71857143D02*
X152241451Y-71704762D01*
X152031927Y-72295238D02*
X152031927Y-72104762D01*
X152031927Y-72104762D02*
X152222403Y-72085714D01*
X152222403Y-72085714D02*
X152203356Y-72104762D01*
X152203356Y-72104762D02*
X152184308Y-72142857D01*
X152184308Y-72142857D02*
X152184308Y-72238095D01*
X152184308Y-72238095D02*
X152203356Y-72276190D01*
X152203356Y-72276190D02*
X152222403Y-72295238D01*
X152222403Y-72295238D02*
X152260499Y-72314285D01*
X152260499Y-72314285D02*
X152355737Y-72314285D01*
X152355737Y-72314285D02*
X152393832Y-72295238D01*
X152393832Y-72295238D02*
X152412880Y-72276190D01*
X152412880Y-72276190D02*
X152431927Y-72238095D01*
X152431927Y-72238095D02*
X152431927Y-72142857D01*
X152431927Y-72142857D02*
X152412880Y-72104762D01*
X152412880Y-72104762D02*
X152393832Y-72085714D01*
X139931927Y-71742857D02*
X139741451Y-71609524D01*
X139931927Y-71514286D02*
X139531927Y-71514286D01*
X139531927Y-71514286D02*
X139531927Y-71666667D01*
X139531927Y-71666667D02*
X139550975Y-71704762D01*
X139550975Y-71704762D02*
X139570022Y-71723809D01*
X139570022Y-71723809D02*
X139608118Y-71742857D01*
X139608118Y-71742857D02*
X139665260Y-71742857D01*
X139665260Y-71742857D02*
X139703356Y-71723809D01*
X139703356Y-71723809D02*
X139722403Y-71704762D01*
X139722403Y-71704762D02*
X139741451Y-71666667D01*
X139741451Y-71666667D02*
X139741451Y-71514286D01*
X139931927Y-72123809D02*
X139931927Y-71895238D01*
X139931927Y-72009524D02*
X139531927Y-72009524D01*
X139531927Y-72009524D02*
X139589070Y-71971428D01*
X139589070Y-71971428D02*
X139627165Y-71933333D01*
X139627165Y-71933333D02*
X139646213Y-71895238D01*
X139531927Y-72485714D02*
X139531927Y-72295238D01*
X139531927Y-72295238D02*
X139722403Y-72276190D01*
X139722403Y-72276190D02*
X139703356Y-72295238D01*
X139703356Y-72295238D02*
X139684308Y-72333333D01*
X139684308Y-72333333D02*
X139684308Y-72428571D01*
X139684308Y-72428571D02*
X139703356Y-72466666D01*
X139703356Y-72466666D02*
X139722403Y-72485714D01*
X139722403Y-72485714D02*
X139760499Y-72504761D01*
X139760499Y-72504761D02*
X139855737Y-72504761D01*
X139855737Y-72504761D02*
X139893832Y-72485714D01*
X139893832Y-72485714D02*
X139912880Y-72466666D01*
X139912880Y-72466666D02*
X139931927Y-72428571D01*
X139931927Y-72428571D02*
X139931927Y-72333333D01*
X139931927Y-72333333D02*
X139912880Y-72295238D01*
X139912880Y-72295238D02*
X139893832Y-72276190D01*
X139881927Y-118442857D02*
X139691451Y-118309524D01*
X139881927Y-118214286D02*
X139481927Y-118214286D01*
X139481927Y-118214286D02*
X139481927Y-118366667D01*
X139481927Y-118366667D02*
X139500975Y-118404762D01*
X139500975Y-118404762D02*
X139520022Y-118423809D01*
X139520022Y-118423809D02*
X139558118Y-118442857D01*
X139558118Y-118442857D02*
X139615260Y-118442857D01*
X139615260Y-118442857D02*
X139653356Y-118423809D01*
X139653356Y-118423809D02*
X139672403Y-118404762D01*
X139672403Y-118404762D02*
X139691451Y-118366667D01*
X139691451Y-118366667D02*
X139691451Y-118214286D01*
X139881927Y-118823809D02*
X139881927Y-118595238D01*
X139881927Y-118709524D02*
X139481927Y-118709524D01*
X139481927Y-118709524D02*
X139539070Y-118671428D01*
X139539070Y-118671428D02*
X139577165Y-118633333D01*
X139577165Y-118633333D02*
X139596213Y-118595238D01*
X139881927Y-119204761D02*
X139881927Y-118976190D01*
X139881927Y-119090476D02*
X139481927Y-119090476D01*
X139481927Y-119090476D02*
X139539070Y-119052380D01*
X139539070Y-119052380D02*
X139577165Y-119014285D01*
X139577165Y-119014285D02*
X139596213Y-118976190D01*
X132281927Y-118442857D02*
X132091451Y-118309524D01*
X132281927Y-118214286D02*
X131881927Y-118214286D01*
X131881927Y-118214286D02*
X131881927Y-118366667D01*
X131881927Y-118366667D02*
X131900975Y-118404762D01*
X131900975Y-118404762D02*
X131920022Y-118423809D01*
X131920022Y-118423809D02*
X131958118Y-118442857D01*
X131958118Y-118442857D02*
X132015260Y-118442857D01*
X132015260Y-118442857D02*
X132053356Y-118423809D01*
X132053356Y-118423809D02*
X132072403Y-118404762D01*
X132072403Y-118404762D02*
X132091451Y-118366667D01*
X132091451Y-118366667D02*
X132091451Y-118214286D01*
X132281927Y-118823809D02*
X132281927Y-118595238D01*
X132281927Y-118709524D02*
X131881927Y-118709524D01*
X131881927Y-118709524D02*
X131939070Y-118671428D01*
X131939070Y-118671428D02*
X131977165Y-118633333D01*
X131977165Y-118633333D02*
X131996213Y-118595238D01*
X131920022Y-118976190D02*
X131900975Y-118995238D01*
X131900975Y-118995238D02*
X131881927Y-119033333D01*
X131881927Y-119033333D02*
X131881927Y-119128571D01*
X131881927Y-119128571D02*
X131900975Y-119166666D01*
X131900975Y-119166666D02*
X131920022Y-119185714D01*
X131920022Y-119185714D02*
X131958118Y-119204761D01*
X131958118Y-119204761D02*
X131996213Y-119204761D01*
X131996213Y-119204761D02*
X132053356Y-119185714D01*
X132053356Y-119185714D02*
X132281927Y-118957142D01*
X132281927Y-118957142D02*
X132281927Y-119204761D01*
X155181927Y-71667857D02*
X154991451Y-71534524D01*
X155181927Y-71439286D02*
X154781927Y-71439286D01*
X154781927Y-71439286D02*
X154781927Y-71591667D01*
X154781927Y-71591667D02*
X154800975Y-71629762D01*
X154800975Y-71629762D02*
X154820022Y-71648809D01*
X154820022Y-71648809D02*
X154858118Y-71667857D01*
X154858118Y-71667857D02*
X154915260Y-71667857D01*
X154915260Y-71667857D02*
X154953356Y-71648809D01*
X154953356Y-71648809D02*
X154972403Y-71629762D01*
X154972403Y-71629762D02*
X154991451Y-71591667D01*
X154991451Y-71591667D02*
X154991451Y-71439286D01*
X155181927Y-72048809D02*
X155181927Y-71820238D01*
X155181927Y-71934524D02*
X154781927Y-71934524D01*
X154781927Y-71934524D02*
X154839070Y-71896428D01*
X154839070Y-71896428D02*
X154877165Y-71858333D01*
X154877165Y-71858333D02*
X154896213Y-71820238D01*
X154781927Y-72182142D02*
X154781927Y-72429761D01*
X154781927Y-72429761D02*
X154934308Y-72296428D01*
X154934308Y-72296428D02*
X154934308Y-72353571D01*
X154934308Y-72353571D02*
X154953356Y-72391666D01*
X154953356Y-72391666D02*
X154972403Y-72410714D01*
X154972403Y-72410714D02*
X155010499Y-72429761D01*
X155010499Y-72429761D02*
X155105737Y-72429761D01*
X155105737Y-72429761D02*
X155143832Y-72410714D01*
X155143832Y-72410714D02*
X155162880Y-72391666D01*
X155162880Y-72391666D02*
X155181927Y-72353571D01*
X155181927Y-72353571D02*
X155181927Y-72239285D01*
X155181927Y-72239285D02*
X155162880Y-72201190D01*
X155162880Y-72201190D02*
X155143832Y-72182142D01*
X155181927Y-118633333D02*
X154991451Y-118500000D01*
X155181927Y-118404762D02*
X154781927Y-118404762D01*
X154781927Y-118404762D02*
X154781927Y-118557143D01*
X154781927Y-118557143D02*
X154800975Y-118595238D01*
X154800975Y-118595238D02*
X154820022Y-118614285D01*
X154820022Y-118614285D02*
X154858118Y-118633333D01*
X154858118Y-118633333D02*
X154915260Y-118633333D01*
X154915260Y-118633333D02*
X154953356Y-118614285D01*
X154953356Y-118614285D02*
X154972403Y-118595238D01*
X154972403Y-118595238D02*
X154991451Y-118557143D01*
X154991451Y-118557143D02*
X154991451Y-118404762D01*
X155181927Y-118823809D02*
X155181927Y-118900000D01*
X155181927Y-118900000D02*
X155162880Y-118938095D01*
X155162880Y-118938095D02*
X155143832Y-118957143D01*
X155143832Y-118957143D02*
X155086689Y-118995238D01*
X155086689Y-118995238D02*
X155010499Y-119014285D01*
X155010499Y-119014285D02*
X154858118Y-119014285D01*
X154858118Y-119014285D02*
X154820022Y-118995238D01*
X154820022Y-118995238D02*
X154800975Y-118976190D01*
X154800975Y-118976190D02*
X154781927Y-118938095D01*
X154781927Y-118938095D02*
X154781927Y-118861904D01*
X154781927Y-118861904D02*
X154800975Y-118823809D01*
X154800975Y-118823809D02*
X154820022Y-118804762D01*
X154820022Y-118804762D02*
X154858118Y-118785714D01*
X154858118Y-118785714D02*
X154953356Y-118785714D01*
X154953356Y-118785714D02*
X154991451Y-118804762D01*
X154991451Y-118804762D02*
X155010499Y-118823809D01*
X155010499Y-118823809D02*
X155029546Y-118861904D01*
X155029546Y-118861904D02*
X155029546Y-118938095D01*
X155029546Y-118938095D02*
X155010499Y-118976190D01*
X155010499Y-118976190D02*
X154991451Y-118995238D01*
X154991451Y-118995238D02*
X154953356Y-119014285D01*
X147381927Y-118442857D02*
X147191451Y-118309524D01*
X147381927Y-118214286D02*
X146981927Y-118214286D01*
X146981927Y-118214286D02*
X146981927Y-118366667D01*
X146981927Y-118366667D02*
X147000975Y-118404762D01*
X147000975Y-118404762D02*
X147020022Y-118423809D01*
X147020022Y-118423809D02*
X147058118Y-118442857D01*
X147058118Y-118442857D02*
X147115260Y-118442857D01*
X147115260Y-118442857D02*
X147153356Y-118423809D01*
X147153356Y-118423809D02*
X147172403Y-118404762D01*
X147172403Y-118404762D02*
X147191451Y-118366667D01*
X147191451Y-118366667D02*
X147191451Y-118214286D01*
X147381927Y-118823809D02*
X147381927Y-118595238D01*
X147381927Y-118709524D02*
X146981927Y-118709524D01*
X146981927Y-118709524D02*
X147039070Y-118671428D01*
X147039070Y-118671428D02*
X147077165Y-118633333D01*
X147077165Y-118633333D02*
X147096213Y-118595238D01*
X146981927Y-119071428D02*
X146981927Y-119109523D01*
X146981927Y-119109523D02*
X147000975Y-119147619D01*
X147000975Y-119147619D02*
X147020022Y-119166666D01*
X147020022Y-119166666D02*
X147058118Y-119185714D01*
X147058118Y-119185714D02*
X147134308Y-119204761D01*
X147134308Y-119204761D02*
X147229546Y-119204761D01*
X147229546Y-119204761D02*
X147305737Y-119185714D01*
X147305737Y-119185714D02*
X147343832Y-119166666D01*
X147343832Y-119166666D02*
X147362880Y-119147619D01*
X147362880Y-119147619D02*
X147381927Y-119109523D01*
X147381927Y-119109523D02*
X147381927Y-119071428D01*
X147381927Y-119071428D02*
X147362880Y-119033333D01*
X147362880Y-119033333D02*
X147343832Y-119014285D01*
X147343832Y-119014285D02*
X147305737Y-118995238D01*
X147305737Y-118995238D02*
X147229546Y-118976190D01*
X147229546Y-118976190D02*
X147134308Y-118976190D01*
X147134308Y-118976190D02*
X147058118Y-118995238D01*
X147058118Y-118995238D02*
X147020022Y-119014285D01*
X147020022Y-119014285D02*
X147000975Y-119033333D01*
X147000975Y-119033333D02*
X146981927Y-119071428D01*
D11*
%TO.C,R4*%
X129087500Y-117900000D02*
X129912500Y-117900000D01*
X129087500Y-119500000D02*
X129087500Y-117900000D01*
X129912500Y-117900000D02*
X129912500Y-119500000D01*
X129912500Y-119500000D02*
X129087500Y-119500000D01*
%TO.C,R14*%
X147587500Y-71200000D02*
X148412500Y-71200000D01*
X147587500Y-72800000D02*
X147587500Y-71200000D01*
X148412500Y-71200000D02*
X148412500Y-72800000D01*
X148412500Y-72800000D02*
X147587500Y-72800000D01*
%TO.C,R8*%
X129087500Y-71200000D02*
X129912500Y-71200000D01*
X129087500Y-72800000D02*
X129087500Y-71200000D01*
X129912500Y-71200000D02*
X129912500Y-72800000D01*
X129912500Y-72800000D02*
X129087500Y-72800000D01*
%TO.C,R2*%
X143987500Y-117900000D02*
X144812500Y-117900000D01*
X143987500Y-119500000D02*
X143987500Y-117900000D01*
X144812500Y-117900000D02*
X144812500Y-119500000D01*
X144812500Y-119500000D02*
X143987500Y-119500000D01*
%TO.C,R1*%
X151487500Y-117900000D02*
X152312500Y-117900000D01*
X151487500Y-119500000D02*
X151487500Y-117900000D01*
X152312500Y-117900000D02*
X152312500Y-119500000D01*
X152312500Y-119500000D02*
X151487500Y-119500000D01*
%TO.C,R7*%
X136337500Y-71200000D02*
X137162500Y-71200000D01*
X136337500Y-72800000D02*
X136337500Y-71200000D01*
X137162500Y-71200000D02*
X137162500Y-72800000D01*
X137162500Y-72800000D02*
X136337500Y-72800000D01*
%TO.C,R3*%
X136487500Y-117900000D02*
X137312500Y-117900000D01*
X136487500Y-119500000D02*
X136487500Y-117900000D01*
X137312500Y-117900000D02*
X137312500Y-119500000D01*
X137312500Y-119500000D02*
X136487500Y-119500000D01*
%TO.C,R6*%
X144587500Y-71200000D02*
X145412500Y-71200000D01*
X144587500Y-72800000D02*
X144587500Y-71200000D01*
X145412500Y-71200000D02*
X145412500Y-72800000D01*
X145412500Y-72800000D02*
X144587500Y-72800000D01*
%TO.C,R16*%
X132087500Y-71200000D02*
X132912500Y-71200000D01*
X132087500Y-72800000D02*
X132087500Y-71200000D01*
X132912500Y-71200000D02*
X132912500Y-72800000D01*
X132912500Y-72800000D02*
X132087500Y-72800000D01*
%TO.C,R5*%
X151837500Y-71200000D02*
X152662500Y-71200000D01*
X151837500Y-72800000D02*
X151837500Y-71200000D01*
X152662500Y-71200000D02*
X152662500Y-72800000D01*
X152662500Y-72800000D02*
X151837500Y-72800000D01*
%TO.C,R15*%
X139337500Y-71200000D02*
X140162500Y-71200000D01*
X139337500Y-72800000D02*
X139337500Y-71200000D01*
X140162500Y-71200000D02*
X140162500Y-72800000D01*
X140162500Y-72800000D02*
X139337500Y-72800000D01*
%TO.C,R11*%
X139287500Y-117900000D02*
X140112500Y-117900000D01*
X139287500Y-119500000D02*
X139287500Y-117900000D01*
X140112500Y-117900000D02*
X140112500Y-119500000D01*
X140112500Y-119500000D02*
X139287500Y-119500000D01*
%TO.C,R12*%
X131687500Y-117900000D02*
X132512500Y-117900000D01*
X131687500Y-119500000D02*
X131687500Y-117900000D01*
X132512500Y-117900000D02*
X132512500Y-119500000D01*
X132512500Y-119500000D02*
X131687500Y-119500000D01*
%TO.C,R13*%
X154587500Y-71125000D02*
X155412500Y-71125000D01*
X154587500Y-72725000D02*
X154587500Y-71125000D01*
X155412500Y-71125000D02*
X155412500Y-72725000D01*
X155412500Y-72725000D02*
X154587500Y-72725000D01*
%TO.C,R9*%
X154587500Y-117900000D02*
X155412500Y-117900000D01*
X154587500Y-119500000D02*
X154587500Y-117900000D01*
X155412500Y-117900000D02*
X155412500Y-119500000D01*
X155412500Y-119500000D02*
X154587500Y-119500000D01*
%TO.C,R10*%
X146787500Y-117900000D02*
X147612500Y-117900000D01*
X146787500Y-119500000D02*
X146787500Y-117900000D01*
X147612500Y-117900000D02*
X147612500Y-119500000D01*
X147612500Y-119500000D02*
X146787500Y-119500000D01*
%TD*%
M02*
