%TF.GenerationSoftware,KiCad,Pcbnew,9.0.0*%
%TF.CreationDate,2025-04-13T20:44:06+03:30*%
%TF.ProjectId,DotMatrix,446f744d-6174-4726-9978-2e6b69636164,rev?*%
%TF.SameCoordinates,Original*%
%TF.FileFunction,Soldermask,Top*%
%TF.FilePolarity,Negative*%
%FSLAX46Y46*%
G04 Gerber Fmt 4.6, Leading zero omitted, Abs format (unit mm)*
G04 Created by KiCad (PCBNEW 9.0.0) date 2025-04-13 20:44:06*
%MOMM*%
%LPD*%
G01*
G04 APERTURE LIST*
%ADD10C,3.200000*%
%ADD11R,1.700000X1.700000*%
%ADD12O,1.700000X1.700000*%
%ADD13R,1.800000X1.800000*%
%ADD14C,1.800000*%
G04 APERTURE END LIST*
D10*
%TO.C,REF\u002A\u002A*%
X98750000Y-62750000D03*
%TD*%
D11*
%TO.C,J1*%
X105250000Y-127740000D03*
D12*
X105250000Y-125200000D03*
X105250000Y-122660000D03*
X105250000Y-120120000D03*
X105250000Y-117580000D03*
X105250000Y-115040000D03*
X105250000Y-112500000D03*
X105250000Y-109960000D03*
%TD*%
D10*
%TO.C,REF\u002A\u002A*%
X167250000Y-62750000D03*
%TD*%
D11*
%TO.C,J3*%
X98500000Y-91200000D03*
D12*
X98500000Y-88660000D03*
X98500000Y-86120000D03*
X98500000Y-83580000D03*
X98500000Y-81040000D03*
X98500000Y-78500000D03*
X98500000Y-75960000D03*
X98500000Y-73420000D03*
%TD*%
D11*
%TO.C,J2*%
X105000000Y-91200000D03*
D12*
X105000000Y-88660000D03*
X105000000Y-86120000D03*
X105000000Y-83580000D03*
X105000000Y-81040000D03*
X105000000Y-78500000D03*
X105000000Y-75960000D03*
X105000000Y-73420000D03*
%TD*%
D13*
%TO.C,U1*%
X155000000Y-75900000D03*
D14*
X152460000Y-75900000D03*
X149920000Y-75900000D03*
X147380000Y-75900000D03*
X144840000Y-75900000D03*
X142300000Y-75900000D03*
X139760000Y-75900000D03*
X137220000Y-75900000D03*
X134680000Y-75900000D03*
X132140000Y-75900000D03*
X129600000Y-75900000D03*
X127060000Y-75900000D03*
X127060000Y-122300000D03*
X129600000Y-122300000D03*
X132140000Y-122300000D03*
X134680000Y-122300000D03*
X137220000Y-122300000D03*
X139760000Y-122300000D03*
X142300000Y-122300000D03*
X144840000Y-122300000D03*
X147380000Y-122300000D03*
X149920000Y-122300000D03*
X152460000Y-122300000D03*
X155000000Y-122300000D03*
%TD*%
M02*
