M48
; DRILL file {KiCad 9.0.0} date 2025-04-13T20:44:20+0330
; FORMAT={-:-/ absolute / metric / decimal}
; #@! TF.CreationDate,2025-04-13T20:44:20+03:30
; #@! TF.GenerationSoftware,Kicad,Pcbnew,9.0.0
; #@! TF.FileFunction,Plated,1,2,PTH
FMAT,2
METRIC
; #@! TA.AperFunction,Plated,PTH,ViaDrill
T1C0.500
; #@! TA.AperFunction,Plated,PTH,ComponentDrill
T2C0.800
; #@! TA.AperFunction,Plated,PTH,ComponentDrill
T3C1.000
%
G90
G05
T1
X99.2Y-100.4
X99.2Y-102.2
X99.4Y-103.8
X99.5Y-98.6
X110.25Y-72.75
X112.5Y-64.0
X113.15Y-84.35
X115.0Y-72.75
X117.22Y-86.12
X120.0Y-61.25
X121.6Y-88.6
X127.8Y-91.2
X129.4Y-101.7
X131.7Y-115.7
X132.55Y-67.45
X132.75Y-101.65
X134.0Y-70.75
X136.4Y-101.7
X139.4Y-115.7
X140.0Y-101.7
X147.2Y-115.7
X154.8Y-115.7
T2
X127.06Y-75.9
X127.06Y-122.3
X129.6Y-75.9
X129.6Y-122.3
X132.14Y-75.9
X132.14Y-122.3
X134.68Y-75.9
X134.68Y-122.3
X137.22Y-75.9
X137.22Y-122.3
X139.76Y-75.9
X139.76Y-122.3
X142.3Y-75.9
X142.3Y-122.3
X144.84Y-75.9
X144.84Y-122.3
X147.38Y-75.9
X147.38Y-122.3
X149.92Y-75.9
X149.92Y-122.3
X152.46Y-75.9
X152.46Y-122.3
X155.0Y-75.9
X155.0Y-122.3
T3
X98.5Y-73.42
X98.5Y-75.96
X98.5Y-78.5
X98.5Y-81.04
X98.5Y-83.58
X98.5Y-86.12
X98.5Y-88.66
X98.5Y-91.2
X105.0Y-73.42
X105.0Y-75.96
X105.0Y-78.5
X105.0Y-81.04
X105.0Y-83.58
X105.0Y-86.12
X105.0Y-88.66
X105.0Y-91.2
X105.25Y-109.96
X105.25Y-112.5
X105.25Y-115.04
X105.25Y-117.58
X105.25Y-120.12
X105.25Y-122.66
X105.25Y-125.2
X105.25Y-127.74
M30
