%TF.GenerationSoftware,KiCad,Pcbnew,9.0.0*%
%TF.CreationDate,2025-04-13T20:44:06+03:30*%
%TF.ProjectId,DotMatrix,446f744d-6174-4726-9978-2e6b69636164,rev?*%
%TF.SameCoordinates,Original*%
%TF.FileFunction,AssemblyDrawing,Top*%
%FSLAX46Y46*%
G04 Gerber Fmt 4.6, Leading zero omitted, Abs format (unit mm)*
G04 Created by KiCad (PCBNEW 9.0.0) date 2025-04-13 20:44:06*
%MOMM*%
%LPD*%
G01*
G04 APERTURE LIST*
%ADD10C,0.150000*%
%ADD11C,0.100000*%
G04 APERTURE END LIST*
D10*
X97416666Y-63204819D02*
X97083333Y-62728628D01*
X96845238Y-63204819D02*
X96845238Y-62204819D01*
X96845238Y-62204819D02*
X97226190Y-62204819D01*
X97226190Y-62204819D02*
X97321428Y-62252438D01*
X97321428Y-62252438D02*
X97369047Y-62300057D01*
X97369047Y-62300057D02*
X97416666Y-62395295D01*
X97416666Y-62395295D02*
X97416666Y-62538152D01*
X97416666Y-62538152D02*
X97369047Y-62633390D01*
X97369047Y-62633390D02*
X97321428Y-62681009D01*
X97321428Y-62681009D02*
X97226190Y-62728628D01*
X97226190Y-62728628D02*
X96845238Y-62728628D01*
X97845238Y-62681009D02*
X98178571Y-62681009D01*
X98321428Y-63204819D02*
X97845238Y-63204819D01*
X97845238Y-63204819D02*
X97845238Y-62204819D01*
X97845238Y-62204819D02*
X98321428Y-62204819D01*
X99083333Y-62681009D02*
X98750000Y-62681009D01*
X98750000Y-63204819D02*
X98750000Y-62204819D01*
X98750000Y-62204819D02*
X99226190Y-62204819D01*
X99750000Y-62204819D02*
X99750000Y-62442914D01*
X99511905Y-62347676D02*
X99750000Y-62442914D01*
X99750000Y-62442914D02*
X99988095Y-62347676D01*
X99607143Y-62633390D02*
X99750000Y-62442914D01*
X99750000Y-62442914D02*
X99892857Y-62633390D01*
X100511905Y-62204819D02*
X100511905Y-62442914D01*
X100273810Y-62347676D02*
X100511905Y-62442914D01*
X100511905Y-62442914D02*
X100750000Y-62347676D01*
X100369048Y-62633390D02*
X100511905Y-62442914D01*
X100511905Y-62442914D02*
X100654762Y-62633390D01*
X104704819Y-119183333D02*
X105419104Y-119183333D01*
X105419104Y-119183333D02*
X105561961Y-119230952D01*
X105561961Y-119230952D02*
X105657200Y-119326190D01*
X105657200Y-119326190D02*
X105704819Y-119469047D01*
X105704819Y-119469047D02*
X105704819Y-119564285D01*
X105704819Y-118183333D02*
X105704819Y-118754761D01*
X105704819Y-118469047D02*
X104704819Y-118469047D01*
X104704819Y-118469047D02*
X104847676Y-118564285D01*
X104847676Y-118564285D02*
X104942914Y-118659523D01*
X104942914Y-118659523D02*
X104990533Y-118754761D01*
X165916666Y-63204819D02*
X165583333Y-62728628D01*
X165345238Y-63204819D02*
X165345238Y-62204819D01*
X165345238Y-62204819D02*
X165726190Y-62204819D01*
X165726190Y-62204819D02*
X165821428Y-62252438D01*
X165821428Y-62252438D02*
X165869047Y-62300057D01*
X165869047Y-62300057D02*
X165916666Y-62395295D01*
X165916666Y-62395295D02*
X165916666Y-62538152D01*
X165916666Y-62538152D02*
X165869047Y-62633390D01*
X165869047Y-62633390D02*
X165821428Y-62681009D01*
X165821428Y-62681009D02*
X165726190Y-62728628D01*
X165726190Y-62728628D02*
X165345238Y-62728628D01*
X166345238Y-62681009D02*
X166678571Y-62681009D01*
X166821428Y-63204819D02*
X166345238Y-63204819D01*
X166345238Y-63204819D02*
X166345238Y-62204819D01*
X166345238Y-62204819D02*
X166821428Y-62204819D01*
X167583333Y-62681009D02*
X167250000Y-62681009D01*
X167250000Y-63204819D02*
X167250000Y-62204819D01*
X167250000Y-62204819D02*
X167726190Y-62204819D01*
X168250000Y-62204819D02*
X168250000Y-62442914D01*
X168011905Y-62347676D02*
X168250000Y-62442914D01*
X168250000Y-62442914D02*
X168488095Y-62347676D01*
X168107143Y-62633390D02*
X168250000Y-62442914D01*
X168250000Y-62442914D02*
X168392857Y-62633390D01*
X169011905Y-62204819D02*
X169011905Y-62442914D01*
X168773810Y-62347676D02*
X169011905Y-62442914D01*
X169011905Y-62442914D02*
X169250000Y-62347676D01*
X168869048Y-62633390D02*
X169011905Y-62442914D01*
X169011905Y-62442914D02*
X169154762Y-62633390D01*
X97954819Y-82643333D02*
X98669104Y-82643333D01*
X98669104Y-82643333D02*
X98811961Y-82690952D01*
X98811961Y-82690952D02*
X98907200Y-82786190D01*
X98907200Y-82786190D02*
X98954819Y-82929047D01*
X98954819Y-82929047D02*
X98954819Y-83024285D01*
X97954819Y-82262380D02*
X97954819Y-81643333D01*
X97954819Y-81643333D02*
X98335771Y-81976666D01*
X98335771Y-81976666D02*
X98335771Y-81833809D01*
X98335771Y-81833809D02*
X98383390Y-81738571D01*
X98383390Y-81738571D02*
X98431009Y-81690952D01*
X98431009Y-81690952D02*
X98526247Y-81643333D01*
X98526247Y-81643333D02*
X98764342Y-81643333D01*
X98764342Y-81643333D02*
X98859580Y-81690952D01*
X98859580Y-81690952D02*
X98907200Y-81738571D01*
X98907200Y-81738571D02*
X98954819Y-81833809D01*
X98954819Y-81833809D02*
X98954819Y-82119523D01*
X98954819Y-82119523D02*
X98907200Y-82214761D01*
X98907200Y-82214761D02*
X98859580Y-82262380D01*
X104454819Y-82643333D02*
X105169104Y-82643333D01*
X105169104Y-82643333D02*
X105311961Y-82690952D01*
X105311961Y-82690952D02*
X105407200Y-82786190D01*
X105407200Y-82786190D02*
X105454819Y-82929047D01*
X105454819Y-82929047D02*
X105454819Y-83024285D01*
X104550057Y-82214761D02*
X104502438Y-82167142D01*
X104502438Y-82167142D02*
X104454819Y-82071904D01*
X104454819Y-82071904D02*
X104454819Y-81833809D01*
X104454819Y-81833809D02*
X104502438Y-81738571D01*
X104502438Y-81738571D02*
X104550057Y-81690952D01*
X104550057Y-81690952D02*
X104645295Y-81643333D01*
X104645295Y-81643333D02*
X104740533Y-81643333D01*
X104740533Y-81643333D02*
X104883390Y-81690952D01*
X104883390Y-81690952D02*
X105454819Y-82262380D01*
X105454819Y-82262380D02*
X105454819Y-81643333D01*
X141938095Y-91673866D02*
X141985714Y-91626247D01*
X141985714Y-91626247D02*
X142080952Y-91578628D01*
X142080952Y-91578628D02*
X142271428Y-91673866D01*
X142271428Y-91673866D02*
X142366666Y-91626247D01*
X142366666Y-91626247D02*
X142414285Y-91578628D01*
X141338095Y-93554819D02*
X141338095Y-94364342D01*
X141338095Y-94364342D02*
X141385714Y-94459580D01*
X141385714Y-94459580D02*
X141433333Y-94507200D01*
X141433333Y-94507200D02*
X141528571Y-94554819D01*
X141528571Y-94554819D02*
X141719047Y-94554819D01*
X141719047Y-94554819D02*
X141814285Y-94507200D01*
X141814285Y-94507200D02*
X141861904Y-94459580D01*
X141861904Y-94459580D02*
X141909523Y-94364342D01*
X141909523Y-94364342D02*
X141909523Y-93554819D01*
X142909523Y-94554819D02*
X142338095Y-94554819D01*
X142623809Y-94554819D02*
X142623809Y-93554819D01*
X142623809Y-93554819D02*
X142528571Y-93697676D01*
X142528571Y-93697676D02*
X142433333Y-93792914D01*
X142433333Y-93792914D02*
X142338095Y-93840533D01*
D11*
%TO.C,J1*%
X103980000Y-108690000D02*
X106520000Y-108690000D01*
X103980000Y-129010000D02*
X103980000Y-108690000D01*
X105885000Y-129010000D02*
X103980000Y-129010000D01*
X106520000Y-108690000D02*
X106520000Y-128375000D01*
X106520000Y-128375000D02*
X105885000Y-129010000D01*
%TO.C,J3*%
X97230000Y-72150000D02*
X99770000Y-72150000D01*
X97230000Y-92470000D02*
X97230000Y-72150000D01*
X99135000Y-92470000D02*
X97230000Y-92470000D01*
X99770000Y-72150000D02*
X99770000Y-91835000D01*
X99770000Y-91835000D02*
X99135000Y-92470000D01*
%TO.C,J2*%
X103730000Y-72150000D02*
X106270000Y-72150000D01*
X103730000Y-92470000D02*
X103730000Y-72150000D01*
X105635000Y-92470000D02*
X103730000Y-92470000D01*
X106270000Y-72150000D02*
X106270000Y-91835000D01*
X106270000Y-91835000D02*
X105635000Y-92470000D01*
%TD*%
M02*
