%TF.GenerationSoftware,KiCad,Pcbnew,9.0.0*%
%TF.CreationDate,2025-04-13T20:44:06+03:30*%
%TF.ProjectId,DotMatrix,446f744d-6174-4726-9978-2e6b69636164,rev?*%
%TF.SameCoordinates,Original*%
%TF.FileFunction,Copper,L2,Bot*%
%TF.FilePolarity,Positive*%
%FSLAX46Y46*%
G04 Gerber Fmt 4.6, Leading zero omitted, Abs format (unit mm)*
G04 Created by KiCad (PCBNEW 9.0.0) date 2025-04-13 20:44:06*
%MOMM*%
%LPD*%
G01*
G04 APERTURE LIST*
G04 Aperture macros list*
%AMRoundRect*
0 Rectangle with rounded corners*
0 $1 Rounding radius*
0 $2 $3 $4 $5 $6 $7 $8 $9 X,Y pos of 4 corners*
0 Add a 4 corners polygon primitive as box body*
4,1,4,$2,$3,$4,$5,$6,$7,$8,$9,$2,$3,0*
0 Add four circle primitives for the rounded corners*
1,1,$1+$1,$2,$3*
1,1,$1+$1,$4,$5*
1,1,$1+$1,$6,$7*
1,1,$1+$1,$8,$9*
0 Add four rect primitives between the rounded corners*
20,1,$1+$1,$2,$3,$4,$5,0*
20,1,$1+$1,$4,$5,$6,$7,0*
20,1,$1+$1,$6,$7,$8,$9,0*
20,1,$1+$1,$8,$9,$2,$3,0*%
G04 Aperture macros list end*
%TA.AperFunction,ComponentPad*%
%ADD10R,1.700000X1.700000*%
%TD*%
%TA.AperFunction,ComponentPad*%
%ADD11O,1.700000X1.700000*%
%TD*%
%TA.AperFunction,ComponentPad*%
%ADD12R,1.800000X1.800000*%
%TD*%
%TA.AperFunction,ComponentPad*%
%ADD13C,1.800000*%
%TD*%
%TA.AperFunction,SMDPad,CuDef*%
%ADD14RoundRect,0.200000X0.275000X-0.200000X0.275000X0.200000X-0.275000X0.200000X-0.275000X-0.200000X0*%
%TD*%
%TA.AperFunction,ViaPad*%
%ADD15C,1.000000*%
%TD*%
%TA.AperFunction,Conductor*%
%ADD16C,0.700000*%
%TD*%
G04 APERTURE END LIST*
D10*
%TO.P,J1,1,Pin_1*%
%TO.N,Net-(J1-Pin_1)*%
X105250000Y-127740000D03*
D11*
%TO.P,J1,2,Pin_2*%
%TO.N,Net-(J1-Pin_2)*%
X105250000Y-125200000D03*
%TO.P,J1,3,Pin_3*%
%TO.N,Net-(J1-Pin_3)*%
X105250000Y-122660000D03*
%TO.P,J1,4,Pin_4*%
%TO.N,Net-(J1-Pin_4)*%
X105250000Y-120120000D03*
%TO.P,J1,5,Pin_5*%
%TO.N,Net-(J1-Pin_5)*%
X105250000Y-117580000D03*
%TO.P,J1,6,Pin_6*%
%TO.N,Net-(J1-Pin_6)*%
X105250000Y-115040000D03*
%TO.P,J1,7,Pin_7*%
%TO.N,Net-(J1-Pin_7)*%
X105250000Y-112500000D03*
%TO.P,J1,8,Pin_8*%
%TO.N,Net-(J1-Pin_8)*%
X105250000Y-109960000D03*
%TD*%
D10*
%TO.P,J3,1,Pin_1*%
%TO.N,Net-(J3-Pin_1)*%
X98500000Y-91200000D03*
D11*
%TO.P,J3,2,Pin_2*%
%TO.N,Net-(J3-Pin_2)*%
X98500000Y-88660000D03*
%TO.P,J3,3,Pin_3*%
%TO.N,Net-(J3-Pin_3)*%
X98500000Y-86120000D03*
%TO.P,J3,4,Pin_4*%
%TO.N,Net-(J3-Pin_4)*%
X98500000Y-83580000D03*
%TO.P,J3,5,Pin_5*%
%TO.N,Net-(J3-Pin_5)*%
X98500000Y-81040000D03*
%TO.P,J3,6,Pin_6*%
%TO.N,Net-(J3-Pin_6)*%
X98500000Y-78500000D03*
%TO.P,J3,7,Pin_7*%
%TO.N,Net-(J3-Pin_7)*%
X98500000Y-75960000D03*
%TO.P,J3,8,Pin_8*%
%TO.N,Net-(J3-Pin_8)*%
X98500000Y-73420000D03*
%TD*%
D10*
%TO.P,J2,1,Pin_1*%
%TO.N,Net-(J2-Pin_1)*%
X105000000Y-91200000D03*
D11*
%TO.P,J2,2,Pin_2*%
%TO.N,Net-(J2-Pin_2)*%
X105000000Y-88660000D03*
%TO.P,J2,3,Pin_3*%
%TO.N,Net-(J2-Pin_3)*%
X105000000Y-86120000D03*
%TO.P,J2,4,Pin_4*%
%TO.N,Net-(J2-Pin_4)*%
X105000000Y-83580000D03*
%TO.P,J2,5,Pin_5*%
%TO.N,Net-(J2-Pin_5)*%
X105000000Y-81040000D03*
%TO.P,J2,6,Pin_6*%
%TO.N,Net-(J2-Pin_6)*%
X105000000Y-78500000D03*
%TO.P,J2,7,Pin_7*%
%TO.N,Net-(J2-Pin_7)*%
X105000000Y-75960000D03*
%TO.P,J2,8,Pin_8*%
%TO.N,Net-(J2-Pin_8)*%
X105000000Y-73420000D03*
%TD*%
D12*
%TO.P,U1,1*%
%TO.N,Net-(R13-Pad1)*%
X155000000Y-75900000D03*
D13*
%TO.P,U1,2*%
%TO.N,Net-(R5-Pad1)*%
X152460000Y-75900000D03*
%TO.P,U1,3*%
%TO.N,Net-(J1-Pin_5)*%
X149920000Y-75900000D03*
%TO.P,U1,4*%
%TO.N,Net-(R14-Pad1)*%
X147380000Y-75900000D03*
%TO.P,U1,5*%
%TO.N,Net-(R6-Pad1)*%
X144840000Y-75900000D03*
%TO.P,U1,6*%
%TO.N,Net-(J1-Pin_6)*%
X142300000Y-75900000D03*
%TO.P,U1,7*%
%TO.N,Net-(R15-Pad1)*%
X139760000Y-75900000D03*
%TO.P,U1,8*%
%TO.N,Net-(R7-Pad1)*%
X137220000Y-75900000D03*
%TO.P,U1,9*%
%TO.N,Net-(J1-Pin_7)*%
X134680000Y-75900000D03*
%TO.P,U1,10*%
%TO.N,Net-(R16-Pad1)*%
X132140000Y-75900000D03*
%TO.P,U1,11*%
%TO.N,Net-(R8-Pad1)*%
X129600000Y-75900000D03*
%TO.P,U1,12*%
%TO.N,Net-(J1-Pin_8)*%
X127060000Y-75900000D03*
%TO.P,U1,13*%
%TO.N,Net-(J1-Pin_4)*%
X127060000Y-122300000D03*
%TO.P,U1,14*%
%TO.N,Net-(R4-Pad1)*%
X129600000Y-122300000D03*
%TO.P,U1,15*%
%TO.N,Net-(R12-Pad1)*%
X132140000Y-122300000D03*
%TO.P,U1,16*%
%TO.N,Net-(J1-Pin_3)*%
X134680000Y-122300000D03*
%TO.P,U1,17*%
%TO.N,Net-(R3-Pad1)*%
X137220000Y-122300000D03*
%TO.P,U1,18*%
%TO.N,Net-(R11-Pad1)*%
X139760000Y-122300000D03*
%TO.P,U1,19*%
%TO.N,Net-(J1-Pin_2)*%
X142300000Y-122300000D03*
%TO.P,U1,20*%
%TO.N,Net-(R2-Pad1)*%
X144840000Y-122300000D03*
%TO.P,U1,21*%
%TO.N,Net-(R10-Pad1)*%
X147380000Y-122300000D03*
%TO.P,U1,22*%
%TO.N,Net-(J1-Pin_1)*%
X149920000Y-122300000D03*
%TO.P,U1,23*%
%TO.N,Net-(R1-Pad1)*%
X152460000Y-122300000D03*
%TO.P,U1,24*%
%TO.N,Net-(R9-Pad1)*%
X155000000Y-122300000D03*
%TD*%
D14*
%TO.P,R4,1*%
%TO.N,Net-(R4-Pad1)*%
X129500000Y-119525000D03*
%TO.P,R4,2*%
%TO.N,Net-(J2-Pin_4)*%
X129500000Y-117875000D03*
%TD*%
%TO.P,R14,1*%
%TO.N,Net-(R14-Pad1)*%
X148000000Y-72825000D03*
%TO.P,R14,2*%
%TO.N,Net-(J3-Pin_6)*%
X148000000Y-71175000D03*
%TD*%
%TO.P,R8,1*%
%TO.N,Net-(R8-Pad1)*%
X129500000Y-72825000D03*
%TO.P,R8,2*%
%TO.N,Net-(J2-Pin_8)*%
X129500000Y-71175000D03*
%TD*%
%TO.P,R2,1*%
%TO.N,Net-(R2-Pad1)*%
X144400000Y-119525000D03*
%TO.P,R2,2*%
%TO.N,Net-(J2-Pin_2)*%
X144400000Y-117875000D03*
%TD*%
%TO.P,R1,1*%
%TO.N,Net-(R1-Pad1)*%
X151900000Y-119525000D03*
%TO.P,R1,2*%
%TO.N,Net-(J2-Pin_1)*%
X151900000Y-117875000D03*
%TD*%
%TO.P,R7,1*%
%TO.N,Net-(R7-Pad1)*%
X136750000Y-72825000D03*
%TO.P,R7,2*%
%TO.N,Net-(J2-Pin_7)*%
X136750000Y-71175000D03*
%TD*%
%TO.P,R3,1*%
%TO.N,Net-(R3-Pad1)*%
X136900000Y-119525000D03*
%TO.P,R3,2*%
%TO.N,Net-(J2-Pin_3)*%
X136900000Y-117875000D03*
%TD*%
%TO.P,R6,1*%
%TO.N,Net-(R6-Pad1)*%
X145000000Y-72825000D03*
%TO.P,R6,2*%
%TO.N,Net-(J2-Pin_6)*%
X145000000Y-71175000D03*
%TD*%
%TO.P,R16,1*%
%TO.N,Net-(R16-Pad1)*%
X132500000Y-72825000D03*
%TO.P,R16,2*%
%TO.N,Net-(J3-Pin_8)*%
X132500000Y-71175000D03*
%TD*%
%TO.P,R5,1*%
%TO.N,Net-(R5-Pad1)*%
X152250000Y-72825000D03*
%TO.P,R5,2*%
%TO.N,Net-(J2-Pin_5)*%
X152250000Y-71175000D03*
%TD*%
%TO.P,R15,1*%
%TO.N,Net-(R15-Pad1)*%
X139750000Y-72825000D03*
%TO.P,R15,2*%
%TO.N,Net-(J3-Pin_7)*%
X139750000Y-71175000D03*
%TD*%
%TO.P,R11,1*%
%TO.N,Net-(R11-Pad1)*%
X139700000Y-119525000D03*
%TO.P,R11,2*%
%TO.N,Net-(J3-Pin_3)*%
X139700000Y-117875000D03*
%TD*%
%TO.P,R12,1*%
%TO.N,Net-(R12-Pad1)*%
X132100000Y-119525000D03*
%TO.P,R12,2*%
%TO.N,Net-(J3-Pin_4)*%
X132100000Y-117875000D03*
%TD*%
%TO.P,R13,1*%
%TO.N,Net-(R13-Pad1)*%
X155000000Y-72750000D03*
%TO.P,R13,2*%
%TO.N,Net-(J3-Pin_5)*%
X155000000Y-71100000D03*
%TD*%
%TO.P,R9,1*%
%TO.N,Net-(R9-Pad1)*%
X155000000Y-119525000D03*
%TO.P,R9,2*%
%TO.N,Net-(J3-Pin_1)*%
X155000000Y-117875000D03*
%TD*%
%TO.P,R10,1*%
%TO.N,Net-(R10-Pad1)*%
X147200000Y-119525000D03*
%TO.P,R10,2*%
%TO.N,Net-(J3-Pin_2)*%
X147200000Y-117875000D03*
%TD*%
D15*
%TO.N,Net-(J2-Pin_2)*%
X136400000Y-101700000D03*
X121600000Y-88600000D03*
%TO.N,Net-(J2-Pin_5)*%
X115000000Y-72750000D03*
X120000000Y-61250000D03*
%TO.N,Net-(J2-Pin_1)*%
X140000000Y-101700000D03*
X127800000Y-91200000D03*
%TO.N,Net-(J2-Pin_3)*%
X117220000Y-86120000D03*
X132750000Y-101650000D03*
%TO.N,Net-(J2-Pin_4)*%
X129400000Y-101700000D03*
X113150000Y-84350000D03*
%TO.N,Net-(J2-Pin_6)*%
X110250000Y-72750000D03*
X112500000Y-64000000D03*
%TO.N,Net-(J3-Pin_2)*%
X99200000Y-100400000D03*
X147200000Y-115700000D03*
%TO.N,Net-(J3-Pin_3)*%
X139400000Y-115700000D03*
X99200000Y-102200000D03*
%TO.N,Net-(J3-Pin_1)*%
X154800000Y-115700000D03*
X99500000Y-98600000D03*
%TO.N,Net-(J3-Pin_4)*%
X131700000Y-115700000D03*
X99400000Y-103800000D03*
%TO.N,Net-(J3-Pin_8)*%
X134000000Y-70750000D03*
X132550000Y-67450000D03*
%TD*%
D16*
%TO.N,Net-(J3-Pin_5)*%
X155000000Y-71100000D02*
X143400000Y-59500000D01*
X143400000Y-59500000D02*
X110434721Y-59500000D01*
X110434721Y-59500000D02*
X100474721Y-69460000D01*
X100474721Y-69460000D02*
X96925988Y-69460000D01*
X96925988Y-69460000D02*
X94700000Y-71685988D01*
X94700000Y-71685988D02*
X94700000Y-77400000D01*
X94700000Y-77400000D02*
X98180000Y-80880000D01*
X98180000Y-80880000D02*
X98500000Y-80880000D01*
%TO.N,Net-(J3-Pin_7)*%
X139750000Y-71175000D02*
X134075000Y-65500000D01*
X134075000Y-65500000D02*
X107545989Y-65500000D01*
X107545989Y-65500000D02*
X101385989Y-71660000D01*
X96900000Y-72597258D02*
X96900000Y-74600000D01*
X101385989Y-71660000D02*
X97837258Y-71660000D01*
X97837258Y-71660000D02*
X96900000Y-72597258D01*
X96900000Y-74600000D02*
X98100000Y-75800000D01*
X98100000Y-75800000D02*
X98500000Y-75800000D01*
%TO.N,Net-(J2-Pin_3)*%
X117220000Y-86120000D02*
X105000000Y-86120000D01*
%TO.N,Net-(J2-Pin_4)*%
X112380000Y-83580000D02*
X105000000Y-83580000D01*
X113150000Y-84350000D02*
X112380000Y-83580000D01*
%TO.N,Net-(J3-Pin_8)*%
X133575000Y-71175000D02*
X132500000Y-71175000D01*
X134000000Y-70750000D02*
X133575000Y-71175000D01*
X132550000Y-67450000D02*
X132100000Y-67000000D01*
X132100000Y-67000000D02*
X107601624Y-67000000D01*
X107601624Y-67000000D02*
X101101624Y-73500000D01*
X101101624Y-73500000D02*
X98740000Y-73500000D01*
X98740000Y-73500000D02*
X98500000Y-73260000D01*
%TO.N,Net-(J2-Pin_6)*%
X112500000Y-64000000D02*
X137825000Y-64000000D01*
X137825000Y-64000000D02*
X145000000Y-71175000D01*
%TO.N,Net-(J3-Pin_6)*%
X148000000Y-71175000D02*
X139325000Y-62500000D01*
X139325000Y-62500000D02*
X108990355Y-62500000D01*
X108990355Y-62500000D02*
X100930355Y-70560000D01*
X100930355Y-70560000D02*
X97381623Y-70560000D01*
X97840000Y-78340000D02*
X98500000Y-78340000D01*
X97381623Y-70560000D02*
X95800000Y-72141623D01*
X95800000Y-72141623D02*
X95800000Y-76300000D01*
X95800000Y-76300000D02*
X97840000Y-78340000D01*
%TO.N,Net-(J2-Pin_5)*%
X120000000Y-61250000D02*
X120149000Y-61101000D01*
X120149000Y-61101000D02*
X142176000Y-61101000D01*
X142176000Y-61101000D02*
X152250000Y-71175000D01*
%TO.N,Net-(J1-Pin_3)*%
X106990000Y-124400000D02*
X132580000Y-124400000D01*
X132580000Y-124400000D02*
X134680000Y-122300000D01*
X105250000Y-122660000D02*
X106990000Y-124400000D01*
%TO.N,Net-(J1-Pin_2)*%
X138800000Y-125800000D02*
X142300000Y-122300000D01*
X105850000Y-125800000D02*
X138800000Y-125800000D01*
X105250000Y-125200000D02*
X105850000Y-125800000D01*
%TO.N,Net-(J1-Pin_4)*%
X105250000Y-120120000D02*
X107430000Y-122300000D01*
X107430000Y-122300000D02*
X127060000Y-122300000D01*
%TO.N,Net-(J1-Pin_7)*%
X134680000Y-80380000D02*
X134680000Y-75500000D01*
X105250000Y-112500000D02*
X112138732Y-112500000D01*
X138000000Y-86638732D02*
X138000000Y-83700000D01*
X112138732Y-112500000D02*
X138000000Y-86638732D01*
X138000000Y-83700000D02*
X134680000Y-80380000D01*
%TO.N,Net-(J1-Pin_6)*%
X142300000Y-83894366D02*
X142300000Y-75500000D01*
X111154366Y-115040000D02*
X142300000Y-83894366D01*
X105250000Y-115040000D02*
X111154366Y-115040000D01*
%TO.N,Net-(J1-Pin_8)*%
X127060000Y-79460000D02*
X127060000Y-75500000D01*
X113123098Y-109960000D02*
X132900000Y-90183098D01*
X132900000Y-85300000D02*
X127060000Y-79460000D01*
X105250000Y-109960000D02*
X113123098Y-109960000D01*
X132900000Y-90183098D02*
X132900000Y-85300000D01*
%TO.N,Net-(J1-Pin_5)*%
X110170000Y-117580000D02*
X149920000Y-77830000D01*
X149920000Y-77830000D02*
X149920000Y-75500000D01*
X105250000Y-117580000D02*
X110170000Y-117580000D01*
%TO.N,Net-(J1-Pin_1)*%
X105250000Y-127740000D02*
X105690000Y-127300000D01*
X105690000Y-127300000D02*
X144920000Y-127300000D01*
X144920000Y-127300000D02*
X149920000Y-122300000D01*
%TO.N,Net-(J2-Pin_2)*%
X136400000Y-101700000D02*
X144400000Y-109700000D01*
X105000000Y-88660000D02*
X121540000Y-88660000D01*
X144400000Y-109700000D02*
X144400000Y-117875000D01*
X121540000Y-88660000D02*
X121600000Y-88600000D01*
%TO.N,Net-(J2-Pin_5)*%
X109210000Y-81040000D02*
X105000000Y-81040000D01*
X115000000Y-72750000D02*
X115000000Y-75250000D01*
X115000000Y-75250000D02*
X109210000Y-81040000D01*
%TO.N,Net-(J2-Pin_8)*%
X107245000Y-71175000D02*
X105000000Y-73420000D01*
X129500000Y-71175000D02*
X107245000Y-71175000D01*
%TO.N,Net-(J2-Pin_7)*%
X134575000Y-69000000D02*
X107157258Y-69000000D01*
X103400000Y-72757258D02*
X103400000Y-74360000D01*
X107157258Y-69000000D02*
X103400000Y-72757258D01*
X136750000Y-71175000D02*
X134575000Y-69000000D01*
X103400000Y-74360000D02*
X105000000Y-75960000D01*
%TO.N,Net-(J2-Pin_1)*%
X140000000Y-101700000D02*
X151900000Y-113600000D01*
X105000000Y-91200000D02*
X127800000Y-91200000D01*
X151900000Y-113600000D02*
X151900000Y-117875000D01*
%TO.N,Net-(J2-Pin_3)*%
X136800000Y-117775000D02*
X136900000Y-117875000D01*
X132750000Y-101650000D02*
X136800000Y-105700000D01*
X136800000Y-105700000D02*
X136800000Y-117775000D01*
%TO.N,Net-(J2-Pin_4)*%
X129400000Y-117775000D02*
X129500000Y-117875000D01*
X129400000Y-101700000D02*
X129400000Y-117775000D01*
%TO.N,Net-(J2-Pin_6)*%
X110250000Y-75250000D02*
X107000000Y-78500000D01*
X107000000Y-78500000D02*
X105000000Y-78500000D01*
X110250000Y-72750000D02*
X110250000Y-75250000D01*
%TO.N,Net-(J3-Pin_2)*%
X95600000Y-96800000D02*
X99200000Y-100400000D01*
X147200000Y-115700000D02*
X147200000Y-117875000D01*
X98500000Y-88500000D02*
X96500000Y-88500000D01*
X96500000Y-88500000D02*
X95600000Y-89400000D01*
X95600000Y-89400000D02*
X95600000Y-96800000D01*
%TO.N,Net-(J3-Pin_3)*%
X98360000Y-86100000D02*
X96800000Y-86100000D01*
X139400000Y-115700000D02*
X139700000Y-116000000D01*
X139700000Y-116000000D02*
X139700000Y-117875000D01*
X96800000Y-86100000D02*
X94500000Y-88400000D01*
X94500000Y-88400000D02*
X94500000Y-97500000D01*
X94500000Y-97500000D02*
X99200000Y-102200000D01*
X98500000Y-85960000D02*
X98360000Y-86100000D01*
%TO.N,Net-(J3-Pin_1)*%
X98500000Y-91040000D02*
X98500000Y-97600000D01*
X155000000Y-115900000D02*
X155000000Y-117875000D01*
X154800000Y-115700000D02*
X155000000Y-115900000D01*
X98500000Y-97600000D02*
X99500000Y-98600000D01*
%TO.N,Net-(J3-Pin_4)*%
X99400000Y-103800000D02*
X98700000Y-103800000D01*
X96930000Y-83420000D02*
X98500000Y-83420000D01*
X98700000Y-103800000D02*
X93300000Y-98400000D01*
X93300000Y-87050000D02*
X96930000Y-83420000D01*
X93300000Y-98400000D02*
X93300000Y-87050000D01*
X132100000Y-116100000D02*
X132100000Y-117875000D01*
X131700000Y-115700000D02*
X132100000Y-116100000D01*
%TO.N,Net-(R14-Pad1)*%
X148000000Y-74880000D02*
X147380000Y-75500000D01*
X148000000Y-72825000D02*
X148000000Y-74880000D01*
%TO.N,Net-(R10-Pad1)*%
X147200000Y-122120000D02*
X147380000Y-122300000D01*
X147200000Y-119525000D02*
X147200000Y-122120000D01*
%TO.N,Net-(R15-Pad1)*%
X139750000Y-75490000D02*
X139760000Y-75500000D01*
X139750000Y-72825000D02*
X139750000Y-75490000D01*
%TO.N,Net-(R5-Pad1)*%
X152250000Y-75290000D02*
X152460000Y-75500000D01*
X152250000Y-72825000D02*
X152250000Y-75290000D01*
%TO.N,Net-(R7-Pad1)*%
X136750000Y-72825000D02*
X136750000Y-75030000D01*
X136750000Y-75030000D02*
X137220000Y-75500000D01*
%TO.N,Net-(R2-Pad1)*%
X144400000Y-119525000D02*
X144400000Y-121860000D01*
X144400000Y-121860000D02*
X144840000Y-122300000D01*
%TO.N,Net-(R6-Pad1)*%
X145000000Y-75340000D02*
X144840000Y-75500000D01*
X145000000Y-72825000D02*
X145000000Y-75340000D01*
%TO.N,Net-(R12-Pad1)*%
X132100000Y-119525000D02*
X132100000Y-122260000D01*
X132100000Y-122260000D02*
X132140000Y-122300000D01*
%TO.N,Net-(R3-Pad1)*%
X136900000Y-119525000D02*
X136900000Y-121980000D01*
X136900000Y-121980000D02*
X137220000Y-122300000D01*
%TO.N,Net-(R4-Pad1)*%
X129500000Y-119525000D02*
X129500000Y-122200000D01*
X129500000Y-122200000D02*
X129600000Y-122300000D01*
%TO.N,Net-(R13-Pad1)*%
X155000000Y-72750000D02*
X155000000Y-75500000D01*
%TO.N,Net-(R11-Pad1)*%
X139700000Y-119525000D02*
X139700000Y-122240000D01*
X139700000Y-122240000D02*
X139760000Y-122300000D01*
%TO.N,Net-(R8-Pad1)*%
X129500000Y-72825000D02*
X129500000Y-75400000D01*
X129500000Y-75400000D02*
X129600000Y-75500000D01*
%TO.N,Net-(R16-Pad1)*%
X132500000Y-75140000D02*
X132140000Y-75500000D01*
X132500000Y-72825000D02*
X132500000Y-75140000D01*
%TO.N,Net-(R9-Pad1)*%
X155000000Y-119525000D02*
X155000000Y-122300000D01*
%TO.N,Net-(R1-Pad1)*%
X151900000Y-119525000D02*
X151900000Y-121740000D01*
X151900000Y-121740000D02*
X152460000Y-122300000D01*
%TD*%
M02*
