%TF.GenerationSoftware,KiCad,Pcbnew,9.0.0*%
%TF.CreationDate,2025-04-13T20:44:06+03:30*%
%TF.ProjectId,DotMatrix,446f744d-6174-4726-9978-2e6b69636164,rev?*%
%TF.SameCoordinates,Original*%
%TF.FileFunction,Copper,L1,Top*%
%TF.FilePolarity,Positive*%
%FSLAX46Y46*%
G04 Gerber Fmt 4.6, Leading zero omitted, Abs format (unit mm)*
G04 Created by KiCad (PCBNEW 9.0.0) date 2025-04-13 20:44:06*
%MOMM*%
%LPD*%
G01*
G04 APERTURE LIST*
%TA.AperFunction,ComponentPad*%
%ADD10R,1.700000X1.700000*%
%TD*%
%TA.AperFunction,ComponentPad*%
%ADD11O,1.700000X1.700000*%
%TD*%
%TA.AperFunction,ComponentPad*%
%ADD12R,1.800000X1.800000*%
%TD*%
%TA.AperFunction,ComponentPad*%
%ADD13C,1.800000*%
%TD*%
%TA.AperFunction,ViaPad*%
%ADD14C,1.000000*%
%TD*%
%TA.AperFunction,Conductor*%
%ADD15C,0.700000*%
%TD*%
G04 APERTURE END LIST*
D10*
%TO.P,J1,1,Pin_1*%
%TO.N,Net-(J1-Pin_1)*%
X105250000Y-127740000D03*
D11*
%TO.P,J1,2,Pin_2*%
%TO.N,Net-(J1-Pin_2)*%
X105250000Y-125200000D03*
%TO.P,J1,3,Pin_3*%
%TO.N,Net-(J1-Pin_3)*%
X105250000Y-122660000D03*
%TO.P,J1,4,Pin_4*%
%TO.N,Net-(J1-Pin_4)*%
X105250000Y-120120000D03*
%TO.P,J1,5,Pin_5*%
%TO.N,Net-(J1-Pin_5)*%
X105250000Y-117580000D03*
%TO.P,J1,6,Pin_6*%
%TO.N,Net-(J1-Pin_6)*%
X105250000Y-115040000D03*
%TO.P,J1,7,Pin_7*%
%TO.N,Net-(J1-Pin_7)*%
X105250000Y-112500000D03*
%TO.P,J1,8,Pin_8*%
%TO.N,Net-(J1-Pin_8)*%
X105250000Y-109960000D03*
%TD*%
D10*
%TO.P,J3,1,Pin_1*%
%TO.N,Net-(J3-Pin_1)*%
X98500000Y-91200000D03*
D11*
%TO.P,J3,2,Pin_2*%
%TO.N,Net-(J3-Pin_2)*%
X98500000Y-88660000D03*
%TO.P,J3,3,Pin_3*%
%TO.N,Net-(J3-Pin_3)*%
X98500000Y-86120000D03*
%TO.P,J3,4,Pin_4*%
%TO.N,Net-(J3-Pin_4)*%
X98500000Y-83580000D03*
%TO.P,J3,5,Pin_5*%
%TO.N,Net-(J3-Pin_5)*%
X98500000Y-81040000D03*
%TO.P,J3,6,Pin_6*%
%TO.N,Net-(J3-Pin_6)*%
X98500000Y-78500000D03*
%TO.P,J3,7,Pin_7*%
%TO.N,Net-(J3-Pin_7)*%
X98500000Y-75960000D03*
%TO.P,J3,8,Pin_8*%
%TO.N,Net-(J3-Pin_8)*%
X98500000Y-73420000D03*
%TD*%
D10*
%TO.P,J2,1,Pin_1*%
%TO.N,Net-(J2-Pin_1)*%
X105000000Y-91200000D03*
D11*
%TO.P,J2,2,Pin_2*%
%TO.N,Net-(J2-Pin_2)*%
X105000000Y-88660000D03*
%TO.P,J2,3,Pin_3*%
%TO.N,Net-(J2-Pin_3)*%
X105000000Y-86120000D03*
%TO.P,J2,4,Pin_4*%
%TO.N,Net-(J2-Pin_4)*%
X105000000Y-83580000D03*
%TO.P,J2,5,Pin_5*%
%TO.N,Net-(J2-Pin_5)*%
X105000000Y-81040000D03*
%TO.P,J2,6,Pin_6*%
%TO.N,Net-(J2-Pin_6)*%
X105000000Y-78500000D03*
%TO.P,J2,7,Pin_7*%
%TO.N,Net-(J2-Pin_7)*%
X105000000Y-75960000D03*
%TO.P,J2,8,Pin_8*%
%TO.N,Net-(J2-Pin_8)*%
X105000000Y-73420000D03*
%TD*%
D12*
%TO.P,U1,1*%
%TO.N,Net-(R13-Pad1)*%
X155000000Y-75900000D03*
D13*
%TO.P,U1,2*%
%TO.N,Net-(R5-Pad1)*%
X152460000Y-75900000D03*
%TO.P,U1,3*%
%TO.N,Net-(J1-Pin_5)*%
X149920000Y-75900000D03*
%TO.P,U1,4*%
%TO.N,Net-(R14-Pad1)*%
X147380000Y-75900000D03*
%TO.P,U1,5*%
%TO.N,Net-(R6-Pad1)*%
X144840000Y-75900000D03*
%TO.P,U1,6*%
%TO.N,Net-(J1-Pin_6)*%
X142300000Y-75900000D03*
%TO.P,U1,7*%
%TO.N,Net-(R15-Pad1)*%
X139760000Y-75900000D03*
%TO.P,U1,8*%
%TO.N,Net-(R7-Pad1)*%
X137220000Y-75900000D03*
%TO.P,U1,9*%
%TO.N,Net-(J1-Pin_7)*%
X134680000Y-75900000D03*
%TO.P,U1,10*%
%TO.N,Net-(R16-Pad1)*%
X132140000Y-75900000D03*
%TO.P,U1,11*%
%TO.N,Net-(R8-Pad1)*%
X129600000Y-75900000D03*
%TO.P,U1,12*%
%TO.N,Net-(J1-Pin_8)*%
X127060000Y-75900000D03*
%TO.P,U1,13*%
%TO.N,Net-(J1-Pin_4)*%
X127060000Y-122300000D03*
%TO.P,U1,14*%
%TO.N,Net-(R4-Pad1)*%
X129600000Y-122300000D03*
%TO.P,U1,15*%
%TO.N,Net-(R12-Pad1)*%
X132140000Y-122300000D03*
%TO.P,U1,16*%
%TO.N,Net-(J1-Pin_3)*%
X134680000Y-122300000D03*
%TO.P,U1,17*%
%TO.N,Net-(R3-Pad1)*%
X137220000Y-122300000D03*
%TO.P,U1,18*%
%TO.N,Net-(R11-Pad1)*%
X139760000Y-122300000D03*
%TO.P,U1,19*%
%TO.N,Net-(J1-Pin_2)*%
X142300000Y-122300000D03*
%TO.P,U1,20*%
%TO.N,Net-(R2-Pad1)*%
X144840000Y-122300000D03*
%TO.P,U1,21*%
%TO.N,Net-(R10-Pad1)*%
X147380000Y-122300000D03*
%TO.P,U1,22*%
%TO.N,Net-(J1-Pin_1)*%
X149920000Y-122300000D03*
%TO.P,U1,23*%
%TO.N,Net-(R1-Pad1)*%
X152460000Y-122300000D03*
%TO.P,U1,24*%
%TO.N,Net-(R9-Pad1)*%
X155000000Y-122300000D03*
%TD*%
D14*
%TO.N,Net-(J2-Pin_2)*%
X136400000Y-101700000D03*
X121600000Y-88600000D03*
%TO.N,Net-(J2-Pin_5)*%
X115000000Y-72750000D03*
X120000000Y-61250000D03*
%TO.N,Net-(J2-Pin_1)*%
X140000000Y-101700000D03*
X127800000Y-91200000D03*
%TO.N,Net-(J2-Pin_3)*%
X117220000Y-86120000D03*
X132750000Y-101650000D03*
%TO.N,Net-(J2-Pin_4)*%
X129400000Y-101700000D03*
X113150000Y-84350000D03*
%TO.N,Net-(J2-Pin_6)*%
X110250000Y-72750000D03*
X112500000Y-64000000D03*
%TO.N,Net-(J3-Pin_2)*%
X99200000Y-100400000D03*
X147200000Y-115700000D03*
%TO.N,Net-(J3-Pin_3)*%
X139400000Y-115700000D03*
X99200000Y-102200000D03*
%TO.N,Net-(J3-Pin_1)*%
X154800000Y-115700000D03*
X99500000Y-98600000D03*
%TO.N,Net-(J3-Pin_4)*%
X131700000Y-115700000D03*
X99400000Y-103800000D03*
%TO.N,Net-(J3-Pin_8)*%
X134000000Y-70750000D03*
X132550000Y-67450000D03*
%TD*%
D15*
%TO.N,Net-(J2-Pin_4)*%
X113150000Y-84350000D02*
X129400000Y-100600000D01*
X129400000Y-100600000D02*
X129400000Y-101700000D01*
%TO.N,Net-(J2-Pin_3)*%
X117220000Y-86120000D02*
X132750000Y-101650000D01*
%TO.N,Net-(J3-Pin_8)*%
X134000000Y-70750000D02*
X134000000Y-68900000D01*
X134000000Y-68900000D02*
X132550000Y-67450000D01*
%TO.N,Net-(J2-Pin_6)*%
X112500000Y-64000000D02*
X111500000Y-64000000D01*
X110250000Y-65250000D02*
X110250000Y-72750000D01*
X111500000Y-64000000D02*
X110250000Y-65250000D01*
%TO.N,Net-(J2-Pin_5)*%
X120000000Y-61250000D02*
X116250000Y-61250000D01*
X116250000Y-61250000D02*
X115000000Y-62500000D01*
X115000000Y-62500000D02*
X115000000Y-72750000D01*
%TO.N,Net-(J2-Pin_2)*%
X123300000Y-88600000D02*
X121600000Y-88600000D01*
X136400000Y-101700000D02*
X123300000Y-88600000D01*
%TO.N,Net-(J2-Pin_1)*%
X129500000Y-91200000D02*
X140000000Y-101700000D01*
X127800000Y-91200000D02*
X129500000Y-91200000D01*
%TO.N,Net-(J3-Pin_2)*%
X147200000Y-115700000D02*
X143500000Y-112000000D01*
X143500000Y-112000000D02*
X123200000Y-112000000D01*
X123200000Y-112000000D02*
X111600000Y-100400000D01*
X111600000Y-100400000D02*
X99200000Y-100400000D01*
%TO.N,Net-(J3-Pin_3)*%
X137400000Y-113700000D02*
X122500000Y-113700000D01*
X139400000Y-115700000D02*
X137400000Y-113700000D01*
X122500000Y-113700000D02*
X111000000Y-102200000D01*
X111000000Y-102200000D02*
X99200000Y-102200000D01*
%TO.N,Net-(J3-Pin_1)*%
X123800000Y-110400000D02*
X112000000Y-98600000D01*
X112000000Y-98600000D02*
X99500000Y-98600000D01*
X149500000Y-110400000D02*
X123800000Y-110400000D01*
X154800000Y-115700000D02*
X149500000Y-110400000D01*
%TO.N,Net-(J3-Pin_4)*%
X110500000Y-103800000D02*
X99400000Y-103800000D01*
X131700000Y-115700000D02*
X131000000Y-115000000D01*
X121700000Y-115000000D02*
X110500000Y-103800000D01*
X131000000Y-115000000D02*
X121700000Y-115000000D01*
%TD*%
M02*
