M48
; DRILL file {KiCad 8.0.6} date 2024-11-12T10:58:31+0330
; FORMAT={-:-/ absolute / metric / decimal}
; #@! TF.CreationDate,2024-11-12T10:58:31+03:30
; #@! TF.GenerationSoftware,Kicad,Pcbnew,8.0.6
; #@! TF.FileFunction,Plated,1,2,PTH
FMAT,2
METRIC
; #@! TA.AperFunction,Plated,PTH,ViaDrill
T1C0.300
; #@! TA.AperFunction,Plated,PTH,ComponentDrill
T2C0.800
; #@! TA.AperFunction,Plated,PTH,ComponentDrill
T3C1.000
%
G90
G05
T1
X110.25Y-72.75
X111.625Y-95.375
X111.625Y-100.125
X111.702Y-101.952
X111.75Y-88.75
X111.75Y-90.75
X111.75Y-92.75
X111.75Y-98.0
X111.75Y-104.0
X112.0Y-65.7
X115.0Y-72.75
X117.5Y-63.5
X125.25Y-109.0
X125.25Y-111.5
X125.375Y-106.375
X130.972Y-113.528
X131.0Y-108.25
X131.0Y-110.0
X133.0Y-67.9
X134.0Y-70.75
X137.75Y-114.75
X144.625Y-115.875
T2
X127.06Y-75.7
X127.06Y-122.5
X129.6Y-75.7
X129.6Y-122.5
X132.14Y-75.7
X132.14Y-122.5
X134.68Y-75.7
X134.68Y-122.5
X137.22Y-75.7
X137.22Y-122.5
X139.76Y-75.7
X139.76Y-122.5
X142.3Y-75.7
X142.3Y-122.5
X144.84Y-75.7
X144.84Y-122.5
X147.38Y-75.7
X147.38Y-122.5
X149.92Y-75.7
X149.92Y-122.5
X152.46Y-75.7
X152.46Y-122.5
X155.0Y-75.7
X155.0Y-122.5
T3
X98.5Y-73.26
X98.5Y-75.8
X98.5Y-78.34
X98.5Y-80.88
X98.5Y-83.42
X98.5Y-85.96
X98.5Y-88.5
X98.5Y-91.04
X105.0Y-73.42
X105.0Y-75.96
X105.0Y-78.5
X105.0Y-81.04
X105.0Y-83.58
X105.0Y-86.12
X105.0Y-88.66
X105.0Y-91.2
X105.25Y-109.96
X105.25Y-112.5
X105.25Y-115.04
X105.25Y-117.58
X105.25Y-120.12
X105.25Y-122.66
X105.25Y-125.2
X105.25Y-127.74
M30
