%TF.GenerationSoftware,KiCad,Pcbnew,8.0.6*%
%TF.CreationDate,2024-11-11T19:43:46+03:30*%
%TF.ProjectId,DotMatrix,446f744d-6174-4726-9978-2e6b69636164,rev?*%
%TF.SameCoordinates,Original*%
%TF.FileFunction,Copper,L2,Bot*%
%TF.FilePolarity,Positive*%
%FSLAX46Y46*%
G04 Gerber Fmt 4.6, Leading zero omitted, Abs format (unit mm)*
G04 Created by KiCad (PCBNEW 8.0.6) date 2024-11-11 19:43:46*
%MOMM*%
%LPD*%
G01*
G04 APERTURE LIST*
G04 Aperture macros list*
%AMRoundRect*
0 Rectangle with rounded corners*
0 $1 Rounding radius*
0 $2 $3 $4 $5 $6 $7 $8 $9 X,Y pos of 4 corners*
0 Add a 4 corners polygon primitive as box body*
4,1,4,$2,$3,$4,$5,$6,$7,$8,$9,$2,$3,0*
0 Add four circle primitives for the rounded corners*
1,1,$1+$1,$2,$3*
1,1,$1+$1,$4,$5*
1,1,$1+$1,$6,$7*
1,1,$1+$1,$8,$9*
0 Add four rect primitives between the rounded corners*
20,1,$1+$1,$2,$3,$4,$5,0*
20,1,$1+$1,$4,$5,$6,$7,0*
20,1,$1+$1,$6,$7,$8,$9,0*
20,1,$1+$1,$8,$9,$2,$3,0*%
G04 Aperture macros list end*
%TA.AperFunction,ComponentPad*%
%ADD10R,1.700000X1.700000*%
%TD*%
%TA.AperFunction,ComponentPad*%
%ADD11O,1.700000X1.700000*%
%TD*%
%TA.AperFunction,ComponentPad*%
%ADD12R,1.800000X1.800000*%
%TD*%
%TA.AperFunction,ComponentPad*%
%ADD13C,1.800000*%
%TD*%
%TA.AperFunction,SMDPad,CuDef*%
%ADD14RoundRect,0.200000X0.275000X-0.200000X0.275000X0.200000X-0.275000X0.200000X-0.275000X-0.200000X0*%
%TD*%
%TA.AperFunction,ViaPad*%
%ADD15C,0.700000*%
%TD*%
%TA.AperFunction,Conductor*%
%ADD16C,0.700000*%
%TD*%
G04 APERTURE END LIST*
D10*
%TO.P,J1,1,Pin_1*%
%TO.N,Net-(J1-Pin_1)*%
X105250000Y-127740000D03*
D11*
%TO.P,J1,2,Pin_2*%
%TO.N,Net-(J1-Pin_2)*%
X105250000Y-125200000D03*
%TO.P,J1,3,Pin_3*%
%TO.N,Net-(J1-Pin_3)*%
X105250000Y-122660000D03*
%TO.P,J1,4,Pin_4*%
%TO.N,Net-(J1-Pin_4)*%
X105250000Y-120120000D03*
%TO.P,J1,5,Pin_5*%
%TO.N,Net-(J1-Pin_5)*%
X105250000Y-117580000D03*
%TO.P,J1,6,Pin_6*%
%TO.N,Net-(J1-Pin_6)*%
X105250000Y-115040000D03*
%TO.P,J1,7,Pin_7*%
%TO.N,Net-(J1-Pin_7)*%
X105250000Y-112500000D03*
%TO.P,J1,8,Pin_8*%
%TO.N,Net-(J1-Pin_8)*%
X105250000Y-109960000D03*
%TD*%
D10*
%TO.P,J3,1,Pin_1*%
%TO.N,Net-(J3-Pin_1)*%
X98500000Y-91040000D03*
D11*
%TO.P,J3,2,Pin_2*%
%TO.N,Net-(J3-Pin_2)*%
X98500000Y-88500000D03*
%TO.P,J3,3,Pin_3*%
%TO.N,Net-(J3-Pin_3)*%
X98500000Y-85960000D03*
%TO.P,J3,4,Pin_4*%
%TO.N,Net-(J3-Pin_4)*%
X98500000Y-83420000D03*
%TO.P,J3,5,Pin_5*%
%TO.N,Net-(J3-Pin_5)*%
X98500000Y-80880000D03*
%TO.P,J3,6,Pin_6*%
%TO.N,Net-(J3-Pin_6)*%
X98500000Y-78340000D03*
%TO.P,J3,7,Pin_7*%
%TO.N,Net-(J3-Pin_7)*%
X98500000Y-75800000D03*
%TO.P,J3,8,Pin_8*%
%TO.N,Net-(J3-Pin_8)*%
X98500000Y-73260000D03*
%TD*%
D10*
%TO.P,J2,1,Pin_1*%
%TO.N,Net-(J2-Pin_1)*%
X105000000Y-91200000D03*
D11*
%TO.P,J2,2,Pin_2*%
%TO.N,Net-(J2-Pin_2)*%
X105000000Y-88660000D03*
%TO.P,J2,3,Pin_3*%
%TO.N,Net-(J2-Pin_3)*%
X105000000Y-86120000D03*
%TO.P,J2,4,Pin_4*%
%TO.N,Net-(J2-Pin_4)*%
X105000000Y-83580000D03*
%TO.P,J2,5,Pin_5*%
%TO.N,Net-(J2-Pin_5)*%
X105000000Y-81040000D03*
%TO.P,J2,6,Pin_6*%
%TO.N,Net-(J2-Pin_6)*%
X105000000Y-78500000D03*
%TO.P,J2,7,Pin_7*%
%TO.N,Net-(J2-Pin_7)*%
X105000000Y-75960000D03*
%TO.P,J2,8,Pin_8*%
%TO.N,Net-(J2-Pin_8)*%
X105000000Y-73420000D03*
%TD*%
D12*
%TO.P,U1,1*%
%TO.N,Net-(R13-Pad1)*%
X155000000Y-75700000D03*
D13*
%TO.P,U1,2*%
%TO.N,Net-(R5-Pad1)*%
X152460000Y-75700000D03*
%TO.P,U1,3*%
%TO.N,Net-(J1-Pin_5)*%
X149920000Y-75700000D03*
%TO.P,U1,4*%
%TO.N,Net-(R14-Pad1)*%
X147380000Y-75700000D03*
%TO.P,U1,5*%
%TO.N,Net-(R6-Pad1)*%
X144840000Y-75700000D03*
%TO.P,U1,6*%
%TO.N,Net-(J1-Pin_6)*%
X142300000Y-75700000D03*
%TO.P,U1,7*%
%TO.N,Net-(R15-Pad1)*%
X139760000Y-75700000D03*
%TO.P,U1,8*%
%TO.N,Net-(R7-Pad1)*%
X137220000Y-75700000D03*
%TO.P,U1,9*%
%TO.N,Net-(J1-Pin_7)*%
X134680000Y-75700000D03*
%TO.P,U1,10*%
%TO.N,Net-(R16-Pad1)*%
X132140000Y-75700000D03*
%TO.P,U1,11*%
%TO.N,Net-(R8-Pad1)*%
X129600000Y-75700000D03*
%TO.P,U1,12*%
%TO.N,Net-(J1-Pin_8)*%
X127060000Y-75700000D03*
%TO.P,U1,13*%
%TO.N,Net-(J1-Pin_4)*%
X155000000Y-122500000D03*
%TO.P,U1,14*%
%TO.N,Net-(R4-Pad1)*%
X152460000Y-122500000D03*
%TO.P,U1,15*%
%TO.N,Net-(R12-Pad1)*%
X149920000Y-122500000D03*
%TO.P,U1,16*%
%TO.N,Net-(J1-Pin_3)*%
X147380000Y-122500000D03*
%TO.P,U1,17*%
%TO.N,Net-(R3-Pad1)*%
X144840000Y-122500000D03*
%TO.P,U1,18*%
%TO.N,Net-(R11-Pad1)*%
X142300000Y-122500000D03*
%TO.P,U1,19*%
%TO.N,Net-(J1-Pin_2)*%
X139760000Y-122500000D03*
%TO.P,U1,20*%
%TO.N,Net-(R2-Pad1)*%
X137220000Y-122500000D03*
%TO.P,U1,21*%
%TO.N,Net-(R10-Pad1)*%
X134680000Y-122500000D03*
%TO.P,U1,22*%
%TO.N,Net-(J1-Pin_1)*%
X132140000Y-122500000D03*
%TO.P,U1,23*%
%TO.N,Net-(R1-Pad1)*%
X129600000Y-122500000D03*
%TO.P,U1,24*%
%TO.N,Net-(R9-Pad1)*%
X127060000Y-122500000D03*
%TD*%
D14*
%TO.P,R4,1*%
%TO.N,Net-(R4-Pad1)*%
X152250000Y-119650000D03*
%TO.P,R4,2*%
%TO.N,Net-(J2-Pin_4)*%
X152250000Y-118000000D03*
%TD*%
%TO.P,R14,1*%
%TO.N,Net-(R14-Pad1)*%
X148000000Y-72825000D03*
%TO.P,R14,2*%
%TO.N,Net-(J3-Pin_6)*%
X148000000Y-71175000D03*
%TD*%
%TO.P,R8,1*%
%TO.N,Net-(R8-Pad1)*%
X129500000Y-72825000D03*
%TO.P,R8,2*%
%TO.N,Net-(J2-Pin_8)*%
X129500000Y-71175000D03*
%TD*%
%TO.P,R2,1*%
%TO.N,Net-(R2-Pad1)*%
X137000000Y-119650000D03*
%TO.P,R2,2*%
%TO.N,Net-(J2-Pin_2)*%
X137000000Y-118000000D03*
%TD*%
%TO.P,R1,1*%
%TO.N,Net-(R1-Pad1)*%
X129500000Y-119650000D03*
%TO.P,R1,2*%
%TO.N,Net-(J2-Pin_1)*%
X129500000Y-118000000D03*
%TD*%
%TO.P,R7,1*%
%TO.N,Net-(R7-Pad1)*%
X136750000Y-72825000D03*
%TO.P,R7,2*%
%TO.N,Net-(J2-Pin_7)*%
X136750000Y-71175000D03*
%TD*%
%TO.P,R3,1*%
%TO.N,Net-(R3-Pad1)*%
X144750000Y-119650000D03*
%TO.P,R3,2*%
%TO.N,Net-(J2-Pin_3)*%
X144750000Y-118000000D03*
%TD*%
%TO.P,R6,1*%
%TO.N,Net-(R6-Pad1)*%
X145000000Y-72825000D03*
%TO.P,R6,2*%
%TO.N,Net-(J2-Pin_6)*%
X145000000Y-71175000D03*
%TD*%
%TO.P,R16,1*%
%TO.N,Net-(R16-Pad1)*%
X132500000Y-72825000D03*
%TO.P,R16,2*%
%TO.N,Net-(J3-Pin_8)*%
X132500000Y-71175000D03*
%TD*%
%TO.P,R5,1*%
%TO.N,Net-(R5-Pad1)*%
X152250000Y-72825000D03*
%TO.P,R5,2*%
%TO.N,Net-(J2-Pin_5)*%
X152250000Y-71175000D03*
%TD*%
%TO.P,R15,1*%
%TO.N,Net-(R15-Pad1)*%
X139750000Y-72825000D03*
%TO.P,R15,2*%
%TO.N,Net-(J3-Pin_7)*%
X139750000Y-71175000D03*
%TD*%
%TO.P,R11,1*%
%TO.N,Net-(R11-Pad1)*%
X142000000Y-119650000D03*
%TO.P,R11,2*%
%TO.N,Net-(J3-Pin_3)*%
X142000000Y-118000000D03*
%TD*%
%TO.P,R12,1*%
%TO.N,Net-(R12-Pad1)*%
X149250000Y-119650000D03*
%TO.P,R12,2*%
%TO.N,Net-(J3-Pin_4)*%
X149250000Y-118000000D03*
%TD*%
%TO.P,R13,1*%
%TO.N,Net-(R13-Pad1)*%
X155000000Y-72750000D03*
%TO.P,R13,2*%
%TO.N,Net-(J3-Pin_5)*%
X155000000Y-71100000D03*
%TD*%
%TO.P,R9,1*%
%TO.N,Net-(R9-Pad1)*%
X126750000Y-119650000D03*
%TO.P,R9,2*%
%TO.N,Net-(J3-Pin_1)*%
X126750000Y-118000000D03*
%TD*%
%TO.P,R10,1*%
%TO.N,Net-(R10-Pad1)*%
X134250000Y-119650000D03*
%TO.P,R10,2*%
%TO.N,Net-(J3-Pin_2)*%
X134250000Y-118000000D03*
%TD*%
D15*
%TO.N,Net-(J2-Pin_2)*%
X125375000Y-106375000D03*
X111750000Y-92750000D03*
%TO.N,Net-(J2-Pin_5)*%
X115000000Y-72750000D03*
X117500000Y-63500000D03*
%TO.N,Net-(J2-Pin_1)*%
X125250000Y-109000000D03*
X111625000Y-95375000D03*
%TO.N,Net-(J2-Pin_3)*%
X131000000Y-110000000D03*
X111750000Y-90750000D03*
%TO.N,Net-(J2-Pin_4)*%
X131000000Y-108250000D03*
X111750000Y-88750000D03*
%TO.N,Net-(J2-Pin_6)*%
X110250000Y-72750000D03*
X112000000Y-65700000D03*
%TO.N,Net-(J3-Pin_2)*%
X111625000Y-100125000D03*
X130972182Y-113527818D03*
%TO.N,Net-(J3-Pin_3)*%
X137750000Y-114750000D03*
X111702182Y-101952182D03*
%TO.N,Net-(J3-Pin_1)*%
X125250000Y-111500000D03*
X111750000Y-98000000D03*
%TO.N,Net-(J3-Pin_4)*%
X144625000Y-115875000D03*
X111750000Y-104000000D03*
%TO.N,Net-(J3-Pin_8)*%
X134000000Y-70750000D03*
X133000000Y-67900000D03*
%TD*%
D16*
%TO.N,Net-(J1-Pin_3)*%
X139440000Y-130440000D02*
X103194365Y-130440000D01*
X102550000Y-129795635D02*
X102550000Y-125360000D01*
X102550000Y-125360000D02*
X105250000Y-122660000D01*
X103194365Y-130440000D02*
X102550000Y-129795635D01*
X147380000Y-122500000D02*
X139440000Y-130440000D01*
%TO.N,Net-(J1-Pin_2)*%
X139760000Y-122500000D02*
X132920000Y-129340000D01*
X132920000Y-129340000D02*
X103650000Y-129340000D01*
X104590000Y-125200000D02*
X105250000Y-125200000D01*
X103650000Y-129340000D02*
X103650000Y-126140000D01*
X103650000Y-126140000D02*
X104590000Y-125200000D01*
%TO.N,Net-(J1-Pin_4)*%
X102738730Y-131540000D02*
X101450000Y-130251270D01*
X101450000Y-123920000D02*
X105250000Y-120120000D01*
X101450000Y-130251270D02*
X101450000Y-123920000D01*
X155000000Y-122500000D02*
X145960000Y-131540000D01*
X145960000Y-131540000D02*
X102738730Y-131540000D01*
%TO.N,Net-(J1-Pin_7)*%
X112138732Y-112500000D02*
X134680000Y-89958732D01*
X134680000Y-89958732D02*
X134680000Y-75500000D01*
X105250000Y-112500000D02*
X112138732Y-112500000D01*
%TO.N,Net-(J1-Pin_6)*%
X142300000Y-83894366D02*
X142300000Y-75500000D01*
X111154366Y-115040000D02*
X142300000Y-83894366D01*
X105250000Y-115040000D02*
X111154366Y-115040000D01*
%TO.N,Net-(J1-Pin_8)*%
X113123098Y-109960000D02*
X127060000Y-96023098D01*
X105250000Y-109960000D02*
X113123098Y-109960000D01*
X127060000Y-96023098D02*
X127060000Y-75500000D01*
%TO.N,Net-(J1-Pin_5)*%
X110170000Y-117580000D02*
X149920000Y-77830000D01*
X149920000Y-77830000D02*
X149920000Y-75500000D01*
X105250000Y-117580000D02*
X110170000Y-117580000D01*
%TO.N,Net-(J1-Pin_1)*%
X126900000Y-127740000D02*
X105250000Y-127740000D01*
X132140000Y-122500000D02*
X126900000Y-127740000D01*
%TO.N,Net-(J2-Pin_2)*%
X137000000Y-118000000D02*
X125375000Y-106375000D01*
X111750000Y-92750000D02*
X107660000Y-88660000D01*
X107660000Y-88660000D02*
X105000000Y-88660000D01*
%TO.N,Net-(J2-Pin_5)*%
X109210000Y-81040000D02*
X105000000Y-81040000D01*
X115000000Y-72750000D02*
X115000000Y-75250000D01*
X117500000Y-63500000D02*
X144575000Y-63500000D01*
X115000000Y-75250000D02*
X109210000Y-81040000D01*
X144575000Y-63500000D02*
X152250000Y-71175000D01*
%TO.N,Net-(J2-Pin_8)*%
X107245000Y-71175000D02*
X105000000Y-73420000D01*
X129500000Y-71175000D02*
X107245000Y-71175000D01*
%TO.N,Net-(J2-Pin_7)*%
X134575000Y-69000000D02*
X107157258Y-69000000D01*
X103400000Y-72757258D02*
X103400000Y-74360000D01*
X107157258Y-69000000D02*
X103400000Y-72757258D01*
X136750000Y-71175000D02*
X134575000Y-69000000D01*
X103400000Y-74360000D02*
X105000000Y-75960000D01*
%TO.N,Net-(J2-Pin_1)*%
X129500000Y-113250000D02*
X129500000Y-118000000D01*
X111625000Y-95375000D02*
X107450000Y-91200000D01*
X107450000Y-91200000D02*
X105000000Y-91200000D01*
X125250000Y-109000000D02*
X129500000Y-113250000D01*
%TO.N,Net-(J2-Pin_3)*%
X111750000Y-90750000D02*
X107120000Y-86120000D01*
X107120000Y-86120000D02*
X105000000Y-86120000D01*
X131000000Y-110000000D02*
X134500000Y-113500000D01*
X134500000Y-113500000D02*
X140375000Y-113500000D01*
X140375000Y-113500000D02*
X144750000Y-117875000D01*
X144750000Y-117875000D02*
X144750000Y-118000000D01*
%TO.N,Net-(J2-Pin_4)*%
X131000000Y-108250000D02*
X131100000Y-108250000D01*
X146500000Y-112250000D02*
X152250000Y-118000000D01*
X111750000Y-88750000D02*
X106580000Y-83580000D01*
X135100000Y-112250000D02*
X146500000Y-112250000D01*
X106580000Y-83580000D02*
X105000000Y-83580000D01*
X131100000Y-108250000D02*
X135100000Y-112250000D01*
%TO.N,Net-(J2-Pin_6)*%
X110250000Y-75250000D02*
X107000000Y-78500000D01*
X139525000Y-65700000D02*
X145000000Y-71175000D01*
X112000000Y-65700000D02*
X139525000Y-65700000D01*
X107000000Y-78500000D02*
X105000000Y-78500000D01*
X110250000Y-72750000D02*
X110250000Y-75250000D01*
%TO.N,Net-(J3-Pin_7)*%
X101385989Y-71660000D02*
X97837258Y-71660000D01*
X97837258Y-71660000D02*
X96900000Y-72597258D01*
X139750000Y-71175000D02*
X135375000Y-66800000D01*
X96900000Y-73922742D02*
X98500000Y-75522742D01*
X96900000Y-72597258D02*
X96900000Y-73922742D01*
X135375000Y-66800000D02*
X106245989Y-66800000D01*
X106245989Y-66800000D02*
X101385989Y-71660000D01*
X98500000Y-75522742D02*
X98500000Y-75800000D01*
%TO.N,Net-(J3-Pin_2)*%
X111625000Y-100000000D02*
X106625000Y-95000000D01*
X130972182Y-113527818D02*
X130972182Y-113722182D01*
X130972182Y-113722182D02*
X134250000Y-117000000D01*
X111625000Y-100125000D02*
X111625000Y-100000000D01*
X99000000Y-95000000D02*
X96900000Y-92900000D01*
X96900000Y-92900000D02*
X96900000Y-89600000D01*
X98000000Y-88500000D02*
X98500000Y-88500000D01*
X134250000Y-117000000D02*
X134250000Y-118000000D01*
X96900000Y-89600000D02*
X98000000Y-88500000D01*
X106625000Y-95000000D02*
X99000000Y-95000000D01*
%TO.N,Net-(J3-Pin_3)*%
X97290000Y-85960000D02*
X98500000Y-85960000D01*
X137750000Y-114750000D02*
X138750000Y-114750000D01*
X95800000Y-87450000D02*
X97290000Y-85960000D01*
X106000000Y-96250000D02*
X98694366Y-96250000D01*
X111702182Y-101952182D02*
X106000000Y-96250000D01*
X138750000Y-114750000D02*
X142000000Y-118000000D01*
X98694366Y-96250000D02*
X95800000Y-93355634D01*
X95800000Y-93355634D02*
X95800000Y-87450000D01*
%TO.N,Net-(J3-Pin_6)*%
X106890355Y-64600000D02*
X100930355Y-70560000D01*
X148000000Y-71175000D02*
X141425000Y-64600000D01*
X95800000Y-75640000D02*
X98500000Y-78340000D01*
X141425000Y-64600000D02*
X106890355Y-64600000D01*
X97381623Y-70560000D02*
X95800000Y-72141623D01*
X100930355Y-70560000D02*
X97381623Y-70560000D01*
X95800000Y-72141623D02*
X95800000Y-75640000D01*
%TO.N,Net-(J3-Pin_5)*%
X96925988Y-69460000D02*
X94700000Y-71685988D01*
X146300000Y-62400000D02*
X107534721Y-62400000D01*
X100474721Y-69460000D02*
X96925988Y-69460000D01*
X94700000Y-71685988D02*
X94700000Y-77080000D01*
X107534721Y-62400000D02*
X100474721Y-69460000D01*
X94700000Y-77080000D02*
X98500000Y-80880000D01*
X155000000Y-71100000D02*
X146300000Y-62400000D01*
%TO.N,Net-(J3-Pin_1)*%
X111750000Y-98000000D02*
X107500000Y-93750000D01*
X126750000Y-113000000D02*
X126750000Y-118000000D01*
X99500000Y-93750000D02*
X98500000Y-92750000D01*
X107500000Y-93750000D02*
X99500000Y-93750000D01*
X98500000Y-92750000D02*
X98500000Y-91040000D01*
X125250000Y-111500000D02*
X126750000Y-113000000D01*
%TO.N,Net-(J3-Pin_4)*%
X111750000Y-104000000D02*
X105100000Y-97350000D01*
X94700000Y-93811269D02*
X94700000Y-86300000D01*
X105100000Y-97350000D02*
X98238731Y-97350000D01*
X98238731Y-97350000D02*
X94700000Y-93811269D01*
X144625000Y-115875000D02*
X147375000Y-115875000D01*
X147375000Y-115875000D02*
X149250000Y-117750000D01*
X97580000Y-83420000D02*
X98500000Y-83420000D01*
X149250000Y-117750000D02*
X149250000Y-118000000D01*
X94700000Y-86300000D02*
X97580000Y-83420000D01*
%TO.N,Net-(J3-Pin_8)*%
X106701624Y-67900000D02*
X101341624Y-73260000D01*
X101341624Y-73260000D02*
X98500000Y-73260000D01*
X133000000Y-67900000D02*
X106701624Y-67900000D01*
X133575000Y-71175000D02*
X134000000Y-70750000D01*
X132500000Y-71175000D02*
X133575000Y-71175000D01*
%TO.N,Net-(R14-Pad1)*%
X148000000Y-74880000D02*
X147380000Y-75500000D01*
X148000000Y-72825000D02*
X148000000Y-74880000D01*
%TO.N,Net-(R10-Pad1)*%
X134680000Y-120080000D02*
X134250000Y-119650000D01*
X134680000Y-122500000D02*
X134680000Y-120080000D01*
%TO.N,Net-(R15-Pad1)*%
X139750000Y-75490000D02*
X139760000Y-75500000D01*
X139750000Y-72825000D02*
X139750000Y-75490000D01*
%TO.N,Net-(R5-Pad1)*%
X152250000Y-75290000D02*
X152460000Y-75500000D01*
X152250000Y-72825000D02*
X152250000Y-75290000D01*
%TO.N,Net-(R7-Pad1)*%
X136750000Y-72825000D02*
X136750000Y-75030000D01*
X136750000Y-75030000D02*
X137220000Y-75500000D01*
%TO.N,Net-(R2-Pad1)*%
X137220000Y-119870000D02*
X137000000Y-119650000D01*
X137220000Y-122500000D02*
X137220000Y-119870000D01*
%TO.N,Net-(R6-Pad1)*%
X145000000Y-75340000D02*
X144840000Y-75500000D01*
X145000000Y-72825000D02*
X145000000Y-75340000D01*
%TO.N,Net-(R12-Pad1)*%
X149920000Y-122500000D02*
X149920000Y-120320000D01*
X149920000Y-120320000D02*
X149250000Y-119650000D01*
%TO.N,Net-(R3-Pad1)*%
X144840000Y-119740000D02*
X144750000Y-119650000D01*
X144840000Y-122500000D02*
X144840000Y-119740000D01*
%TO.N,Net-(R4-Pad1)*%
X152460000Y-119860000D02*
X152250000Y-119650000D01*
X152460000Y-122500000D02*
X152460000Y-119860000D01*
%TO.N,Net-(R13-Pad1)*%
X155000000Y-72750000D02*
X155000000Y-75500000D01*
%TO.N,Net-(R11-Pad1)*%
X142300000Y-119950000D02*
X142000000Y-119650000D01*
X142300000Y-122500000D02*
X142300000Y-119950000D01*
%TO.N,Net-(R8-Pad1)*%
X129500000Y-72825000D02*
X129500000Y-75400000D01*
X129500000Y-75400000D02*
X129600000Y-75500000D01*
%TO.N,Net-(R16-Pad1)*%
X132500000Y-75140000D02*
X132140000Y-75500000D01*
X132500000Y-72825000D02*
X132500000Y-75140000D01*
%TO.N,Net-(R9-Pad1)*%
X127060000Y-119960000D02*
X126750000Y-119650000D01*
X127060000Y-122500000D02*
X127060000Y-119960000D01*
%TO.N,Net-(R1-Pad1)*%
X129600000Y-122500000D02*
X129600000Y-119750000D01*
X129600000Y-119750000D02*
X129500000Y-119650000D01*
%TD*%
M02*
